WD-XL_Lubrifont-TC.ufo
<glyph name="less" format="2">
  <advance width="556"/>
  <unicode hex="003C"/>
  <outline>
    <contour>
      <point x="435" y="-47" type="qcurve" smooth="yes"/>
      <point x="53" y="345" type="line" smooth="yes"/>
      <point x="39" y="359"/>
      <point x="40" y="373" type="qcurve" smooth="yes"/>
      <point x="41" y="388"/>
      <point x="55" y="401" type="qcurve"/>
      <point x="434" y="768" type="line" smooth="yes"/>
      <point x="447" y="781"/>
      <point x="461" y="781" type="qcurve" smooth="yes"/>
      <point x="476" y="781"/>
      <point x="490" y="766" type="qcurve" smooth="yes"/>
      <point x="501" y="754" type="line"/>
      <point x="514" y="741"/>
      <point x="514" y="726" type="qcurve" smooth="yes"/>
      <point x="514" y="711"/>
      <point x="500" y="697" type="qcurve" smooth="yes"/>
      <point x="199" y="401" type="line" smooth="yes"/>
      <point x="185" y="387"/>
      <point x="185" y="373" type="qcurve" smooth="yes"/>
      <point x="185" y="360"/>
      <point x="197" y="345" type="qcurve"/>
      <point x="504" y="19" type="line" smooth="yes"/>
      <point x="517" y="5"/>
      <point x="516" y="-9" type="qcurve"/>
      <point x="516" y="-23"/>
      <point x="502" y="-37" type="qcurve"/>
      <point x="492" y="-48" type="line"/>
      <point x="478" y="-62"/>
      <point x="464" y="-62" type="qcurve" smooth="yes"/>
      <point x="449" y="-62"/>
    </contour>
  </outline>
</glyph>
<glyph name="ordfeminine" format="2">
  <advance width="305"/>
  <unicode hex="00AA"/>
  <outline>
    <contour>
      <point x="72" y="396" type="qcurve" smooth="yes"/>
      <point x="49" y="419" type="line" smooth="yes"/>
      <point x="35" y="433"/>
      <point x="35" y="453" type="qcurve" smooth="yes"/>
      <point x="35" y="529" type="line" smooth="yes"/>
      <point x="35" y="539"/>
      <point x="42" y="555"/>
      <point x="50" y="563" type="qcurve" smooth="yes"/>
      <point x="72" y="585" type="line" smooth="yes"/>
      <point x="86" y="599"/>
      <point x="107" y="599" type="qcurve" smooth="yes"/>
      <point x="173" y="599" type="line" smooth="yes"/>
      <point x="201" y="599"/>
      <point x="201" y="627" type="qcurve" smooth="yes"/>
      <point x="201" y="635" type="line" smooth="yes"/>
      <point x="201" y="663"/>
      <point x="173" y="663" type="qcurve" smooth="yes"/>
      <point x="65" y="663" type="line" smooth="yes"/>
      <point x="37" y="663"/>
      <point x="37" y="695" type="qcurve" smooth="yes"/>
      <point x="37" y="727"/>
      <point x="65" y="727" type="qcurve" smooth="yes"/>
      <point x="193" y="727" type="line" smooth="yes"/>
      <point x="214" y="727"/>
      <point x="228" y="713" type="qcurve" smooth="yes"/>
      <point x="251" y="690" type="line" smooth="yes"/>
      <point x="265" y="676"/>
      <point x="265" y="656" type="qcurve" smooth="yes"/>
      <point x="265" y="410" type="line" smooth="yes"/>
      <point x="265" y="382"/>
      <point x="237" y="382" type="qcurve" smooth="yes"/>
      <point x="107" y="382" type="line" smooth="yes"/>
      <point x="86" y="382"/>
    </contour>
    <contour>
      <point x="99" y="472" type="line" smooth="yes"/>
      <point x="99" y="444"/>
      <point x="127" y="444" type="qcurve" smooth="yes"/>
      <point x="173" y="444" type="line" smooth="yes"/>
      <point x="201" y="444"/>
      <point x="201" y="472" type="qcurve" smooth="yes"/>
      <point x="201" y="509" type="line" smooth="yes"/>
      <point x="201" y="537"/>
      <point x="173" y="537" type="qcurve" smooth="yes"/>
      <point x="127" y="537" type="line" smooth="yes"/>
      <point x="99" y="537"/>
      <point x="99" y="509" type="qcurve" smooth="yes"/>
    </contour>
  </outline>
</glyph>
<glyph name="softhyphen" format="2">
  <advance width="385"/>
  <unicode hex="00AD"/>
  <outline>
    <contour>
      <point x="70" y="273" type="line" smooth="yes"/>
      <point x="30" y="273"/>
      <point x="30" y="313" type="qcurve" smooth="yes"/>
      <point x="30" y="333" type="line" smooth="yes"/>
      <point x="30" y="373"/>
      <point x="70" y="373" type="qcurve" smooth="yes"/>
      <point x="315" y="373" type="line" smooth="yes"/>
      <point x="355" y="373"/>
      <point x="355" y="333" type="qcurve" smooth="yes"/>
      <point x="355" y="313" type="line" smooth="yes"/>
      <point x="355" y="273"/>
      <point x="315" y="273" type="qcurve" smooth="yes"/>
    </contour>
  </outline>
</glyph>
<glyph name="periodcentered" format="2">
  <advance width="765"/>
  <unicode hex="00B7"/>
  <outline>
    <contour>
      <point x="382" y="311" type="line" smooth="yes"/>
      <point x="342" y="311"/>
      <point x="342" y="351" type="qcurve" smooth="yes"/>
      <point x="342" y="396" type="line" smooth="yes"/>
      <point x="342" y="436"/>
      <point x="382" y="436" type="qcurve" smooth="yes"/>
      <point x="403" y="436" type="line" smooth="yes"/>
      <point x="443" y="436"/>
      <point x="443" y="396" type="qcurve" smooth="yes"/>
      <point x="443" y="351" type="line" smooth="yes"/>
      <point x="443" y="311"/>
      <point x="403" y="311" type="qcurve" smooth="yes"/>
    </contour>
  </outline>
</glyph>
<glyph name="threequarters" format="2">
  <advance width="765"/>
  <unicode hex="00BE"/>
  <outline>
    <contour>
      <point x="548" y="50" type="line" smooth="yes"/>
      <point x="516" y="50"/>
      <point x="493" y="73" type="qcurve" smooth="yes"/>
      <point x="471" y="95"/>
      <point x="471" y="127" type="qcurve" smooth="yes"/>
      <point x="471" y="296" type="line" smooth="yes"/>
      <point x="471" y="328"/>
      <point x="503" y="328" type="qcurve" smooth="yes"/>
      <point x="535" y="328"/>
      <point x="535" y="296" type="qcurve" smooth="yes"/>
      <point x="535" y="154" type="line" smooth="yes"/>
      <point x="535" y="114"/>
      <point x="575" y="114" type="qcurve" smooth="yes"/>
      <point x="612" y="114" type="line" smooth="yes"/>
      <point x="652" y="114"/>
      <point x="652" y="154" type="qcurve" smooth="yes"/>
      <point x="652" y="296" type="line" smooth="yes"/>
      <point x="652" y="328"/>
      <point x="684" y="328" type="qcurve" smooth="yes"/>
      <point x="716" y="328"/>
      <point x="716" y="296" type="qcurve" smooth="yes"/>
      <point x="716" y="-72" type="line" smooth="yes"/>
      <point x="716" y="-104"/>
      <point x="684" y="-104" type="qcurve" smooth="yes"/>
      <point x="652" y="-104"/>
      <point x="652" y="-72" type="qcurve" smooth="yes"/>
      <point x="652" y="10" type="line" smooth="yes"/>
      <point x="652" y="28"/>
      <point x="630" y="50"/>
      <point x="612" y="50" type="qcurve" smooth="yes"/>
    </contour>
    <contour>
      <point x="262" y="587" type="qcurve" smooth="yes"/>
      <point x="280" y="569"/>
      <point x="280" y="543" type="qcurve" smooth="yes"/>
      <point x="280" y="459" type="line" smooth="yes"/>
      <point x="280" y="427"/>
      <point x="258" y="405" type="qcurve" smooth="yes"/>
      <point x="235" y="382"/>
      <point x="203" y="382" type="qcurve" smooth="yes"/>
      <point x="67" y="382" type="line" smooth="yes"/>
      <point x="35" y="382"/>
      <point x="35" y="414" type="qcurve" smooth="yes"/>
      <point x="35" y="446"/>
      <point x="67" y="446" type="qcurve" smooth="yes"/>
      <point x="176" y="446" type="line" smooth="yes"/>
      <point x="216" y="446"/>
      <point x="216" y="486" type="qcurve" smooth="yes"/>
      <point x="216" y="525" type="line" smooth="yes"/>
      <point x="216" y="565"/>
      <point x="176" y="565" type="qcurve" smooth="yes"/>
      <point x="72" y="565" type="line" smooth="yes"/>
      <point x="40" y="565"/>
      <point x="40" y="597" type="qcurve" smooth="yes"/>
      <point x="40" y="629"/>
      <point x="72" y="629" type="qcurve" smooth="yes"/>
      <point x="176" y="629" type="line" smooth="yes"/>
      <point x="216" y="629"/>
      <point x="216" y="669" type="qcurve" smooth="yes"/>
      <point x="216" y="710" type="line" smooth="yes"/>
      <point x="216" y="750"/>
      <point x="176" y="750" type="qcurve" smooth="yes"/>
      <point x="67" y="750" type="line" smooth="yes"/>
      <point x="35" y="750"/>
      <point x="35" y="782" type="qcurve" smooth="yes"/>
      <point x="35" y="814"/>
      <point x="67" y="814" type="qcurve" smooth="yes"/>
      <point x="203" y="814" type="line" smooth="yes"/>
      <point x="235" y="814"/>
      <point x="258" y="791" type="qcurve" smooth="yes"/>
      <point x="280" y="769"/>
      <point x="280" y="737" type="qcurve" smooth="yes"/>
      <point x="280" y="643" type="line" smooth="yes"/>
      <point x="280" y="623"/>
      <point x="262" y="605" type="qcurve" smooth="yes"/>
      <point x="258" y="601"/>
      <point x="258" y="596" type="qcurve" smooth="yes"/>
      <point x="258" y="592"/>
    </contour>
    <contour>
      <point x="65" y="-82" type="qcurve" smooth="yes"/>
      <point x="65" y="-74"/>
      <point x="71" y="-65" type="qcurve" smooth="yes"/>
      <point x="585" y="744" type="line" smooth="yes"/>
      <point x="595" y="759"/>
      <point x="628" y="778"/>
      <point x="646" y="778" type="qcurve" smooth="yes"/>
      <point x="660" y="778" type="line" smooth="yes"/>
      <point x="685" y="778"/>
      <point x="685" y="761" type="qcurve" smooth="yes"/>
      <point x="685" y="753"/>
      <point x="679" y="744" type="qcurve" smooth="yes"/>
      <point x="165" y="-65" type="line" smooth="yes"/>
      <point x="155" y="-80"/>
      <point x="122" y="-99"/>
      <point x="104" y="-99" type="qcurve" smooth="yes"/>
      <point x="90" y="-99" type="line" smooth="yes"/>
      <point x="65" y="-99"/>
    </contour>
  </outline>
</glyph>
<glyph name="AE" format="2">
  <advance width="1016"/>
  <unicode hex="00C6"/>
  <outline>
    <contour>
      <point x="43" y="11" type="qcurve" smooth="yes"/>
      <point x="43" y="19"/>
      <point x="47" y="27" type="qcurve" smooth="yes"/>
      <point x="348" y="675" type="line" smooth="yes"/>
      <point x="365" y="711"/>
      <point x="405" y="711" type="qcurve" smooth="yes"/>
      <point x="768" y="711" type="line" smooth="yes"/>
      <point x="808" y="711"/>
      <point x="808" y="671" type="qcurve" smooth="yes"/>
      <point x="808" y="660" type="line" smooth="yes"/>
      <point x="808" y="620"/>
      <point x="768" y="620" type="qcurve" smooth="yes"/>
      <point x="543" y="620" type="line" smooth="yes"/>
      <point x="503" y="620"/>
      <point x="503" y="580" type="qcurve" smooth="yes"/>
      <point x="503" y="446" type="line" smooth="yes"/>
      <point x="503" y="406"/>
      <point x="543" y="406" type="qcurve" smooth="yes"/>
      <point x="768" y="406" type="line" smooth="yes"/>
      <point x="808" y="406"/>
      <point x="808" y="366" type="qcurve" smooth="yes"/>
      <point x="808" y="355" type="line" smooth="yes"/>
      <point x="808" y="315"/>
      <point x="768" y="315" type="qcurve" smooth="yes"/>
      <point x="543" y="315" type="line" smooth="yes"/>
      <point x="503" y="315"/>
      <point x="503" y="275" type="qcurve" smooth="yes"/>
      <point x="503" y="124" type="line" smooth="yes"/>
      <point x="503" y="84"/>
      <point x="543" y="84" type="qcurve" smooth="yes"/>
      <point x="768" y="84" type="line" smooth="yes"/>
      <point x="808" y="84"/>
      <point x="808" y="44" type="qcurve" smooth="yes"/>
      <point x="808" y="33" type="line" smooth="yes"/>
      <point x="808" y="-7"/>
      <point x="768" y="-7" type="qcurve" smooth="yes"/>
      <point x="514" y="-7" type="line" smooth="yes"/>
      <point x="486" y="-7"/>
      <point x="465" y="14" type="qcurve" smooth="yes"/>
      <point x="433" y="46" type="line" smooth="yes"/>
      <point x="413" y="66"/>
      <point x="413" y="95" type="qcurve" smooth="yes"/>
      <point x="413" y="143" type="line" smooth="yes"/>
      <point x="413" y="183"/>
      <point x="373" y="183" type="qcurve" smooth="yes"/>
      <point x="260" y="183" type="line" smooth="yes"/>
      <point x="220" y="183"/>
      <point x="203" y="147" type="qcurve" smooth="yes"/>
      <point x="148" y="27" type="line" smooth="yes"/>
      <point x="131" y="-9"/>
      <point x="91" y="-9" type="qcurve" smooth="yes"/>
      <point x="70" y="-9" type="line" smooth="yes"/>
      <point x="43" y="-9"/>
    </contour>
    <contour>
      <point x="275" y="293" type="qcurve" smooth="yes"/>
      <point x="275" y="273"/>
      <point x="302" y="273" type="qcurve" smooth="yes"/>
      <point x="373" y="273" type="line" smooth="yes"/>
      <point x="413" y="273"/>
      <point x="413" y="313" type="qcurve" smooth="yes"/>
      <point x="413" y="556" type="line" smooth="yes"/>
      <point x="413" y="575"/>
      <point x="408" y="575" type="qcurve" smooth="yes"/>
      <point x="404" y="575"/>
      <point x="396" y="560" type="qcurve"/>
      <point x="279" y="309" type="line" smooth="yes"/>
      <point x="275" y="301"/>
    </contour>
  </outline>
</glyph>
<glyph name="Ccedilla" format="2">
  <advance width="496"/>
  <unicode hex="00C7"/>
  <anchor x="248" y="710" name="top"/>
  <outline>
    <contour>
      <point x="275" y="-9" type="line"/>
      <point x="275" y="-11" type="line"/>
      <point x="275" y="-26"/>
      <point x="291" y="-26" type="qcurve"/>
      <point x="305" y="-27"/>
      <point x="317" y="-37" type="qcurve" smooth="yes"/>
      <point x="338" y="-56" type="line" smooth="yes"/>
      <point x="352" y="-68"/>
      <point x="366" y="-106"/>
      <point x="366" y="-124" type="qcurve" smooth="yes"/>
      <point x="366" y="-169" type="line" smooth="yes"/>
      <point x="366" y="-187"/>
      <point x="344" y="-210"/>
      <point x="326" y="-211" type="qcurve" smooth="yes"/>
      <point x="230" y="-215" type="line" smooth="yes"/>
      <point x="190" y="-217"/>
      <point x="190" y="-177" type="qcurve" smooth="yes"/>
      <point x="190" y="-173" type="line" smooth="yes"/>
      <point x="190" y="-133"/>
      <point x="230" y="-133" type="qcurve"/>
      <point x="274" y="-132" type="line"/>
      <point x="293" y="-132"/>
      <point x="293" y="-118" type="qcurve" smooth="yes"/>
      <point x="293" y="-113"/>
      <point x="280" y="-104"/>
      <point x="271" y="-104" type="qcurve" smooth="yes"/>
      <point x="250" y="-104"/>
      <point x="235" y="-89" type="qcurve" smooth="yes"/>
      <point x="218" y="-72" type="line" smooth="yes"/>
      <point x="192" y="-46"/>
      <point x="190" y="-9" type="qcurve"/>
      <point x="152" y="-9" type="line" smooth="yes"/>
      <point x="123" y="-9"/>
      <point x="103" y="11" type="qcurve" smooth="yes"/>
      <point x="70" y="44" type="line" smooth="yes"/>
      <point x="50" y="64"/>
      <point x="50" y="93" type="qcurve" smooth="yes"/>
      <point x="50" y="608" type="line" smooth="yes"/>
      <point x="50" y="637"/>
      <point x="70" y="657" type="qcurve" smooth="yes"/>
      <point x="103" y="690" type="line" smooth="yes"/>
      <point x="123" y="710"/>
      <point x="152" y="710" type="qcurve" smooth="yes"/>
      <point x="344" y="710" type="line" smooth="yes"/>
      <point x="373" y="710"/>
      <point x="393" y="690" type="qcurve" smooth="yes"/>
      <point x="426" y="657" type="line" smooth="yes"/>
      <point x="446" y="637"/>
      <point x="446" y="608" type="qcurve" smooth="yes"/>
      <point x="446" y="471" type="line" smooth="yes"/>
      <point x="446" y="431"/>
      <point x="406" y="431" type="qcurve" smooth="yes"/>
      <point x="395" y="431" type="line" smooth="yes"/>
      <point x="355" y="431"/>
      <point x="355" y="471" type="qcurve" smooth="yes"/>
      <point x="355" y="579" type="line" smooth="yes"/>
      <point x="355" y="619"/>
      <point x="315" y="619" type="qcurve" smooth="yes"/>
      <point x="181" y="619" type="line" smooth="yes"/>
      <point x="141" y="619"/>
      <point x="141" y="579" type="qcurve" smooth="yes"/>
      <point x="141" y="122" type="line" smooth="yes"/>
      <point x="141" y="82"/>
      <point x="181" y="82" type="qcurve" smooth="yes"/>
      <point x="315" y="82" type="line" smooth="yes"/>
      <point x="355" y="82"/>
      <point x="355" y="122" type="qcurve" smooth="yes"/>
      <point x="355" y="220" type="line" smooth="yes"/>
      <point x="355" y="260"/>
      <point x="395" y="260" type="qcurve" smooth="yes"/>
      <point x="406" y="260" type="line" smooth="yes"/>
      <point x="446" y="260"/>
      <point x="446" y="220" type="qcurve" smooth="yes"/>
      <point x="446" y="93" type="line" smooth="yes"/>
      <point x="446" y="64"/>
      <point x="426" y="44" type="qcurve" smooth="yes"/>
      <point x="393" y="11" type="line" smooth="yes"/>
      <point x="373" y="-9"/>
      <point x="344" y="-9" type="qcurve" smooth="yes"/>
    </contour>
  </outline>
</glyph>
<glyph name="Iacute" format="2">
  <advance width="272"/>
  <unicode hex="00CD"/>
  <anchor x="136" y="710" name="top"/>
  <outline>
    <contour>
      <point x="60" y="-9" type="line" smooth="yes"/>
      <point x="20" y="-9"/>
      <point x="20" y="31" type="qcurve" smooth="yes"/>
      <point x="20" y="42" type="line" smooth="yes"/>
      <point x="20" y="61"/>
      <point x="38" y="82"/>
      <point x="55" y="82" type="qcurve" smooth="yes"/>
      <point x="72" y="82"/>
      <point x="90" y="103"/>
      <point x="90" y="122" type="qcurve" smooth="yes"/>
      <point x="90" y="579" type="line" smooth="yes"/>
      <point x="90" y="598"/>
      <point x="72" y="619"/>
      <point x="55" y="619" type="qcurve" smooth="yes"/>
      <point x="38" y="619"/>
      <point x="20" y="640"/>
      <point x="20" y="659" type="qcurve" smooth="yes"/>
      <point x="20" y="670" type="line" smooth="yes"/>
      <point x="20" y="710"/>
      <point x="60" y="710" type="qcurve" smooth="yes"/>
      <point x="212" y="710" type="line" smooth="yes"/>
      <point x="252" y="710"/>
      <point x="252" y="670" type="qcurve" smooth="yes"/>
      <point x="252" y="659" type="line" smooth="yes"/>
      <point x="252" y="619"/>
      <point x="217" y="619" type="qcurve" smooth="yes"/>
      <point x="200" y="619"/>
      <point x="181" y="598"/>
      <point x="181" y="579" type="qcurve" smooth="yes"/>
      <point x="181" y="122" type="line" smooth="yes"/>
      <point x="181" y="103"/>
      <point x="200" y="82"/>
      <point x="217" y="82" type="qcurve" smooth="yes"/>
      <point x="234" y="82"/>
      <point x="252" y="61"/>
      <point x="252" y="42" type="qcurve" smooth="yes"/>
      <point x="252" y="31" type="line" smooth="yes"/>
      <point x="252" y="-9"/>
      <point x="212" y="-9" type="qcurve" smooth="yes"/>
    </contour>
    <contour>
      <point x="102" y="797" type="line" smooth="yes"/>
      <point x="86" y="797"/>
      <point x="71" y="816"/>
      <point x="77" y="830" type="qcurve" smooth="yes"/>
      <point x="117" y="918" type="line" smooth="yes"/>
      <point x="123" y="932"/>
      <point x="146" y="951"/>
      <point x="163" y="951" type="qcurve" smooth="yes"/>
      <point x="184" y="951" type="line" smooth="yes"/>
      <point x="200" y="951"/>
      <point x="215" y="932"/>
      <point x="209" y="918" type="qcurve" smooth="yes"/>
      <point x="169" y="830" type="line" smooth="yes"/>
      <point x="163" y="816"/>
      <point x="140" y="797"/>
      <point x="123" y="797" type="qcurve" smooth="yes"/>
    </contour>
  </outline>
</glyph>
<glyph name="Icircumflex" format="2">
  <advance width="272"/>
  <unicode hex="00CE"/>
  <anchor x="136" y="927" name="top"/>
  <outline>
    <contour>
      <point x="60" y="-9" type="line" smooth="yes"/>
      <point x="20" y="-9"/>
      <point x="20" y="31" type="qcurve" smooth="yes"/>
      <point x="20" y="42" type="line" smooth="yes"/>
      <point x="20" y="61"/>
      <point x="38" y="82"/>
      <point x="55" y="82" type="qcurve" smooth="yes"/>
      <point x="72" y="82"/>
      <point x="90" y="103"/>
      <point x="90" y="122" type="qcurve" smooth="yes"/>
      <point x="90" y="579" type="line" smooth="yes"/>
      <point x="90" y="598"/>
      <point x="72" y="619"/>
      <point x="55" y="619" type="qcurve" smooth="yes"/>
      <point x="38" y="619"/>
      <point x="20" y="640"/>
      <point x="20" y="659" type="qcurve" smooth="yes"/>
      <point x="20" y="670" type="line" smooth="yes"/>
      <point x="20" y="710"/>
      <point x="60" y="710" type="qcurve" smooth="yes"/>
      <point x="212" y="710" type="line" smooth="yes"/>
      <point x="252" y="710"/>
      <point x="252" y="670" type="qcurve" smooth="yes"/>
      <point x="252" y="659" type="line" smooth="yes"/>
      <point x="252" y="619"/>
      <point x="217" y="619" type="qcurve" smooth="yes"/>
      <point x="200" y="619"/>
      <point x="181" y="598"/>
      <point x="181" y="579" type="qcurve" smooth="yes"/>
      <point x="181" y="122" type="line" smooth="yes"/>
      <point x="181" y="103"/>
      <point x="200" y="82"/>
      <point x="217" y="82" type="qcurve" smooth="yes"/>
      <point x="234" y="82"/>
      <point x="252" y="61"/>
      <point x="252" y="42" type="qcurve" smooth="yes"/>
      <point x="252" y="31" type="line" smooth="yes"/>
      <point x="252" y="-9"/>
      <point x="212" y="-9" type="qcurve" smooth="yes"/>
    </contour>
    <contour>
      <point x="39" y="804" type="qcurve" smooth="yes"/>
      <point x="39" y="817"/>
      <point x="49" y="833" type="qcurve" smooth="yes"/>
      <point x="108" y="927" type="line" smooth="yes"/>
      <point x="120" y="947"/>
      <point x="136" y="947" type="qcurve" smooth="yes"/>
      <point x="152" y="947"/>
      <point x="164" y="927" type="qcurve"/>
      <point x="224" y="833" type="line"/>
      <point x="235" y="817"/>
      <point x="235" y="801" type="qcurve" smooth="yes"/>
      <point x="235" y="785"/>
      <point x="219" y="785" type="qcurve" smooth="yes"/>
      <point x="215" y="785" type="line" smooth="yes"/>
      <point x="183" y="785"/>
      <point x="167" y="812" type="qcurve" smooth="yes"/>
      <point x="164" y="817" type="line" smooth="yes"/>
      <point x="150" y="841"/>
      <point x="134" y="841" type="qcurve" smooth="yes"/>
      <point x="123" y="841"/>
      <point x="114" y="826" type="qcurve"/>
      <point x="107" y="813" type="line" smooth="yes"/>
      <point x="92" y="785"/>
      <point x="59" y="785" type="qcurve" smooth="yes"/>
      <point x="39" y="785"/>
    </contour>
  </outline>
</glyph>
<glyph name="Idieresis" format="2">
  <advance width="272"/>
  <unicode hex="00CF"/>
  <anchor x="136" y="710" name="top"/>
  <outline>
    <contour>
      <point x="60" y="-9" type="line" smooth="yes"/>
      <point x="20" y="-9"/>
      <point x="20" y="31" type="qcurve" smooth="yes"/>
      <point x="20" y="42" type="line" smooth="yes"/>
      <point x="20" y="61"/>
      <point x="38" y="82"/>
      <point x="55" y="82" type="qcurve" smooth="yes"/>
      <point x="72" y="82"/>
      <point x="90" y="103"/>
      <point x="90" y="122" type="qcurve" smooth="yes"/>
      <point x="90" y="579" type="line" smooth="yes"/>
      <point x="90" y="598"/>
      <point x="72" y="619"/>
      <point x="55" y="619" type="qcurve" smooth="yes"/>
      <point x="38" y="619"/>
      <point x="20" y="640"/>
      <point x="20" y="659" type="qcurve" smooth="yes"/>
      <point x="20" y="670" type="line" smooth="yes"/>
      <point x="20" y="710"/>
      <point x="60" y="710" type="qcurve" smooth="yes"/>
      <point x="212" y="710" type="line" smooth="yes"/>
      <point x="252" y="710"/>
      <point x="252" y="670" type="qcurve" smooth="yes"/>
      <point x="252" y="659" type="line" smooth="yes"/>
      <point x="252" y="619"/>
      <point x="217" y="619" type="qcurve" smooth="yes"/>
      <point x="200" y="619"/>
      <point x="181" y="598"/>
      <point x="181" y="579" type="qcurve" smooth="yes"/>
      <point x="181" y="122" type="line" smooth="yes"/>
      <point x="181" y="103"/>
      <point x="200" y="82"/>
      <point x="217" y="82" type="qcurve" smooth="yes"/>
      <point x="234" y="82"/>
      <point x="252" y="61"/>
      <point x="252" y="42" type="qcurve" smooth="yes"/>
      <point x="252" y="31" type="line" smooth="yes"/>
      <point x="252" y="-9"/>
      <point x="212" y="-9" type="qcurve" smooth="yes"/>
    </contour>
    <contour>
      <point x="55" y="785" type="qcurve" smooth="yes"/>
      <point x="32" y="785"/>
      <point x="5" y="815"/>
      <point x="5" y="835" type="qcurve" smooth="yes"/>
      <point x="5" y="855"/>
      <point x="34" y="884"/>
      <point x="55" y="884" type="qcurve" smooth="yes"/>
      <point x="77" y="884"/>
      <point x="105" y="853"/>
      <point x="105" y="835" type="qcurve" smooth="yes"/>
      <point x="105" y="816"/>
      <point x="76" y="785"/>
    </contour>
    <contour>
      <point x="218" y="785" type="qcurve" smooth="yes"/>
      <point x="196" y="785"/>
      <point x="169" y="816"/>
      <point x="169" y="835" type="qcurve" smooth="yes"/>
      <point x="169" y="855"/>
      <point x="197" y="884"/>
      <point x="218" y="884" type="qcurve" smooth="yes"/>
      <point x="240" y="884"/>
      <point x="268" y="853"/>
      <point x="268" y="835" type="qcurve" smooth="yes"/>
      <point x="268" y="816"/>
      <point x="239" y="785"/>
    </contour>
  </outline>
</glyph>
<glyph name="Otilde" format="2">
  <advance width="496"/>
  <unicode hex="00D5"/>
  <anchor x="462" y="753" name="Odot"/>
  <anchor x="248" y="710" name="top"/>
  <outline>
    <contour>
      <point x="70" y="44" type="line" smooth="yes"/>
      <point x="50" y="64"/>
      <point x="50" y="93" type="qcurve" smooth="yes"/>
      <point x="50" y="609" type="line"/>
      <point x="49" y="638"/>
      <point x="70" y="659" type="qcurve" smooth="yes"/>
      <point x="102" y="691" type="line" smooth="yes"/>
      <point x="122" y="711"/>
      <point x="151" y="711" type="qcurve" smooth="yes"/>
      <point x="345" y="711" type="line" smooth="yes"/>
      <point x="373" y="711"/>
      <point x="394" y="690" type="qcurve" smooth="yes"/>
      <point x="426" y="658" type="line" smooth="yes"/>
      <point x="446" y="638"/>
      <point x="446" y="609" type="qcurve" smooth="yes"/>
      <point x="446" y="93" type="line"/>
      <point x="447" y="64"/>
      <point x="426" y="43" type="qcurve" smooth="yes"/>
      <point x="394" y="11" type="line" smooth="yes"/>
      <point x="374" y="-9"/>
      <point x="345" y="-9" type="qcurve" smooth="yes"/>
      <point x="152" y="-9" type="line" smooth="yes"/>
      <point x="123" y="-9"/>
      <point x="103" y="11" type="qcurve" smooth="yes"/>
    </contour>
    <contour>
      <point x="141" y="122" type="line" smooth="yes"/>
      <point x="141" y="82"/>
      <point x="181" y="82" type="qcurve" smooth="yes"/>
      <point x="315" y="82" type="line" smooth="yes"/>
      <point x="355" y="82"/>
      <point x="355" y="122" type="qcurve" smooth="yes"/>
      <point x="355" y="580" type="line" smooth="yes"/>
      <point x="355" y="620"/>
      <point x="315" y="620" type="qcurve" smooth="yes"/>
      <point x="181" y="620" type="line" smooth="yes"/>
      <point x="141" y="620"/>
      <point x="141" y="580" type="qcurve" smooth="yes"/>
    </contour>
    <contour>
      <point x="385" y="818" type="line"/>
      <point x="408" y="836" type="line"/>
      <point x="430" y="854"/>
      <point x="435" y="866" type="qcurve" smooth="yes"/>
      <point x="438" y="872"/>
      <point x="456" y="873"/>
      <point x="469" y="867" type="qcurve" smooth="yes"/>
      <point x="498" y="854"/>
      <point x="488" y="833" type="qcurve" smooth="yes"/>
      <point x="480" y="814"/>
      <point x="458" y="796" type="qcurve" smooth="yes"/>
      <point x="433" y="776" type="line" smooth="yes"/>
      <point x="413" y="760"/>
      <point x="397" y="757" type="qcurve" smooth="yes"/>
      <point x="380" y="754"/>
      <point x="359" y="756" type="qcurve" smooth="yes"/>
      <point x="324" y="759" type="line" smooth="yes"/>
      <point x="299" y="761"/>
      <point x="275" y="772" type="qcurve" smooth="yes"/>
      <point x="218" y="797" type="line" smooth="yes"/>
      <point x="194" y="808"/>
      <point x="170" y="811" type="qcurve"/>
      <point x="156" y="812" type="line"/>
      <point x="130" y="815"/>
      <point x="122" y="813" type="qcurve" smooth="yes"/>
      <point x="110" y="809"/>
      <point x="92" y="795" type="qcurve"/>
      <point x="90" y="793" type="line"/>
      <point x="69" y="775"/>
      <point x="61" y="759" type="qcurve" smooth="yes"/>
      <point x="53" y="741"/>
      <point x="25" y="755" type="qcurve" smooth="yes"/>
      <point x="12" y="761"/>
      <point x="3" y="781"/>
      <point x="8" y="792" type="qcurve" smooth="yes"/>
      <point x="19" y="816"/>
      <point x="39" y="832" type="qcurve" smooth="yes"/>
      <point x="64" y="853" type="line" smooth="yes"/>
      <point x="82" y="868"/>
      <point x="104" y="873" type="qcurve"/>
      <point x="120" y="877"/>
      <point x="148" y="875" type="qcurve" smooth="yes"/>
      <point x="182" y="872" type="line" smooth="yes"/>
      <point x="207" y="870"/>
      <point x="230" y="859" type="qcurve"/>
      <point x="287" y="833" type="line"/>
      <point x="311" y="823"/>
      <point x="335" y="820" type="qcurve" smooth="yes"/>
      <point x="350" y="818" type="line" smooth="yes"/>
      <point x="376" y="815"/>
      <point x="380" y="817" type="qcurve"/>
    </contour>
  </outline>
</glyph>
<glyph name="Oslash" format="2">
  <advance width="496"/>
  <unicode hex="00D8"/>
  <outline>
    <contour>
      <point x="103" y="11" type="qcurve" smooth="yes"/>
      <point x="70" y="44" type="line" smooth="yes"/>
      <point x="50" y="64"/>
      <point x="50" y="93" type="qcurve" smooth="yes"/>
      <point x="50" y="609" type="line"/>
      <point x="49" y="638"/>
      <point x="70" y="659" type="qcurve" smooth="yes"/>
      <point x="102" y="691" type="line" smooth="yes"/>
      <point x="122" y="711"/>
      <point x="151" y="711" type="qcurve" smooth="yes"/>
      <point x="291" y="711" type="line" smooth="yes"/>
      <point x="328" y="711"/>
      <point x="336" y="749" type="qcurve" smooth="yes"/>
      <point x="344" y="787"/>
      <point x="381" y="787" type="qcurve" smooth="yes"/>
      <point x="394" y="787" type="line" smooth="yes"/>
      <point x="433" y="787"/>
      <point x="425" y="749" type="qcurve" smooth="yes"/>
      <point x="417" y="711"/>
      <point x="456" y="711" type="qcurve" smooth="yes"/>
      <point x="460" y="711" type="line" smooth="yes"/>
      <point x="488" y="711"/>
      <point x="509" y="690" type="qcurve" smooth="yes"/>
      <point x="541" y="658" type="line" smooth="yes"/>
      <point x="561" y="638"/>
      <point x="561" y="609" type="qcurve" smooth="yes"/>
      <point x="561" y="93" type="line"/>
      <point x="563" y="65"/>
      <point x="541" y="43" type="qcurve" smooth="yes"/>
      <point x="509" y="11" type="line" smooth="yes"/>
      <point x="489" y="-9"/>
      <point x="460" y="-9" type="qcurve" smooth="yes"/>
      <point x="323" y="-9" type="line" smooth="yes"/>
      <point x="283" y="-9"/>
      <point x="276" y="-48" type="qcurve"/>
      <point x="274" y="-57" type="line"/>
      <point x="267" y="-96"/>
      <point x="227" y="-96" type="qcurve" smooth="yes"/>
      <point x="217" y="-96" type="line" smooth="yes"/>
      <point x="177" y="-96"/>
      <point x="184" y="-57" type="qcurve"/>
      <point x="186" y="-48" type="line"/>
      <point x="193" y="-9"/>
      <point x="152" y="-9" type="qcurve" smooth="yes"/>
      <point x="123" y="-9"/>
    </contour>
    <contour>
      <point x="177" y="82" type="qcurve" smooth="yes"/>
      <point x="208" y="82"/>
      <point x="217" y="121" type="qcurve"/>
      <point x="305" y="581" type="line" smooth="yes"/>
      <point x="313" y="620"/>
      <point x="272" y="620" type="qcurve" smooth="yes"/>
      <point x="181" y="620" type="line" smooth="yes"/>
      <point x="141" y="620"/>
      <point x="141" y="580" type="qcurve" smooth="yes"/>
      <point x="141" y="122" type="line" smooth="yes"/>
      <point x="141" y="82"/>
    </contour>
    <contour>
      <point x="340" y="82" type="qcurve" smooth="yes"/>
      <point x="430" y="82" type="line" smooth="yes"/>
      <point x="470" y="82"/>
      <point x="470" y="122" type="qcurve" smooth="yes"/>
      <point x="470" y="580" type="line" smooth="yes"/>
      <point x="470" y="620"/>
      <point x="434" y="620" type="qcurve" smooth="yes"/>
      <point x="403" y="620"/>
      <point x="394" y="581" type="qcurve"/>
      <point x="307" y="121" type="line" smooth="yes"/>
      <point x="300" y="82"/>
    </contour>
  </outline>
</glyph>
<glyph name="Thorn" format="2">
  <advance width="486"/>
  <unicode hex="00DE"/>
  <outline>
    <contour>
      <point x="90" y="-10" type="line" smooth="yes"/>
      <point x="50" y="-10"/>
      <point x="50" y="30" type="qcurve" smooth="yes"/>
      <point x="50" y="670" type="line" smooth="yes"/>
      <point x="50" y="710"/>
      <point x="90" y="710" type="qcurve" smooth="yes"/>
      <point x="102" y="710" type="line" smooth="yes"/>
      <point x="142" y="710"/>
      <point x="142" y="670" type="qcurve" smooth="yes"/>
      <point x="142" y="607" type="line" smooth="yes"/>
      <point x="142" y="567"/>
      <point x="182" y="567" type="qcurve" smooth="yes"/>
      <point x="345" y="567" type="line" smooth="yes"/>
      <point x="374" y="567"/>
      <point x="394" y="547" type="qcurve" smooth="yes"/>
      <point x="426" y="515" type="line" smooth="yes"/>
      <point x="447" y="494"/>
      <point x="446" y="465" type="qcurve"/>
      <point x="446" y="249" type="line"/>
      <point x="447" y="220"/>
      <point x="426" y="199" type="qcurve" smooth="yes"/>
      <point x="394" y="167" type="line" smooth="yes"/>
      <point x="374" y="147"/>
      <point x="345" y="147" type="qcurve" smooth="yes"/>
      <point x="181" y="147" type="line" smooth="yes"/>
      <point x="141" y="147"/>
      <point x="141" y="107" type="qcurve" smooth="yes"/>
      <point x="141" y="30" type="line" smooth="yes"/>
      <point x="141" y="-10"/>
      <point x="101" y="-10" type="qcurve" smooth="yes"/>
    </contour>
    <contour>
      <point x="142" y="278" type="line" smooth="yes"/>
      <point x="142" y="238"/>
      <point x="182" y="238" type="qcurve" smooth="yes"/>
      <point x="316" y="238" type="line" smooth="yes"/>
      <point x="356" y="238"/>
      <point x="356" y="278" type="qcurve" smooth="yes"/>
      <point x="356" y="436" type="line" smooth="yes"/>
      <point x="356" y="476"/>
      <point x="316" y="476" type="qcurve" smooth="yes"/>
      <point x="182" y="476" type="line" smooth="yes"/>
      <point x="142" y="476"/>
      <point x="142" y="436" type="qcurve" smooth="yes"/>
    </contour>
  </outline>
</glyph>
<glyph name="aacute" format="2">
  <advance width="438"/>
  <unicode hex="00E1"/>
  <anchor x="214" y="485" name="top"/>
  <outline>
    <contour>
      <point x="103" y="12" type="qcurve" smooth="yes"/>
      <point x="70" y="45" type="line" smooth="yes"/>
      <point x="50" y="65"/>
      <point x="50" y="94" type="qcurve" smooth="yes"/>
      <point x="50" y="210" type="line" smooth="yes"/>
      <point x="50" y="225"/>
      <point x="60" y="248"/>
      <point x="71" y="259" type="qcurve" smooth="yes"/>
      <point x="103" y="291" type="line" smooth="yes"/>
      <point x="123" y="311"/>
      <point x="152" y="311" type="qcurve" smooth="yes"/>
      <point x="247" y="311" type="line" smooth="yes"/>
      <point x="287" y="311"/>
      <point x="287" y="351" type="qcurve" smooth="yes"/>
      <point x="287" y="354" type="line" smooth="yes"/>
      <point x="287" y="394"/>
      <point x="247" y="394" type="qcurve" smooth="yes"/>
      <point x="93" y="394" type="line" smooth="yes"/>
      <point x="53" y="394"/>
      <point x="53" y="434" type="qcurve" smooth="yes"/>
      <point x="53" y="445" type="line" smooth="yes"/>
      <point x="53" y="485"/>
      <point x="93" y="485" type="qcurve" smooth="yes"/>
      <point x="276" y="485" type="line" smooth="yes"/>
      <point x="305" y="485"/>
      <point x="325" y="465" type="qcurve" smooth="yes"/>
      <point x="358" y="432" type="line" smooth="yes"/>
      <point x="378" y="412"/>
      <point x="378" y="383" type="qcurve" smooth="yes"/>
      <point x="378" y="32" type="line" smooth="yes"/>
      <point x="378" y="-8"/>
      <point x="338" y="-8" type="qcurve" smooth="yes"/>
      <point x="152" y="-8" type="line" smooth="yes"/>
      <point x="123" y="-8"/>
    </contour>
    <contour>
      <point x="141" y="114" type="line" smooth="yes"/>
      <point x="141" y="74"/>
      <point x="181" y="74" type="qcurve" smooth="yes"/>
      <point x="247" y="74" type="line" smooth="yes"/>
      <point x="287" y="74"/>
      <point x="287" y="114" type="qcurve" smooth="yes"/>
      <point x="287" y="189" type="line" smooth="yes"/>
      <point x="287" y="229"/>
      <point x="247" y="229" type="qcurve" smooth="yes"/>
      <point x="181" y="229" type="line" smooth="yes"/>
      <point x="141" y="229"/>
      <point x="141" y="189" type="qcurve" smooth="yes"/>
    </contour>
    <contour>
      <point x="180" y="572" type="line" smooth="yes"/>
      <point x="164" y="572"/>
      <point x="149" y="591"/>
      <point x="155" y="605" type="qcurve" smooth="yes"/>
      <point x="195" y="693" type="line" smooth="yes"/>
      <point x="201" y="707"/>
      <point x="224" y="726"/>
      <point x="241" y="726" type="qcurve" smooth="yes"/>
      <point x="262" y="726" type="line" smooth="yes"/>
      <point x="278" y="726"/>
      <point x="293" y="707"/>
      <point x="287" y="693" type="qcurve" smooth="yes"/>
      <point x="247" y="605" type="line" smooth="yes"/>
      <point x="241" y="591"/>
      <point x="218" y="572"/>
      <point x="201" y="572" type="qcurve" smooth="yes"/>
    </contour>
  </outline>
</glyph>
<glyph name="ae" format="2">
  <advance width="863"/>
  <unicode hex="00E6"/>
  <outline>
    <contour>
      <point x="379" y="297" type="line" smooth="yes"/>
      <point x="379" y="257"/>
      <point x="419" y="257" type="qcurve" smooth="yes"/>
      <point x="482" y="257" type="line" smooth="yes"/>
      <point x="522" y="257"/>
      <point x="522" y="297" type="qcurve" smooth="yes"/>
      <point x="522" y="355" type="line" smooth="yes"/>
      <point x="522" y="395"/>
      <point x="482" y="395" type="qcurve" smooth="yes"/>
      <point x="419" y="395" type="line" smooth="yes"/>
      <point x="379" y="395"/>
      <point x="379" y="355" type="qcurve" smooth="yes"/>
    </contour>
    <contour>
      <point x="141" y="114" type="line" smooth="yes"/>
      <point x="141" y="74"/>
      <point x="181" y="74" type="qcurve" smooth="yes"/>
      <point x="247" y="74" type="line" smooth="yes"/>
      <point x="287" y="74"/>
      <point x="287" y="114" type="qcurve" smooth="yes"/>
      <point x="287" y="189" type="line" smooth="yes"/>
      <point x="287" y="229"/>
      <point x="247" y="229" type="qcurve" smooth="yes"/>
      <point x="181" y="229" type="line" smooth="yes"/>
      <point x="141" y="229"/>
      <point x="141" y="189" type="qcurve" smooth="yes"/>
    </contour>
    <contour>
      <point x="391" y="-1" type="qcurve" smooth="yes"/>
      <point x="379" y="9"/>
      <point x="366" y="9" type="qcurve" smooth="yes"/>
      <point x="352" y="9"/>
      <point x="341" y="-1" type="qcurve" smooth="yes"/>
      <point x="334" y="-8"/>
      <point x="323" y="-8" type="qcurve" smooth="yes"/>
      <point x="152" y="-8" type="line" smooth="yes"/>
      <point x="123" y="-8"/>
      <point x="103" y="12" type="qcurve" smooth="yes"/>
      <point x="70" y="45" type="line" smooth="yes"/>
      <point x="50" y="65"/>
      <point x="50" y="94" type="qcurve" smooth="yes"/>
      <point x="50" y="210" type="line" smooth="yes"/>
      <point x="50" y="238"/>
      <point x="71" y="259" type="qcurve" smooth="yes"/>
      <point x="103" y="291" type="line" smooth="yes"/>
      <point x="123" y="311"/>
      <point x="152" y="311" type="qcurve" smooth="yes"/>
      <point x="247" y="311" type="line" smooth="yes"/>
      <point x="287" y="311"/>
      <point x="287" y="351" type="qcurve" smooth="yes"/>
      <point x="287" y="354" type="line" smooth="yes"/>
      <point x="287" y="394"/>
      <point x="247" y="394" type="qcurve" smooth="yes"/>
      <point x="93" y="394" type="line" smooth="yes"/>
      <point x="53" y="394"/>
      <point x="53" y="434" type="qcurve" smooth="yes"/>
      <point x="53" y="445" type="line" smooth="yes"/>
      <point x="53" y="485"/>
      <point x="93" y="485" type="qcurve" smooth="yes"/>
      <point x="276" y="485" type="line" smooth="yes"/>
      <point x="291" y="485"/>
      <point x="300" y="476" type="qcurve" smooth="yes"/>
      <point x="315" y="462"/>
      <point x="332" y="462" type="qcurve" smooth="yes"/>
      <point x="350" y="462"/>
      <point x="365" y="476" type="qcurve" smooth="yes"/>
      <point x="374" y="485"/>
      <point x="389" y="485" type="qcurve" smooth="yes"/>
      <point x="512" y="485" type="line" smooth="yes"/>
      <point x="541" y="485"/>
      <point x="561" y="465" type="qcurve" smooth="yes"/>
      <point x="593" y="433" type="line" smooth="yes"/>
      <point x="613" y="413"/>
      <point x="613" y="384" type="qcurve" smooth="yes"/>
      <point x="613" y="217" type="line" smooth="yes"/>
      <point x="613" y="177"/>
      <point x="573" y="177" type="qcurve" smooth="yes"/>
      <point x="419" y="177" type="line" smooth="yes"/>
      <point x="379" y="177"/>
      <point x="379" y="137" type="qcurve" smooth="yes"/>
      <point x="379" y="123" type="line" smooth="yes"/>
      <point x="379" y="83"/>
      <point x="419" y="83" type="qcurve" smooth="yes"/>
      <point x="573" y="83" type="line" smooth="yes"/>
      <point x="613" y="83"/>
      <point x="613" y="43" type="qcurve" smooth="yes"/>
      <point x="613" y="32" type="line" smooth="yes"/>
      <point x="613" y="-8"/>
      <point x="573" y="-8" type="qcurve" smooth="yes"/>
      <point x="409" y="-8" type="line" smooth="yes"/>
      <point x="398" y="-8"/>
    </contour>
  </outline>
</glyph>
<glyph name="ccedilla" format="2">
  <advance width="405"/>
  <unicode hex="00E7"/>
  <anchor x="213" y="485" name="top"/>
  <outline>
    <contour>
      <point x="260" y="-8" type="line"/>
      <point x="260" y="-11" type="line" smooth="yes"/>
      <point x="260" y="-26"/>
      <point x="276" y="-26" type="qcurve"/>
      <point x="290" y="-27"/>
      <point x="302" y="-37" type="qcurve" smooth="yes"/>
      <point x="323" y="-56" type="line" smooth="yes"/>
      <point x="337" y="-68"/>
      <point x="351" y="-106"/>
      <point x="351" y="-124" type="qcurve" smooth="yes"/>
      <point x="351" y="-169" type="line" smooth="yes"/>
      <point x="351" y="-187"/>
      <point x="329" y="-210"/>
      <point x="311" y="-211" type="qcurve" smooth="yes"/>
      <point x="215" y="-215" type="line" smooth="yes"/>
      <point x="175" y="-217"/>
      <point x="175" y="-177" type="qcurve" smooth="yes"/>
      <point x="175" y="-173" type="line" smooth="yes"/>
      <point x="175" y="-133"/>
      <point x="215" y="-133" type="qcurve"/>
      <point x="259" y="-132" type="line"/>
      <point x="278" y="-132"/>
      <point x="278" y="-118" type="qcurve" smooth="yes"/>
      <point x="278" y="-113"/>
      <point x="265" y="-104"/>
      <point x="256" y="-104" type="qcurve" smooth="yes"/>
      <point x="235" y="-104"/>
      <point x="220" y="-89" type="qcurve" smooth="yes"/>
      <point x="203" y="-72" type="line" smooth="yes"/>
      <point x="176" y="-45"/>
      <point x="175" y="-8" type="qcurve"/>
      <point x="152" y="-8" type="line" smooth="yes"/>
      <point x="123" y="-8"/>
      <point x="103" y="12" type="qcurve" smooth="yes"/>
      <point x="70" y="45" type="line" smooth="yes"/>
      <point x="50" y="65"/>
      <point x="50" y="94" type="qcurve" smooth="yes"/>
      <point x="50" y="383" type="line" smooth="yes"/>
      <point x="50" y="412"/>
      <point x="70" y="432" type="qcurve" smooth="yes"/>
      <point x="103" y="465" type="line" smooth="yes"/>
      <point x="123" y="485"/>
      <point x="152" y="485" type="qcurve" smooth="yes"/>
      <point x="335" y="485" type="line" smooth="yes"/>
      <point x="375" y="485"/>
      <point x="375" y="445" type="qcurve" smooth="yes"/>
      <point x="375" y="434" type="line" smooth="yes"/>
      <point x="375" y="394"/>
      <point x="335" y="394" type="qcurve" smooth="yes"/>
      <point x="181" y="394" type="line" smooth="yes"/>
      <point x="141" y="394"/>
      <point x="141" y="354" type="qcurve" smooth="yes"/>
      <point x="141" y="123" type="line" smooth="yes"/>
      <point x="141" y="83"/>
      <point x="181" y="83" type="qcurve" smooth="yes"/>
      <point x="335" y="83" type="line" smooth="yes"/>
      <point x="375" y="83"/>
      <point x="375" y="43" type="qcurve" smooth="yes"/>
      <point x="375" y="32" type="line" smooth="yes"/>
      <point x="375" y="-8"/>
      <point x="335" y="-8" type="qcurve" smooth="yes"/>
    </contour>
  </outline>
</glyph>
<glyph name="ecircumflex" format="2">
  <advance width="425"/>
  <unicode hex="00EA"/>
  <anchor x="213" y="702" name="top"/>
  <outline>
    <contour>
      <point x="102" y="13" type="qcurve" smooth="yes"/>
      <point x="70" y="45" type="line" smooth="yes"/>
      <point x="50" y="65"/>
      <point x="50" y="94" type="qcurve" smooth="yes"/>
      <point x="50" y="384" type="line" smooth="yes"/>
      <point x="50" y="413"/>
      <point x="70" y="433" type="qcurve" smooth="yes"/>
      <point x="102" y="465" type="line" smooth="yes"/>
      <point x="122" y="485"/>
      <point x="151" y="485" type="qcurve" smooth="yes"/>
      <point x="274" y="485" type="line" smooth="yes"/>
      <point x="303" y="485"/>
      <point x="323" y="465" type="qcurve" smooth="yes"/>
      <point x="355" y="433" type="line" smooth="yes"/>
      <point x="375" y="413"/>
      <point x="375" y="384" type="qcurve" smooth="yes"/>
      <point x="375" y="217" type="line" smooth="yes"/>
      <point x="375" y="177"/>
      <point x="335" y="177" type="qcurve" smooth="yes"/>
      <point x="181" y="177" type="line" smooth="yes"/>
      <point x="141" y="177"/>
      <point x="141" y="137" type="qcurve" smooth="yes"/>
      <point x="141" y="123" type="line" smooth="yes"/>
      <point x="141" y="83"/>
      <point x="181" y="83" type="qcurve" smooth="yes"/>
      <point x="335" y="83" type="line" smooth="yes"/>
      <point x="375" y="83"/>
      <point x="375" y="43" type="qcurve" smooth="yes"/>
      <point x="375" y="32" type="line" smooth="yes"/>
      <point x="375" y="-8"/>
      <point x="335" y="-8" type="qcurve" smooth="yes"/>
      <point x="151" y="-8" type="line" smooth="yes"/>
      <point x="123" y="-8"/>
    </contour>
    <contour>
      <point x="141" y="297" type="line" smooth="yes"/>
      <point x="141" y="257"/>
      <point x="181" y="257" type="qcurve" smooth="yes"/>
      <point x="244" y="257" type="line" smooth="yes"/>
      <point x="284" y="257"/>
      <point x="284" y="297" type="qcurve" smooth="yes"/>
      <point x="284" y="355" type="line" smooth="yes"/>
      <point x="284" y="395"/>
      <point x="244" y="395" type="qcurve" smooth="yes"/>
      <point x="181" y="395" type="line" smooth="yes"/>
      <point x="141" y="395"/>
      <point x="141" y="355" type="qcurve" smooth="yes"/>
    </contour>
    <contour>
      <point x="116" y="579" type="qcurve" smooth="yes"/>
      <point x="116" y="592"/>
      <point x="126" y="608" type="qcurve" smooth="yes"/>
      <point x="185" y="702" type="line" smooth="yes"/>
      <point x="197" y="722"/>
      <point x="213" y="722" type="qcurve" smooth="yes"/>
      <point x="229" y="722"/>
      <point x="241" y="702" type="qcurve"/>
      <point x="301" y="608" type="line"/>
      <point x="312" y="592"/>
      <point x="312" y="576" type="qcurve" smooth="yes"/>
      <point x="312" y="560"/>
      <point x="296" y="560" type="qcurve" smooth="yes"/>
      <point x="292" y="560" type="line" smooth="yes"/>
      <point x="260" y="560"/>
      <point x="244" y="587" type="qcurve" smooth="yes"/>
      <point x="241" y="592" type="line" smooth="yes"/>
      <point x="227" y="616"/>
      <point x="211" y="616" type="qcurve" smooth="yes"/>
      <point x="200" y="616"/>
      <point x="191" y="601" type="qcurve"/>
      <point x="184" y="588" type="line" smooth="yes"/>
      <point x="169" y="560"/>
      <point x="136" y="560" type="qcurve" smooth="yes"/>
      <point x="116" y="560"/>
    </contour>
  </outline>
</glyph>
<glyph name="idieresis" format="2">
  <advance width="212"/>
  <unicode hex="00EF"/>
  <anchor x="106" y="485" name="top"/>
  <outline>
    <contour>
      <point x="101" y="-9" type="line" smooth="yes"/>
      <point x="61" y="-9"/>
      <point x="61" y="31" type="qcurve" smooth="yes"/>
      <point x="61" y="445" type="line" smooth="yes"/>
      <point x="61" y="485"/>
      <point x="101" y="485" type="qcurve" smooth="yes"/>
      <point x="111" y="485" type="line" smooth="yes"/>
      <point x="151" y="485"/>
      <point x="151" y="445" type="qcurve" smooth="yes"/>
      <point x="151" y="31" type="line" smooth="yes"/>
      <point x="151" y="-9"/>
      <point x="111" y="-9" type="qcurve" smooth="yes"/>
    </contour>
    <contour>
      <point x="24" y="560" type="qcurve" smooth="yes"/>
      <point x="1" y="560"/>
      <point x="-26" y="590"/>
      <point x="-26" y="610" type="qcurve" smooth="yes"/>
      <point x="-26" y="630"/>
      <point x="3" y="659"/>
      <point x="24" y="659" type="qcurve" smooth="yes"/>
      <point x="46" y="659"/>
      <point x="74" y="628"/>
      <point x="74" y="610" type="qcurve" smooth="yes"/>
      <point x="74" y="591"/>
      <point x="45" y="560"/>
    </contour>
    <contour>
      <point x="187" y="560" type="qcurve" smooth="yes"/>
      <point x="165" y="560"/>
      <point x="138" y="591"/>
      <point x="138" y="610" type="qcurve" smooth="yes"/>
      <point x="138" y="630"/>
      <point x="166" y="659"/>
      <point x="187" y="659" type="qcurve" smooth="yes"/>
      <point x="209" y="659"/>
      <point x="237" y="628"/>
      <point x="237" y="610" type="qcurve" smooth="yes"/>
      <point x="237" y="591"/>
      <point x="208" y="560"/>
    </contour>
  </outline>
</glyph>
<glyph name="odieresis" format="2">
  <advance width="427"/>
  <unicode hex="00F6"/>
  <anchor x="409" y="525" name="Odot"/>
  <anchor x="214" y="485" name="top"/>
  <outline>
    <contour>
      <point x="103" y="11" type="qcurve" smooth="yes"/>
      <point x="70" y="44" type="line" smooth="yes"/>
      <point x="50" y="64"/>
      <point x="50" y="93" type="qcurve" smooth="yes"/>
      <point x="50" y="383" type="line" smooth="yes"/>
      <point x="50" y="412"/>
      <point x="70" y="432" type="qcurve" smooth="yes"/>
      <point x="103" y="465" type="line" smooth="yes"/>
      <point x="123" y="485"/>
      <point x="152" y="485" type="qcurve" smooth="yes"/>
      <point x="276" y="485" type="line" smooth="yes"/>
      <point x="305" y="485"/>
      <point x="325" y="465" type="qcurve" smooth="yes"/>
      <point x="357" y="433" type="line" smooth="yes"/>
      <point x="377" y="412"/>
      <point x="377" y="383" type="qcurve" smooth="yes"/>
      <point x="377" y="93" type="line"/>
      <point x="378" y="64"/>
      <point x="357" y="43" type="qcurve" smooth="yes"/>
      <point x="325" y="11" type="line" smooth="yes"/>
      <point x="305" y="-9"/>
      <point x="276" y="-9" type="qcurve" smooth="yes"/>
      <point x="152" y="-9" type="line" smooth="yes"/>
      <point x="123" y="-9"/>
    </contour>
    <contour>
      <point x="141" y="122" type="line" smooth="yes"/>
      <point x="141" y="82"/>
      <point x="181" y="82" type="qcurve" smooth="yes"/>
      <point x="246" y="82" type="line" smooth="yes"/>
      <point x="286" y="82"/>
      <point x="286" y="122" type="qcurve" smooth="yes"/>
      <point x="286" y="354" type="line" smooth="yes"/>
      <point x="286" y="394"/>
      <point x="246" y="394" type="qcurve" smooth="yes"/>
      <point x="181" y="394" type="line" smooth="yes"/>
      <point x="141" y="394"/>
      <point x="141" y="354" type="qcurve" smooth="yes"/>
    </contour>
    <contour>
      <point x="133" y="560" type="qcurve" smooth="yes"/>
      <point x="110" y="560"/>
      <point x="83" y="590"/>
      <point x="83" y="610" type="qcurve" smooth="yes"/>
      <point x="83" y="630"/>
      <point x="112" y="659"/>
      <point x="133" y="659" type="qcurve" smooth="yes"/>
      <point x="155" y="659"/>
      <point x="183" y="628"/>
      <point x="183" y="610" type="qcurve" smooth="yes"/>
      <point x="183" y="591"/>
      <point x="154" y="560"/>
    </contour>
    <contour>
      <point x="296" y="560" type="qcurve" smooth="yes"/>
      <point x="274" y="560"/>
      <point x="247" y="591"/>
      <point x="247" y="610" type="qcurve" smooth="yes"/>
      <point x="247" y="630"/>
      <point x="275" y="659"/>
      <point x="296" y="659" type="qcurve" smooth="yes"/>
      <point x="318" y="659"/>
      <point x="346" y="628"/>
      <point x="346" y="610" type="qcurve" smooth="yes"/>
      <point x="346" y="591"/>
      <point x="317" y="560"/>
    </contour>
  </outline>
</glyph>
<glyph name="oslash" format="2">
  <advance width="427"/>
  <unicode hex="00F8"/>
  <outline>
    <contour>
      <point x="103" y="11" type="qcurve" smooth="yes"/>
      <point x="70" y="44" type="line" smooth="yes"/>
      <point x="50" y="64"/>
      <point x="50" y="93" type="qcurve" smooth="yes"/>
      <point x="50" y="383" type="line" smooth="yes"/>
      <point x="50" y="412"/>
      <point x="70" y="432" type="qcurve" smooth="yes"/>
      <point x="103" y="465" type="line" smooth="yes"/>
      <point x="123" y="485"/>
      <point x="152" y="485" type="qcurve" smooth="yes"/>
      <point x="224" y="485" type="line" smooth="yes"/>
      <point x="264" y="485"/>
      <point x="270" y="524" type="qcurve" smooth="yes"/>
      <point x="275" y="552" type="line" smooth="yes"/>
      <point x="282" y="591"/>
      <point x="321" y="591" type="qcurve" smooth="yes"/>
      <point x="332" y="591" type="line" smooth="yes"/>
      <point x="373" y="591"/>
      <point x="366" y="552" type="qcurve" smooth="yes"/>
      <point x="361" y="524" type="line" smooth="yes"/>
      <point x="354" y="485"/>
      <point x="395" y="485" type="qcurve" smooth="yes"/>
      <point x="415" y="485"/>
      <point x="435" y="465" type="qcurve" smooth="yes"/>
      <point x="467" y="433" type="line" smooth="yes"/>
      <point x="487" y="412"/>
      <point x="487" y="383" type="qcurve" smooth="yes"/>
      <point x="487" y="93" type="line" smooth="yes"/>
      <point x="487" y="64"/>
      <point x="467" y="43" type="qcurve" smooth="yes"/>
      <point x="435" y="11" type="line" smooth="yes"/>
      <point x="415" y="-9"/>
      <point x="386" y="-9" type="qcurve" smooth="yes"/>
      <point x="318" y="-9" type="line" smooth="yes"/>
      <point x="279" y="-9"/>
      <point x="272" y="-48" type="qcurve" smooth="yes"/>
      <point x="269" y="-65" type="line" smooth="yes"/>
      <point x="263" y="-104"/>
      <point x="223" y="-104" type="qcurve" smooth="yes"/>
      <point x="212" y="-104" type="line" smooth="yes"/>
      <point x="172" y="-104"/>
      <point x="178" y="-65" type="qcurve" smooth="yes"/>
      <point x="181" y="-48" type="line" smooth="yes"/>
      <point x="188" y="-9"/>
      <point x="147" y="-9" type="qcurve" smooth="yes"/>
      <point x="123" y="-9"/>
    </contour>
    <contour>
      <point x="171" y="83" type="qcurve" smooth="yes"/>
      <point x="203" y="83"/>
      <point x="207" y="121" type="qcurve"/>
      <point x="244" y="355" type="line" smooth="yes"/>
      <point x="251" y="394"/>
      <point x="210" y="394" type="qcurve" smooth="yes"/>
      <point x="181" y="394" type="line" smooth="yes"/>
      <point x="141" y="394"/>
      <point x="141" y="354" type="qcurve" smooth="yes"/>
      <point x="141" y="122" type="line" smooth="yes"/>
      <point x="141" y="108"/>
      <point x="155" y="83"/>
    </contour>
    <contour>
      <point x="332" y="82" type="qcurve" smooth="yes"/>
      <point x="356" y="82" type="line" smooth="yes"/>
      <point x="396" y="82"/>
      <point x="396" y="122" type="qcurve" smooth="yes"/>
      <point x="396" y="354" type="line" smooth="yes"/>
      <point x="396" y="391"/>
      <point x="368" y="391" type="qcurve" smooth="yes"/>
      <point x="340" y="391"/>
      <point x="335" y="355" type="qcurve"/>
      <point x="298" y="121" type="line" smooth="yes"/>
      <point x="292" y="82"/>
    </contour>
  </outline>
</glyph>
<glyph name="ugrave" format="2">
  <advance width="446"/>
  <unicode hex="00F9"/>
  <anchor x="223" y="485" name="top"/>
  <outline>
    <contour>
      <point x="113" y="11" type="qcurve" smooth="yes"/>
      <point x="80" y="44" type="line" smooth="yes"/>
      <point x="60" y="64"/>
      <point x="60" y="93" type="qcurve" smooth="yes"/>
      <point x="60" y="445" type="line" smooth="yes"/>
      <point x="60" y="485"/>
      <point x="100" y="485" type="qcurve" smooth="yes"/>
      <point x="111" y="485" type="line" smooth="yes"/>
      <point x="151" y="485"/>
      <point x="151" y="445" type="qcurve" smooth="yes"/>
      <point x="151" y="122" type="line" smooth="yes"/>
      <point x="151" y="82"/>
      <point x="191" y="82" type="qcurve" smooth="yes"/>
      <point x="255" y="82" type="line" smooth="yes"/>
      <point x="295" y="82"/>
      <point x="295" y="122" type="qcurve" smooth="yes"/>
      <point x="295" y="445" type="line" smooth="yes"/>
      <point x="295" y="485"/>
      <point x="335" y="485" type="qcurve" smooth="yes"/>
      <point x="346" y="485" type="line" smooth="yes"/>
      <point x="386" y="485"/>
      <point x="386" y="445" type="qcurve" smooth="yes"/>
      <point x="386" y="93" type="line"/>
      <point x="387" y="64"/>
      <point x="366" y="43" type="qcurve" smooth="yes"/>
      <point x="334" y="11" type="line" smooth="yes"/>
      <point x="314" y="-9"/>
      <point x="285" y="-9" type="qcurve" smooth="yes"/>
      <point x="162" y="-9" type="line" smooth="yes"/>
      <point x="133" y="-9"/>
    </contour>
    <contour>
      <point x="176" y="605" type="qcurve" smooth="yes"/>
      <point x="136" y="693" type="line" smooth="yes"/>
      <point x="130" y="707"/>
      <point x="145" y="726"/>
      <point x="161" y="726" type="qcurve" smooth="yes"/>
      <point x="182" y="726" type="line" smooth="yes"/>
      <point x="199" y="726"/>
      <point x="222" y="707"/>
      <point x="228" y="693" type="qcurve" smooth="yes"/>
      <point x="268" y="605" type="line" smooth="yes"/>
      <point x="274" y="591"/>
      <point x="259" y="572"/>
      <point x="243" y="572" type="qcurve" smooth="yes"/>
      <point x="222" y="572" type="line" smooth="yes"/>
      <point x="205" y="572"/>
      <point x="182" y="591"/>
    </contour>
  </outline>
</glyph>
<glyph name="thorn" format="2">
  <advance width="435"/>
  <unicode hex="00FE"/>
  <outline>
    <contour>
      <point x="100" y="-184" type="line" smooth="yes"/>
      <point x="60" y="-184"/>
      <point x="60" y="-144" type="qcurve" smooth="yes"/>
      <point x="60" y="651" type="line" smooth="yes"/>
      <point x="60" y="691"/>
      <point x="100" y="691" type="qcurve" smooth="yes"/>
      <point x="110" y="691" type="line" smooth="yes"/>
      <point x="150" y="691"/>
      <point x="150" y="651" type="qcurve" smooth="yes"/>
      <point x="150" y="501" type="line" smooth="yes"/>
      <point x="150" y="461"/>
      <point x="190" y="461" type="qcurve" smooth="yes"/>
      <point x="284" y="461" type="line" smooth="yes"/>
      <point x="313" y="461"/>
      <point x="333" y="441" type="qcurve" smooth="yes"/>
      <point x="365" y="409" type="line" smooth="yes"/>
      <point x="385" y="389"/>
      <point x="385" y="360" type="qcurve" smooth="yes"/>
      <point x="385" y="126" type="line" smooth="yes"/>
      <point x="385" y="97"/>
      <point x="365" y="76" type="qcurve" smooth="yes"/>
      <point x="333" y="44" type="line" smooth="yes"/>
      <point x="313" y="24"/>
      <point x="284" y="24" type="qcurve" smooth="yes"/>
      <point x="191" y="24" type="line" smooth="yes"/>
      <point x="151" y="24"/>
      <point x="151" y="-16" type="qcurve" smooth="yes"/>
      <point x="151" y="-144" type="line" smooth="yes"/>
      <point x="151" y="-184"/>
      <point x="111" y="-184" type="qcurve" smooth="yes"/>
    </contour>
    <contour>
      <point x="151" y="155" type="line" smooth="yes"/>
      <point x="151" y="115"/>
      <point x="191" y="115" type="qcurve" smooth="yes"/>
      <point x="255" y="115" type="line" smooth="yes"/>
      <point x="295" y="115"/>
      <point x="295" y="155" type="qcurve" smooth="yes"/>
      <point x="295" y="331" type="line" smooth="yes"/>
      <point x="295" y="371"/>
      <point x="255" y="371" type="qcurve" smooth="yes"/>
      <point x="191" y="371" type="line" smooth="yes"/>
      <point x="151" y="371"/>
      <point x="151" y="331" type="qcurve" smooth="yes"/>
    </contour>
  </outline>
</glyph>
<glyph name="Ebreve" format="2">
  <advance width="485"/>
  <unicode hex="0114"/>
  <anchor x="248" y="710" name="top"/>
  <outline>
    <contour>
      <point x="102" y="14" type="qcurve" smooth="yes"/>
      <point x="70" y="46" type="line" smooth="yes"/>
      <point x="50" y="66"/>
      <point x="50" y="95" type="qcurve" smooth="yes"/>
      <point x="50" y="671" type="line" smooth="yes"/>
      <point x="50" y="711"/>
      <point x="90" y="711" type="qcurve" smooth="yes"/>
      <point x="405" y="711" type="line" smooth="yes"/>
      <point x="445" y="711"/>
      <point x="445" y="671" type="qcurve" smooth="yes"/>
      <point x="445" y="660" type="line" smooth="yes"/>
      <point x="445" y="620"/>
      <point x="405" y="620" type="qcurve" smooth="yes"/>
      <point x="180" y="620" type="line" smooth="yes"/>
      <point x="140" y="620"/>
      <point x="140" y="580" type="qcurve" smooth="yes"/>
      <point x="140" y="446" type="line" smooth="yes"/>
      <point x="140" y="406"/>
      <point x="180" y="406" type="qcurve" smooth="yes"/>
      <point x="405" y="406" type="line" smooth="yes"/>
      <point x="445" y="406"/>
      <point x="445" y="366" type="qcurve" smooth="yes"/>
      <point x="445" y="355" type="line" smooth="yes"/>
      <point x="445" y="315"/>
      <point x="405" y="315" type="qcurve" smooth="yes"/>
      <point x="180" y="315" type="line" smooth="yes"/>
      <point x="140" y="315"/>
      <point x="140" y="275" type="qcurve" smooth="yes"/>
      <point x="140" y="124" type="line" smooth="yes"/>
      <point x="140" y="84"/>
      <point x="180" y="84" type="qcurve" smooth="yes"/>
      <point x="405" y="84" type="line" smooth="yes"/>
      <point x="445" y="84"/>
      <point x="445" y="44" type="qcurve" smooth="yes"/>
      <point x="445" y="33" type="line" smooth="yes"/>
      <point x="445" y="-7"/>
      <point x="405" y="-7" type="qcurve" smooth="yes"/>
      <point x="151" y="-7" type="line" smooth="yes"/>
      <point x="123" y="-7"/>
    </contour>
    <contour>
      <point x="124" y="901" type="qcurve" smooth="yes"/>
      <point x="124" y="911"/>
      <point x="141" y="927"/>
      <point x="156" y="927" type="qcurve" smooth="yes"/>
      <point x="184" y="927"/>
      <point x="187" y="896" type="qcurve" smooth="yes"/>
      <point x="189" y="874"/>
      <point x="225" y="846"/>
      <point x="248" y="846" type="qcurve" smooth="yes"/>
      <point x="271" y="846"/>
      <point x="309" y="874"/>
      <point x="311" y="896" type="qcurve" smooth="yes"/>
      <point x="314" y="927"/>
      <point x="342" y="927" type="qcurve" smooth="yes"/>
      <point x="357" y="927"/>
      <point x="373" y="911"/>
      <point x="373" y="901" type="qcurve" smooth="yes"/>
      <point x="373" y="877"/>
      <point x="351" y="834"/>
      <point x="316" y="803"/>
      <point x="271" y="785"/>
      <point x="248" y="785" type="qcurve" smooth="yes"/>
      <point x="225" y="785"/>
      <point x="181" y="803"/>
      <point x="146" y="834"/>
      <point x="124" y="877"/>
    </contour>
  </outline>
</glyph>
<glyph name="ebreve" format="2">
  <advance width="425"/>
  <unicode hex="0115"/>
  <anchor x="213" y="485" name="top"/>
  <outline>
    <contour>
      <point x="102" y="13" type="qcurve" smooth="yes"/>
      <point x="70" y="45" type="line" smooth="yes"/>
      <point x="50" y="65"/>
      <point x="50" y="94" type="qcurve" smooth="yes"/>
      <point x="50" y="384" type="line" smooth="yes"/>
      <point x="50" y="413"/>
      <point x="70" y="433" type="qcurve" smooth="yes"/>
      <point x="102" y="465" type="line" smooth="yes"/>
      <point x="122" y="485"/>
      <point x="151" y="485" type="qcurve" smooth="yes"/>
      <point x="274" y="485" type="line" smooth="yes"/>
      <point x="303" y="485"/>
      <point x="323" y="465" type="qcurve" smooth="yes"/>
      <point x="355" y="433" type="line" smooth="yes"/>
      <point x="375" y="413"/>
      <point x="375" y="384" type="qcurve" smooth="yes"/>
      <point x="375" y="217" type="line" smooth="yes"/>
      <point x="375" y="177"/>
      <point x="335" y="177" type="qcurve" smooth="yes"/>
      <point x="181" y="177" type="line" smooth="yes"/>
      <point x="141" y="177"/>
      <point x="141" y="137" type="qcurve" smooth="yes"/>
      <point x="141" y="123" type="line" smooth="yes"/>
      <point x="141" y="83"/>
      <point x="181" y="83" type="qcurve" smooth="yes"/>
      <point x="335" y="83" type="line" smooth="yes"/>
      <point x="375" y="83"/>
      <point x="375" y="43" type="qcurve" smooth="yes"/>
      <point x="375" y="32" type="line" smooth="yes"/>
      <point x="375" y="-8"/>
      <point x="335" y="-8" type="qcurve" smooth="yes"/>
      <point x="151" y="-8" type="line" smooth="yes"/>
      <point x="123" y="-8"/>
    </contour>
    <contour>
      <point x="141" y="297" type="line" smooth="yes"/>
      <point x="141" y="257"/>
      <point x="181" y="257" type="qcurve" smooth="yes"/>
      <point x="244" y="257" type="line" smooth="yes"/>
      <point x="284" y="257"/>
      <point x="284" y="297" type="qcurve" smooth="yes"/>
      <point x="284" y="355" type="line" smooth="yes"/>
      <point x="284" y="395"/>
      <point x="244" y="395" type="qcurve" smooth="yes"/>
      <point x="181" y="395" type="line" smooth="yes"/>
      <point x="141" y="395"/>
      <point x="141" y="355" type="qcurve" smooth="yes"/>
    </contour>
    <contour>
      <point x="89" y="676" type="qcurve" smooth="yes"/>
      <point x="89" y="686"/>
      <point x="106" y="702"/>
      <point x="121" y="702" type="qcurve" smooth="yes"/>
      <point x="149" y="702"/>
      <point x="152" y="671" type="qcurve" smooth="yes"/>
      <point x="154" y="649"/>
      <point x="190" y="621"/>
      <point x="213" y="621" type="qcurve" smooth="yes"/>
      <point x="236" y="621"/>
      <point x="274" y="649"/>
      <point x="276" y="671" type="qcurve" smooth="yes"/>
      <point x="279" y="702"/>
      <point x="307" y="702" type="qcurve" smooth="yes"/>
      <point x="322" y="702"/>
      <point x="338" y="686"/>
      <point x="338" y="676" type="qcurve" smooth="yes"/>
      <point x="338" y="652"/>
      <point x="316" y="609"/>
      <point x="281" y="578"/>
      <point x="236" y="560"/>
      <point x="213" y="560" type="qcurve" smooth="yes"/>
      <point x="190" y="560"/>
      <point x="146" y="578"/>
      <point x="111" y="609"/>
      <point x="89" y="652"/>
    </contour>
  </outline>
</glyph>
<glyph name="Ecaron" format="2">
  <advance width="485"/>
  <unicode hex="011A"/>
  <anchor x="248" y="710" name="top"/>
  <outline>
    <contour>
      <point x="102" y="14" type="qcurve" smooth="yes"/>
      <point x="70" y="46" type="line" smooth="yes"/>
      <point x="50" y="66"/>
      <point x="50" y="95" type="qcurve" smooth="yes"/>
      <point x="50" y="671" type="line" smooth="yes"/>
      <point x="50" y="711"/>
      <point x="90" y="711" type="qcurve" smooth="yes"/>
      <point x="405" y="711" type="line" smooth="yes"/>
      <point x="445" y="711"/>
      <point x="445" y="671" type="qcurve" smooth="yes"/>
      <point x="445" y="660" type="line" smooth="yes"/>
      <point x="445" y="620"/>
      <point x="405" y="620" type="qcurve" smooth="yes"/>
      <point x="180" y="620" type="line" smooth="yes"/>
      <point x="140" y="620"/>
      <point x="140" y="580" type="qcurve" smooth="yes"/>
      <point x="140" y="446" type="line" smooth="yes"/>
      <point x="140" y="406"/>
      <point x="180" y="406" type="qcurve" smooth="yes"/>
      <point x="405" y="406" type="line" smooth="yes"/>
      <point x="445" y="406"/>
      <point x="445" y="366" type="qcurve" smooth="yes"/>
      <point x="445" y="355" type="line" smooth="yes"/>
      <point x="445" y="315"/>
      <point x="405" y="315" type="qcurve" smooth="yes"/>
      <point x="180" y="315" type="line" smooth="yes"/>
      <point x="140" y="315"/>
      <point x="140" y="275" type="qcurve" smooth="yes"/>
      <point x="140" y="124" type="line" smooth="yes"/>
      <point x="140" y="84"/>
      <point x="180" y="84" type="qcurve" smooth="yes"/>
      <point x="405" y="84" type="line" smooth="yes"/>
      <point x="445" y="84"/>
      <point x="445" y="44" type="qcurve" smooth="yes"/>
      <point x="445" y="33" type="line" smooth="yes"/>
      <point x="445" y="-7"/>
      <point x="405" y="-7" type="qcurve" smooth="yes"/>
      <point x="151" y="-7" type="line" smooth="yes"/>
      <point x="123" y="-7"/>
    </contour>
    <contour>
      <point x="188" y="809" type="qcurve" smooth="yes"/>
      <point x="147" y="861" type="line" smooth="yes"/>
      <point x="135" y="876"/>
      <point x="135" y="891" type="qcurve" smooth="yes"/>
      <point x="135" y="905"/>
      <point x="146" y="913" type="qcurve" smooth="yes"/>
      <point x="156" y="920"/>
      <point x="166" y="920" type="qcurve" smooth="yes"/>
      <point x="182" y="920"/>
      <point x="197" y="901" type="qcurve" smooth="yes"/>
      <point x="218" y="875" type="line" smooth="yes"/>
      <point x="237" y="852"/>
      <point x="248" y="852" type="qcurve" smooth="yes"/>
      <point x="257" y="852"/>
      <point x="278" y="874" type="qcurve"/>
      <point x="303" y="903" type="line" smooth="yes"/>
      <point x="318" y="921"/>
      <point x="334" y="921" type="qcurve" smooth="yes"/>
      <point x="343" y="921"/>
      <point x="355" y="913" type="qcurve" smooth="yes"/>
      <point x="366" y="905"/>
      <point x="366" y="892" type="qcurve" smooth="yes"/>
      <point x="366" y="878"/>
      <point x="352" y="861" type="qcurve" smooth="yes"/>
      <point x="306" y="807" type="line" smooth="yes"/>
      <point x="288" y="785"/>
      <point x="257" y="785" type="qcurve" smooth="yes"/>
      <point x="237" y="785" type="line" smooth="yes"/>
      <point x="207" y="785"/>
    </contour>
  </outline>
</glyph>
<glyph name="ecaron" format="2">
  <advance width="425"/>
  <unicode hex="011B"/>
  <anchor x="213" y="485" name="top"/>
  <outline>
    <contour>
      <point x="102" y="13" type="qcurve" smooth="yes"/>
      <point x="70" y="45" type="line" smooth="yes"/>
      <point x="50" y="65"/>
      <point x="50" y="94" type="qcurve" smooth="yes"/>
      <point x="50" y="384" type="line" smooth="yes"/>
      <point x="50" y="413"/>
      <point x="70" y="433" type="qcurve" smooth="yes"/>
      <point x="102" y="465" type="line" smooth="yes"/>
      <point x="122" y="485"/>
      <point x="151" y="485" type="qcurve" smooth="yes"/>
      <point x="274" y="485" type="line" smooth="yes"/>
      <point x="303" y="485"/>
      <point x="323" y="465" type="qcurve" smooth="yes"/>
      <point x="355" y="433" type="line" smooth="yes"/>
      <point x="375" y="413"/>
      <point x="375" y="384" type="qcurve" smooth="yes"/>
      <point x="375" y="217" type="line" smooth="yes"/>
      <point x="375" y="177"/>
      <point x="335" y="177" type="qcurve" smooth="yes"/>
      <point x="181" y="177" type="line" smooth="yes"/>
      <point x="141" y="177"/>
      <point x="141" y="137" type="qcurve" smooth="yes"/>
      <point x="141" y="123" type="line" smooth="yes"/>
      <point x="141" y="83"/>
      <point x="181" y="83" type="qcurve" smooth="yes"/>
      <point x="335" y="83" type="line" smooth="yes"/>
      <point x="375" y="83"/>
      <point x="375" y="43" type="qcurve" smooth="yes"/>
      <point x="375" y="32" type="line" smooth="yes"/>
      <point x="375" y="-8"/>
      <point x="335" y="-8" type="qcurve" smooth="yes"/>
      <point x="151" y="-8" type="line" smooth="yes"/>
      <point x="123" y="-8"/>
    </contour>
    <contour>
      <point x="141" y="297" type="line" smooth="yes"/>
      <point x="141" y="257"/>
      <point x="181" y="257" type="qcurve" smooth="yes"/>
      <point x="244" y="257" type="line" smooth="yes"/>
      <point x="284" y="257"/>
      <point x="284" y="297" type="qcurve" smooth="yes"/>
      <point x="284" y="355" type="line" smooth="yes"/>
      <point x="284" y="395"/>
      <point x="244" y="395" type="qcurve" smooth="yes"/>
      <point x="181" y="395" type="line" smooth="yes"/>
      <point x="141" y="395"/>
      <point x="141" y="355" type="qcurve" smooth="yes"/>
    </contour>
    <contour>
      <point x="153" y="584" type="qcurve" smooth="yes"/>
      <point x="112" y="636" type="line" smooth="yes"/>
      <point x="100" y="651"/>
      <point x="100" y="666" type="qcurve" smooth="yes"/>
      <point x="100" y="680"/>
      <point x="111" y="688" type="qcurve" smooth="yes"/>
      <point x="121" y="695"/>
      <point x="131" y="695" type="qcurve" smooth="yes"/>
      <point x="147" y="695"/>
      <point x="162" y="676" type="qcurve" smooth="yes"/>
      <point x="183" y="650" type="line" smooth="yes"/>
      <point x="202" y="627"/>
      <point x="213" y="627" type="qcurve" smooth="yes"/>
      <point x="222" y="627"/>
      <point x="243" y="649" type="qcurve"/>
      <point x="268" y="678" type="line" smooth="yes"/>
      <point x="283" y="696"/>
      <point x="299" y="696" type="qcurve" smooth="yes"/>
      <point x="308" y="696"/>
      <point x="320" y="688" type="qcurve" smooth="yes"/>
      <point x="331" y="680"/>
      <point x="331" y="667" type="qcurve" smooth="yes"/>
      <point x="331" y="653"/>
      <point x="317" y="636" type="qcurve" smooth="yes"/>
      <point x="271" y="582" type="line" smooth="yes"/>
      <point x="253" y="560"/>
      <point x="222" y="560" type="qcurve" smooth="yes"/>
      <point x="202" y="560" type="line" smooth="yes"/>
      <point x="172" y="560"/>
    </contour>
  </outline>
</glyph>
<glyph name="ibreve" format="2">
  <advance width="252"/>
  <unicode hex="012D"/>
  <anchor x="127" y="485" name="top"/>
  <outline>
    <contour>
      <point x="121" y="-9" type="line" smooth="yes"/>
      <point x="81" y="-9"/>
      <point x="81" y="31" type="qcurve" smooth="yes"/>
      <point x="81" y="445" type="line" smooth="yes"/>
      <point x="81" y="485"/>
      <point x="121" y="485" type="qcurve" smooth="yes"/>
      <point x="131" y="485" type="line" smooth="yes"/>
      <point x="171" y="485"/>
      <point x="171" y="445" type="qcurve" smooth="yes"/>
      <point x="171" y="31" type="line" smooth="yes"/>
      <point x="171" y="-9"/>
      <point x="131" y="-9" type="qcurve" smooth="yes"/>
    </contour>
    <contour>
      <point x="2" y="676" type="qcurve" smooth="yes"/>
      <point x="2" y="686"/>
      <point x="19" y="702"/>
      <point x="34" y="702" type="qcurve" smooth="yes"/>
      <point x="62" y="702"/>
      <point x="65" y="671" type="qcurve" smooth="yes"/>
      <point x="67" y="649"/>
      <point x="103" y="621"/>
      <point x="126" y="621" type="qcurve" smooth="yes"/>
      <point x="149" y="621"/>
      <point x="187" y="649"/>
      <point x="189" y="671" type="qcurve" smooth="yes"/>
      <point x="192" y="702"/>
      <point x="220" y="702" type="qcurve" smooth="yes"/>
      <point x="235" y="702"/>
      <point x="251" y="686"/>
      <point x="251" y="676" type="qcurve" smooth="yes"/>
      <point x="251" y="652"/>
      <point x="229" y="609"/>
      <point x="194" y="578"/>
      <point x="149" y="560"/>
      <point x="126" y="560" type="qcurve" smooth="yes"/>
      <point x="103" y="560"/>
      <point x="59" y="578"/>
      <point x="24" y="609"/>
      <point x="2" y="652"/>
    </contour>
  </outline>
</glyph>
<glyph name="lslash" format="2">
  <advance width="339"/>
  <unicode hex="0142"/>
  <outline>
    <contour>
      <point x="121" y="31" type="qcurve" smooth="yes"/>
      <point x="121" y="302" type="line" smooth="yes"/>
      <point x="121" y="335"/>
      <point x="93" y="335" type="qcurve" smooth="yes"/>
      <point x="88" y="335"/>
      <point x="82" y="333" type="qcurve"/>
      <point x="76" y="331" type="line"/>
      <point x="70" y="329"/>
      <point x="64" y="329" type="qcurve" smooth="yes"/>
      <point x="35" y="329"/>
      <point x="26" y="360" type="qcurve"/>
      <point x="22" y="377" type="line"/>
      <point x="20" y="384"/>
      <point x="20" y="389" type="qcurve" smooth="yes"/>
      <point x="20" y="417"/>
      <point x="50" y="424" type="qcurve" smooth="yes"/>
      <point x="82" y="432" type="line" smooth="yes"/>
      <point x="121" y="441"/>
      <point x="121" y="481" type="qcurve" smooth="yes"/>
      <point x="121" y="670" type="line" smooth="yes"/>
      <point x="121" y="710"/>
      <point x="161" y="710" type="qcurve" smooth="yes"/>
      <point x="171" y="710" type="line" smooth="yes"/>
      <point x="211" y="710"/>
      <point x="211" y="670" type="qcurve" smooth="yes"/>
      <point x="211" y="503" type="line" smooth="yes"/>
      <point x="211" y="470"/>
      <point x="239" y="470" type="qcurve" smooth="yes"/>
      <point x="244" y="470"/>
      <point x="250" y="472" type="qcurve" smooth="yes"/>
      <point x="263" y="476" type="line" smooth="yes"/>
      <point x="269" y="478"/>
      <point x="275" y="478" type="qcurve" smooth="yes"/>
      <point x="304" y="478"/>
      <point x="313" y="447" type="qcurve"/>
      <point x="317" y="430" type="line"/>
      <point x="319" y="423"/>
      <point x="319" y="418" type="qcurve" smooth="yes"/>
      <point x="319" y="392"/>
      <point x="289" y="383" type="qcurve"/>
      <point x="250" y="373" type="line"/>
      <point x="211" y="362"/>
      <point x="211" y="324" type="qcurve" smooth="yes"/>
      <point x="211" y="31" type="line" smooth="yes"/>
      <point x="211" y="-9"/>
      <point x="171" y="-9" type="qcurve" smooth="yes"/>
      <point x="161" y="-9" type="line" smooth="yes"/>
      <point x="121" y="-9"/>
    </contour>
  </outline>
</glyph>
<glyph name="nacute" format="2">
  <advance width="447"/>
  <unicode hex="0144"/>
  <anchor x="224" y="485" name="top"/>
  <outline>
    <contour>
      <point x="100" y="-10" type="line" smooth="yes"/>
      <point x="60" y="-10"/>
      <point x="60" y="30" type="qcurve" smooth="yes"/>
      <point x="60" y="383" type="line" smooth="yes"/>
      <point x="60" y="412"/>
      <point x="80" y="432" type="qcurve" smooth="yes"/>
      <point x="113" y="465" type="line" smooth="yes"/>
      <point x="133" y="485"/>
      <point x="162" y="485" type="qcurve" smooth="yes"/>
      <point x="286" y="485" type="line" smooth="yes"/>
      <point x="314" y="485"/>
      <point x="335" y="464" type="qcurve" smooth="yes"/>
      <point x="367" y="432" type="line" smooth="yes"/>
      <point x="387" y="412"/>
      <point x="387" y="383" type="qcurve" smooth="yes"/>
      <point x="387" y="30" type="line" smooth="yes"/>
      <point x="387" y="-10"/>
      <point x="347" y="-10" type="qcurve" smooth="yes"/>
      <point x="337" y="-10" type="line" smooth="yes"/>
      <point x="297" y="-10"/>
      <point x="297" y="30" type="qcurve" smooth="yes"/>
      <point x="297" y="354" type="line" smooth="yes"/>
      <point x="297" y="394"/>
      <point x="257" y="394" type="qcurve" smooth="yes"/>
      <point x="191" y="394" type="line" smooth="yes"/>
      <point x="151" y="394"/>
      <point x="151" y="354" type="qcurve" smooth="yes"/>
      <point x="151" y="30" type="line" smooth="yes"/>
      <point x="151" y="-10"/>
      <point x="111" y="-10" type="qcurve" smooth="yes"/>
    </contour>
    <contour>
      <point x="190" y="572" type="line" smooth="yes"/>
      <point x="174" y="572"/>
      <point x="159" y="591"/>
      <point x="165" y="605" type="qcurve" smooth="yes"/>
      <point x="205" y="693" type="line" smooth="yes"/>
      <point x="211" y="707"/>
      <point x="234" y="726"/>
      <point x="251" y="726" type="qcurve" smooth="yes"/>
      <point x="272" y="726" type="line" smooth="yes"/>
      <point x="288" y="726"/>
      <point x="303" y="707"/>
      <point x="297" y="693" type="qcurve" smooth="yes"/>
      <point x="257" y="605" type="line" smooth="yes"/>
      <point x="251" y="591"/>
      <point x="228" y="572"/>
      <point x="211" y="572" type="qcurve" smooth="yes"/>
    </contour>
  </outline>
</glyph>
<glyph name="obreve" format="2">
  <advance width="427"/>
  <unicode hex="014F"/>
  <anchor x="409" y="525" name="Odot"/>
  <anchor x="214" y="485" name="top"/>
  <outline>
    <contour>
      <point x="103" y="11" type="qcurve" smooth="yes"/>
      <point x="70" y="44" type="line" smooth="yes"/>
      <point x="50" y="64"/>
      <point x="50" y="93" type="qcurve" smooth="yes"/>
      <point x="50" y="383" type="line" smooth="yes"/>
      <point x="50" y="412"/>
      <point x="70" y="432" type="qcurve" smooth="yes"/>
      <point x="103" y="465" type="line" smooth="yes"/>
      <point x="123" y="485"/>
      <point x="152" y="485" type="qcurve" smooth="yes"/>
      <point x="276" y="485" type="line" smooth="yes"/>
      <point x="305" y="485"/>
      <point x="325" y="465" type="qcurve" smooth="yes"/>
      <point x="357" y="433" type="line" smooth="yes"/>
      <point x="377" y="412"/>
      <point x="377" y="383" type="qcurve" smooth="yes"/>
      <point x="377" y="93" type="line"/>
      <point x="378" y="64"/>
      <point x="357" y="43" type="qcurve" smooth="yes"/>
      <point x="325" y="11" type="line" smooth="yes"/>
      <point x="305" y="-9"/>
      <point x="276" y="-9" type="qcurve" smooth="yes"/>
      <point x="152" y="-9" type="line" smooth="yes"/>
      <point x="123" y="-9"/>
    </contour>
    <contour>
      <point x="141" y="122" type="line" smooth="yes"/>
      <point x="141" y="82"/>
      <point x="181" y="82" type="qcurve" smooth="yes"/>
      <point x="246" y="82" type="line" smooth="yes"/>
      <point x="286" y="82"/>
      <point x="286" y="122" type="qcurve" smooth="yes"/>
      <point x="286" y="354" type="line" smooth="yes"/>
      <point x="286" y="394"/>
      <point x="246" y="394" type="qcurve" smooth="yes"/>
      <point x="181" y="394" type="line" smooth="yes"/>
      <point x="141" y="394"/>
      <point x="141" y="354" type="qcurve" smooth="yes"/>
    </contour>
    <contour>
      <point x="90" y="676" type="qcurve" smooth="yes"/>
      <point x="90" y="686"/>
      <point x="107" y="702"/>
      <point x="122" y="702" type="qcurve" smooth="yes"/>
      <point x="150" y="702"/>
      <point x="153" y="671" type="qcurve" smooth="yes"/>
      <point x="155" y="649"/>
      <point x="191" y="621"/>
      <point x="214" y="621" type="qcurve" smooth="yes"/>
      <point x="237" y="621"/>
      <point x="275" y="649"/>
      <point x="277" y="671" type="qcurve" smooth="yes"/>
      <point x="280" y="702"/>
      <point x="308" y="702" type="qcurve" smooth="yes"/>
      <point x="323" y="702"/>
      <point x="339" y="686"/>
      <point x="339" y="676" type="qcurve" smooth="yes"/>
      <point x="339" y="652"/>
      <point x="317" y="609"/>
      <point x="282" y="578"/>
      <point x="237" y="560"/>
      <point x="214" y="560" type="qcurve" smooth="yes"/>
      <point x="191" y="560"/>
      <point x="147" y="578"/>
      <point x="112" y="609"/>
      <point x="90" y="652"/>
    </contour>
  </outline>
</glyph>
<glyph name="ohungarumlaut" format="2">
  <advance width="427"/>
  <unicode hex="0151"/>
  <anchor x="409" y="525" name="Odot"/>
  <anchor x="214" y="485" name="top"/>
  <outline>
    <contour>
      <point x="103" y="11" type="qcurve" smooth="yes"/>
      <point x="70" y="44" type="line" smooth="yes"/>
      <point x="50" y="64"/>
      <point x="50" y="93" type="qcurve" smooth="yes"/>
      <point x="50" y="383" type="line" smooth="yes"/>
      <point x="50" y="412"/>
      <point x="70" y="432" type="qcurve" smooth="yes"/>
      <point x="103" y="465" type="line" smooth="yes"/>
      <point x="123" y="485"/>
      <point x="152" y="485" type="qcurve" smooth="yes"/>
      <point x="276" y="485" type="line" smooth="yes"/>
      <point x="305" y="485"/>
      <point x="325" y="465" type="qcurve" smooth="yes"/>
      <point x="357" y="433" type="line" smooth="yes"/>
      <point x="377" y="412"/>
      <point x="377" y="383" type="qcurve" smooth="yes"/>
      <point x="377" y="93" type="line"/>
      <point x="378" y="64"/>
      <point x="357" y="43" type="qcurve" smooth="yes"/>
      <point x="325" y="11" type="line" smooth="yes"/>
      <point x="305" y="-9"/>
      <point x="276" y="-9" type="qcurve" smooth="yes"/>
      <point x="152" y="-9" type="line" smooth="yes"/>
      <point x="123" y="-9"/>
    </contour>
    <contour>
      <point x="141" y="122" type="line" smooth="yes"/>
      <point x="141" y="82"/>
      <point x="181" y="82" type="qcurve" smooth="yes"/>
      <point x="246" y="82" type="line" smooth="yes"/>
      <point x="286" y="82"/>
      <point x="286" y="122" type="qcurve" smooth="yes"/>
      <point x="286" y="354" type="line" smooth="yes"/>
      <point x="286" y="394"/>
      <point x="246" y="394" type="qcurve" smooth="yes"/>
      <point x="181" y="394" type="line" smooth="yes"/>
      <point x="141" y="394"/>
      <point x="141" y="354" type="qcurve" smooth="yes"/>
    </contour>
    <contour>
      <point x="242" y="560" type="line" smooth="yes"/>
      <point x="226" y="560"/>
      <point x="211" y="579"/>
      <point x="217" y="593" type="qcurve" smooth="yes"/>
      <point x="257" y="681" type="line" smooth="yes"/>
      <point x="263" y="695"/>
      <point x="286" y="714"/>
      <point x="303" y="714" type="qcurve" smooth="yes"/>
      <point x="324" y="714" type="line" smooth="yes"/>
      <point x="340" y="714"/>
      <point x="355" y="695"/>
      <point x="349" y="681" type="qcurve" smooth="yes"/>
      <point x="309" y="593" type="line" smooth="yes"/>
      <point x="303" y="579"/>
      <point x="280" y="560"/>
      <point x="263" y="560" type="qcurve" smooth="yes"/>
    </contour>
    <contour>
      <point x="116" y="560" type="line" smooth="yes"/>
      <point x="100" y="560"/>
      <point x="85" y="579"/>
      <point x="91" y="593" type="qcurve" smooth="yes"/>
      <point x="131" y="681" type="line" smooth="yes"/>
      <point x="137" y="695"/>
      <point x="160" y="714"/>
      <point x="177" y="714" type="qcurve" smooth="yes"/>
      <point x="198" y="714" type="line" smooth="yes"/>
      <point x="214" y="714"/>
      <point x="229" y="695"/>
      <point x="223" y="681" type="qcurve" smooth="yes"/>
      <point x="183" y="593" type="line" smooth="yes"/>
      <point x="177" y="579"/>
      <point x="154" y="560"/>
      <point x="137" y="560" type="qcurve" smooth="yes"/>
    </contour>
  </outline>
</glyph>
<glyph name="OE" format="2">
  <advance width="981"/>
  <unicode hex="0152"/>
  <outline>
    <contour>
      <point x="70" y="44" type="line" smooth="yes"/>
      <point x="50" y="64"/>
      <point x="50" y="93" type="qcurve" smooth="yes"/>
      <point x="50" y="609" type="line" smooth="yes"/>
      <point x="50" y="638"/>
      <point x="70" y="659" type="qcurve" smooth="yes"/>
      <point x="102" y="691" type="line" smooth="yes"/>
      <point x="122" y="711"/>
      <point x="151" y="711" type="qcurve" smooth="yes"/>
      <point x="711" y="711" type="line" smooth="yes"/>
      <point x="751" y="711"/>
      <point x="751" y="671" type="qcurve" smooth="yes"/>
      <point x="751" y="660" type="line" smooth="yes"/>
      <point x="751" y="620"/>
      <point x="711" y="620" type="qcurve" smooth="yes"/>
      <point x="486" y="620" type="line" smooth="yes"/>
      <point x="446" y="620"/>
      <point x="446" y="580" type="qcurve" smooth="yes"/>
      <point x="446" y="446" type="line" smooth="yes"/>
      <point x="446" y="406"/>
      <point x="486" y="406" type="qcurve" smooth="yes"/>
      <point x="711" y="406" type="line" smooth="yes"/>
      <point x="751" y="406"/>
      <point x="751" y="366" type="qcurve" smooth="yes"/>
      <point x="751" y="355" type="line" smooth="yes"/>
      <point x="751" y="315"/>
      <point x="711" y="315" type="qcurve" smooth="yes"/>
      <point x="486" y="315" type="line" smooth="yes"/>
      <point x="446" y="315"/>
      <point x="446" y="275" type="qcurve" smooth="yes"/>
      <point x="446" y="124" type="line" smooth="yes"/>
      <point x="446" y="84"/>
      <point x="486" y="84" type="qcurve" smooth="yes"/>
      <point x="711" y="84" type="line" smooth="yes"/>
      <point x="751" y="84"/>
      <point x="751" y="44" type="qcurve" smooth="yes"/>
      <point x="751" y="33" type="line" smooth="yes"/>
      <point x="751" y="-7"/>
      <point x="711" y="-7" type="qcurve" smooth="yes"/>
      <point x="151" y="-7" type="line" smooth="yes"/>
      <point x="123" y="-7"/>
      <point x="102" y="13" type="qcurve" smooth="yes"/>
    </contour>
    <contour>
      <point x="141" y="122" type="line" smooth="yes"/>
      <point x="141" y="82"/>
      <point x="181" y="82" type="qcurve" smooth="yes"/>
      <point x="315" y="82" type="line" smooth="yes"/>
      <point x="355" y="82"/>
      <point x="355" y="122" type="qcurve" smooth="yes"/>
      <point x="355" y="580" type="line" smooth="yes"/>
      <point x="355" y="620"/>
      <point x="315" y="620" type="qcurve" smooth="yes"/>
      <point x="181" y="620" type="line" smooth="yes"/>
      <point x="141" y="620"/>
      <point x="141" y="580" type="qcurve" smooth="yes"/>
    </contour>
  </outline>
</glyph>
<glyph name="oe" format="2">
  <advance width="852"/>
  <unicode hex="0153"/>
  <outline>
    <contour>
      <point x="377" y="297" type="line" smooth="yes"/>
      <point x="377" y="257"/>
      <point x="417" y="257" type="qcurve" smooth="yes"/>
      <point x="480" y="257" type="line" smooth="yes"/>
      <point x="520" y="257"/>
      <point x="520" y="297" type="qcurve" smooth="yes"/>
      <point x="520" y="355" type="line" smooth="yes"/>
      <point x="520" y="395"/>
      <point x="480" y="395" type="qcurve" smooth="yes"/>
      <point x="417" y="395" type="line" smooth="yes"/>
      <point x="377" y="395"/>
      <point x="377" y="355" type="qcurve" smooth="yes"/>
    </contour>
    <contour>
      <point x="141" y="122" type="line" smooth="yes"/>
      <point x="141" y="82"/>
      <point x="181" y="82" type="qcurve" smooth="yes"/>
      <point x="246" y="82" type="line" smooth="yes"/>
      <point x="286" y="82"/>
      <point x="286" y="122" type="qcurve" smooth="yes"/>
      <point x="286" y="354" type="line" smooth="yes"/>
      <point x="286" y="394"/>
      <point x="246" y="394" type="qcurve" smooth="yes"/>
      <point x="181" y="394" type="line" smooth="yes"/>
      <point x="141" y="394"/>
      <point x="141" y="354" type="qcurve" smooth="yes"/>
    </contour>
    <contour>
      <point x="102" y="12" type="qcurve" smooth="yes"/>
      <point x="70" y="44" type="line" smooth="yes"/>
      <point x="50" y="64"/>
      <point x="50" y="93" type="qcurve" smooth="yes"/>
      <point x="50" y="383" type="line" smooth="yes"/>
      <point x="50" y="412"/>
      <point x="70" y="432" type="qcurve" smooth="yes"/>
      <point x="103" y="465" type="line" smooth="yes"/>
      <point x="123" y="485"/>
      <point x="152" y="485" type="qcurve" smooth="yes"/>
      <point x="269" y="485" type="line" smooth="yes"/>
      <point x="282" y="485"/>
      <point x="295" y="473" type="qcurve" smooth="yes"/>
      <point x="312" y="458"/>
      <point x="331" y="458" type="qcurve" smooth="yes"/>
      <point x="350" y="458"/>
      <point x="369" y="476" type="qcurve"/>
      <point x="380" y="485"/>
      <point x="394" y="485" type="qcurve" smooth="yes"/>
      <point x="510" y="485" type="line" smooth="yes"/>
      <point x="539" y="485"/>
      <point x="559" y="465" type="qcurve" smooth="yes"/>
      <point x="591" y="433" type="line" smooth="yes"/>
      <point x="611" y="413"/>
      <point x="611" y="384" type="qcurve" smooth="yes"/>
      <point x="611" y="217" type="line" smooth="yes"/>
      <point x="611" y="177"/>
      <point x="571" y="177" type="qcurve" smooth="yes"/>
      <point x="417" y="177" type="line" smooth="yes"/>
      <point x="377" y="177"/>
      <point x="377" y="137" type="qcurve" smooth="yes"/>
      <point x="377" y="123" type="line" smooth="yes"/>
      <point x="377" y="83"/>
      <point x="417" y="83" type="qcurve" smooth="yes"/>
      <point x="571" y="83" type="line" smooth="yes"/>
      <point x="611" y="83"/>
      <point x="611" y="43" type="qcurve" smooth="yes"/>
      <point x="611" y="32" type="line" smooth="yes"/>
      <point x="611" y="-8"/>
      <point x="571" y="-8" type="qcurve" smooth="yes"/>
      <point x="394" y="-8" type="line" smooth="yes"/>
      <point x="380" y="-8"/>
      <point x="369" y="1" type="qcurve"/>
      <point x="350" y="19"/>
      <point x="331" y="19" type="qcurve" smooth="yes"/>
      <point x="312" y="19"/>
      <point x="295" y="4" type="qcurve" smooth="yes"/>
      <point x="282" y="-8"/>
      <point x="269" y="-8" type="qcurve" smooth="yes"/>
      <point x="151" y="-8" type="line" smooth="yes"/>
      <point x="122" y="-8"/>
    </contour>
  </outline>
</glyph>
<glyph name="Scircumflex" format="2">
  <advance width="496"/>
  <unicode hex="015C"/>
  <anchor x="248" y="927" name="top"/>
  <outline>
    <contour>
      <point x="70" y="44" type="line" smooth="yes"/>
      <point x="50" y="64"/>
      <point x="50" y="93" type="qcurve" smooth="yes"/>
      <point x="50" y="187" type="line" smooth="yes"/>
      <point x="50" y="227"/>
      <point x="90" y="227" type="qcurve" smooth="yes"/>
      <point x="101" y="227" type="line" smooth="yes"/>
      <point x="141" y="227"/>
      <point x="141" y="187" type="qcurve" smooth="yes"/>
      <point x="141" y="122" type="line" smooth="yes"/>
      <point x="141" y="82"/>
      <point x="181" y="82" type="qcurve" smooth="yes"/>
      <point x="315" y="82" type="line" smooth="yes"/>
      <point x="355" y="82"/>
      <point x="355" y="122" type="qcurve" smooth="yes"/>
      <point x="355" y="268" type="line" smooth="yes"/>
      <point x="355" y="308"/>
      <point x="315" y="308" type="qcurve" smooth="yes"/>
      <point x="152" y="308" type="line" smooth="yes"/>
      <point x="122" y="308"/>
      <point x="102" y="328" type="qcurve" smooth="yes"/>
      <point x="70" y="360" type="line" smooth="yes"/>
      <point x="50" y="380"/>
      <point x="50" y="409" type="qcurve" smooth="yes"/>
      <point x="50" y="612" type="line"/>
      <point x="49" y="641"/>
      <point x="70" y="662" type="qcurve" smooth="yes"/>
      <point x="102" y="694" type="line" smooth="yes"/>
      <point x="122" y="714"/>
      <point x="151" y="714" type="qcurve" smooth="yes"/>
      <point x="345" y="714" type="line" smooth="yes"/>
      <point x="373" y="714"/>
      <point x="394" y="693" type="qcurve" smooth="yes"/>
      <point x="426" y="661" type="line" smooth="yes"/>
      <point x="446" y="641"/>
      <point x="446" y="612" type="qcurve" smooth="yes"/>
      <point x="446" y="518" type="line" smooth="yes"/>
      <point x="446" y="478"/>
      <point x="406" y="478" type="qcurve" smooth="yes"/>
      <point x="395" y="478" type="line" smooth="yes"/>
      <point x="355" y="478"/>
      <point x="355" y="518" type="qcurve" smooth="yes"/>
      <point x="355" y="583" type="line" smooth="yes"/>
      <point x="355" y="623"/>
      <point x="315" y="623" type="qcurve" smooth="yes"/>
      <point x="181" y="623" type="line" smooth="yes"/>
      <point x="141" y="623"/>
      <point x="141" y="583" type="qcurve" smooth="yes"/>
      <point x="141" y="438" type="line" smooth="yes"/>
      <point x="141" y="398"/>
      <point x="181" y="398" type="qcurve" smooth="yes"/>
      <point x="345" y="398" type="line" smooth="yes"/>
      <point x="374" y="398"/>
      <point x="394" y="378" type="qcurve" smooth="yes"/>
      <point x="426" y="346" type="line" smooth="yes"/>
      <point x="446" y="326"/>
      <point x="446" y="297" type="qcurve" smooth="yes"/>
      <point x="446" y="93" type="line"/>
      <point x="447" y="64"/>
      <point x="426" y="43" type="qcurve" smooth="yes"/>
      <point x="394" y="11" type="line" smooth="yes"/>
      <point x="374" y="-9"/>
      <point x="345" y="-9" type="qcurve" smooth="yes"/>
      <point x="152" y="-9" type="line" smooth="yes"/>
      <point x="123" y="-9"/>
      <point x="103" y="11" type="qcurve" smooth="yes"/>
    </contour>
    <contour>
      <point x="151" y="804" type="qcurve" smooth="yes"/>
      <point x="151" y="817"/>
      <point x="161" y="833" type="qcurve" smooth="yes"/>
      <point x="220" y="927" type="line" smooth="yes"/>
      <point x="232" y="947"/>
      <point x="248" y="947" type="qcurve" smooth="yes"/>
      <point x="264" y="947"/>
      <point x="276" y="927" type="qcurve"/>
      <point x="336" y="833" type="line"/>
      <point x="347" y="817"/>
      <point x="347" y="801" type="qcurve" smooth="yes"/>
      <point x="347" y="785"/>
      <point x="331" y="785" type="qcurve" smooth="yes"/>
      <point x="327" y="785" type="line" smooth="yes"/>
      <point x="295" y="785"/>
      <point x="279" y="812" type="qcurve" smooth="yes"/>
      <point x="276" y="817" type="line" smooth="yes"/>
      <point x="262" y="841"/>
      <point x="246" y="841" type="qcurve" smooth="yes"/>
      <point x="235" y="841"/>
      <point x="226" y="826" type="qcurve"/>
      <point x="219" y="813" type="line" smooth="yes"/>
      <point x="204" y="785"/>
      <point x="171" y="785" type="qcurve" smooth="yes"/>
      <point x="151" y="785"/>
    </contour>
  </outline>
</glyph>
<glyph name="Scaron" format="2">
  <advance width="496"/>
  <unicode hex="0160"/>
  <anchor x="248" y="710" name="top"/>
  <outline>
    <contour>
      <point x="70" y="44" type="line" smooth="yes"/>
      <point x="50" y="64"/>
      <point x="50" y="93" type="qcurve" smooth="yes"/>
      <point x="50" y="187" type="line" smooth="yes"/>
      <point x="50" y="227"/>
      <point x="90" y="227" type="qcurve" smooth="yes"/>
      <point x="101" y="227" type="line" smooth="yes"/>
      <point x="141" y="227"/>
      <point x="141" y="187" type="qcurve" smooth="yes"/>
      <point x="141" y="122" type="line" smooth="yes"/>
      <point x="141" y="82"/>
      <point x="181" y="82" type="qcurve" smooth="yes"/>
      <point x="315" y="82" type="line" smooth="yes"/>
      <point x="355" y="82"/>
      <point x="355" y="122" type="qcurve" smooth="yes"/>
      <point x="355" y="268" type="line" smooth="yes"/>
      <point x="355" y="308"/>
      <point x="315" y="308" type="qcurve" smooth="yes"/>
      <point x="152" y="308" type="line" smooth="yes"/>
      <point x="122" y="308"/>
      <point x="102" y="328" type="qcurve" smooth="yes"/>
      <point x="70" y="360" type="line" smooth="yes"/>
      <point x="50" y="380"/>
      <point x="50" y="409" type="qcurve" smooth="yes"/>
      <point x="50" y="612" type="line"/>
      <point x="49" y="641"/>
      <point x="70" y="662" type="qcurve" smooth="yes"/>
      <point x="102" y="694" type="line" smooth="yes"/>
      <point x="122" y="714"/>
      <point x="151" y="714" type="qcurve" smooth="yes"/>
      <point x="345" y="714" type="line" smooth="yes"/>
      <point x="373" y="714"/>
      <point x="394" y="693" type="qcurve" smooth="yes"/>
      <point x="426" y="661" type="line" smooth="yes"/>
      <point x="446" y="641"/>
      <point x="446" y="612" type="qcurve" smooth="yes"/>
      <point x="446" y="518" type="line" smooth="yes"/>
      <point x="446" y="478"/>
      <point x="406" y="478" type="qcurve" smooth="yes"/>
      <point x="395" y="478" type="line" smooth="yes"/>
      <point x="355" y="478"/>
      <point x="355" y="518" type="qcurve" smooth="yes"/>
      <point x="355" y="583" type="line" smooth="yes"/>
      <point x="355" y="623"/>
      <point x="315" y="623" type="qcurve" smooth="yes"/>
      <point x="181" y="623" type="line" smooth="yes"/>
      <point x="141" y="623"/>
      <point x="141" y="583" type="qcurve" smooth="yes"/>
      <point x="141" y="438" type="line" smooth="yes"/>
      <point x="141" y="398"/>
      <point x="181" y="398" type="qcurve" smooth="yes"/>
      <point x="345" y="398" type="line" smooth="yes"/>
      <point x="374" y="398"/>
      <point x="394" y="378" type="qcurve" smooth="yes"/>
      <point x="426" y="346" type="line" smooth="yes"/>
      <point x="446" y="326"/>
      <point x="446" y="297" type="qcurve" smooth="yes"/>
      <point x="446" y="93" type="line"/>
      <point x="447" y="64"/>
      <point x="426" y="43" type="qcurve" smooth="yes"/>
      <point x="394" y="11" type="line" smooth="yes"/>
      <point x="374" y="-9"/>
      <point x="345" y="-9" type="qcurve" smooth="yes"/>
      <point x="152" y="-9" type="line" smooth="yes"/>
      <point x="123" y="-9"/>
      <point x="103" y="11" type="qcurve" smooth="yes"/>
    </contour>
    <contour>
      <point x="188" y="809" type="qcurve" smooth="yes"/>
      <point x="147" y="861" type="line" smooth="yes"/>
      <point x="135" y="876"/>
      <point x="135" y="891" type="qcurve" smooth="yes"/>
      <point x="135" y="905"/>
      <point x="146" y="913" type="qcurve" smooth="yes"/>
      <point x="156" y="920"/>
      <point x="166" y="920" type="qcurve" smooth="yes"/>
      <point x="182" y="920"/>
      <point x="197" y="901" type="qcurve" smooth="yes"/>
      <point x="218" y="875" type="line" smooth="yes"/>
      <point x="237" y="852"/>
      <point x="248" y="852" type="qcurve" smooth="yes"/>
      <point x="257" y="852"/>
      <point x="278" y="874" type="qcurve"/>
      <point x="303" y="903" type="line" smooth="yes"/>
      <point x="318" y="921"/>
      <point x="334" y="921" type="qcurve" smooth="yes"/>
      <point x="343" y="921"/>
      <point x="355" y="913" type="qcurve" smooth="yes"/>
      <point x="366" y="905"/>
      <point x="366" y="892" type="qcurve" smooth="yes"/>
      <point x="366" y="878"/>
      <point x="352" y="861" type="qcurve" smooth="yes"/>
      <point x="306" y="807" type="line" smooth="yes"/>
      <point x="288" y="785"/>
      <point x="257" y="785" type="qcurve" smooth="yes"/>
      <point x="237" y="785" type="line" smooth="yes"/>
      <point x="207" y="785"/>
    </contour>
  </outline>
</glyph>
<glyph name="scaron" format="2">
  <advance width="426"/>
  <unicode hex="0161"/>
  <anchor x="213" y="485" name="top"/>
  <outline>
    <contour>
      <point x="103" y="11" type="qcurve" smooth="yes"/>
      <point x="70" y="44" type="line" smooth="yes"/>
      <point x="50" y="64"/>
      <point x="50" y="93" type="qcurve"/>
      <point x="50" y="94" type="line"/>
      <point x="50" y="134"/>
      <point x="90" y="134" type="qcurve" smooth="yes"/>
      <point x="101" y="134" type="line" smooth="yes"/>
      <point x="120" y="134"/>
      <point x="141" y="120"/>
      <point x="141" y="108" type="qcurve" smooth="yes"/>
      <point x="141" y="96"/>
      <point x="162" y="82"/>
      <point x="181" y="82" type="qcurve" smooth="yes"/>
      <point x="245" y="82" type="line" smooth="yes"/>
      <point x="285" y="82"/>
      <point x="285" y="122" type="qcurve" smooth="yes"/>
      <point x="285" y="152" type="line" smooth="yes"/>
      <point x="285" y="192"/>
      <point x="245" y="192" type="qcurve" smooth="yes"/>
      <point x="151" y="192" type="line" smooth="yes"/>
      <point x="136" y="192"/>
      <point x="114" y="201"/>
      <point x="102" y="211" type="qcurve" smooth="yes"/>
      <point x="72" y="237" type="line" smooth="yes"/>
      <point x="60" y="247"/>
      <point x="50" y="270"/>
      <point x="50" y="286" type="qcurve" smooth="yes"/>
      <point x="50" y="384" type="line" smooth="yes"/>
      <point x="50" y="399"/>
      <point x="60" y="422"/>
      <point x="71" y="433" type="qcurve" smooth="yes"/>
      <point x="103" y="465" type="line" smooth="yes"/>
      <point x="123" y="485"/>
      <point x="152" y="485" type="qcurve" smooth="yes"/>
      <point x="274" y="485" type="line" smooth="yes"/>
      <point x="304" y="485"/>
      <point x="324" y="465" type="qcurve" smooth="yes"/>
      <point x="356" y="433" type="line" smooth="yes"/>
      <point x="376" y="413"/>
      <point x="376" y="384" type="qcurve"/>
      <point x="376" y="382" type="line"/>
      <point x="376" y="342"/>
      <point x="336" y="342" type="qcurve" smooth="yes"/>
      <point x="325" y="342" type="line" smooth="yes"/>
      <point x="306" y="342"/>
      <point x="285" y="356"/>
      <point x="285" y="369" type="qcurve" smooth="yes"/>
      <point x="285" y="381"/>
      <point x="264" y="395"/>
      <point x="245" y="395" type="qcurve" smooth="yes"/>
      <point x="181" y="395" type="line" smooth="yes"/>
      <point x="141" y="395"/>
      <point x="141" y="355" type="qcurve" smooth="yes"/>
      <point x="141" y="314" type="line" smooth="yes"/>
      <point x="141" y="274"/>
      <point x="181" y="274" type="qcurve" smooth="yes"/>
      <point x="274" y="274" type="line" smooth="yes"/>
      <point x="303" y="274"/>
      <point x="323" y="254" type="qcurve" smooth="yes"/>
      <point x="356" y="221" type="line" smooth="yes"/>
      <point x="376" y="201"/>
      <point x="376" y="172" type="qcurve" smooth="yes"/>
      <point x="376" y="93" type="line" smooth="yes"/>
      <point x="376" y="64"/>
      <point x="356" y="44" type="qcurve" smooth="yes"/>
      <point x="323" y="11" type="line" smooth="yes"/>
      <point x="303" y="-9"/>
      <point x="274" y="-9" type="qcurve" smooth="yes"/>
      <point x="152" y="-9" type="line" smooth="yes"/>
      <point x="123" y="-9"/>
    </contour>
    <contour>
      <point x="153" y="584" type="qcurve" smooth="yes"/>
      <point x="112" y="636" type="line" smooth="yes"/>
      <point x="100" y="651"/>
      <point x="100" y="666" type="qcurve" smooth="yes"/>
      <point x="100" y="680"/>
      <point x="111" y="688" type="qcurve" smooth="yes"/>
      <point x="121" y="695"/>
      <point x="131" y="695" type="qcurve" smooth="yes"/>
      <point x="147" y="695"/>
      <point x="162" y="676" type="qcurve" smooth="yes"/>
      <point x="183" y="650" type="line" smooth="yes"/>
      <point x="202" y="627"/>
      <point x="213" y="627" type="qcurve" smooth="yes"/>
      <point x="222" y="627"/>
      <point x="243" y="649" type="qcurve"/>
      <point x="268" y="678" type="line" smooth="yes"/>
      <point x="283" y="696"/>
      <point x="299" y="696" type="qcurve" smooth="yes"/>
      <point x="308" y="696"/>
      <point x="320" y="688" type="qcurve" smooth="yes"/>
      <point x="331" y="680"/>
      <point x="331" y="667" type="qcurve" smooth="yes"/>
      <point x="331" y="653"/>
      <point x="317" y="636" type="qcurve" smooth="yes"/>
      <point x="271" y="582" type="line" smooth="yes"/>
      <point x="253" y="560"/>
      <point x="222" y="560" type="qcurve" smooth="yes"/>
      <point x="202" y="560" type="line" smooth="yes"/>
      <point x="172" y="560"/>
    </contour>
  </outline>
</glyph>
<glyph name="Umacron" format="2">
  <advance width="496"/>
  <unicode hex="016A"/>
  <anchor x="248" y="710" name="top"/>
  <outline>
    <contour>
      <point x="103" y="12" type="qcurve" smooth="yes"/>
      <point x="70" y="45" type="line" smooth="yes"/>
      <point x="50" y="65"/>
      <point x="50" y="94" type="qcurve" smooth="yes"/>
      <point x="50" y="671" type="line" smooth="yes"/>
      <point x="50" y="711"/>
      <point x="90" y="711" type="qcurve" smooth="yes"/>
      <point x="101" y="711" type="line" smooth="yes"/>
      <point x="141" y="711"/>
      <point x="141" y="671" type="qcurve" smooth="yes"/>
      <point x="141" y="123" type="line" smooth="yes"/>
      <point x="141" y="83"/>
      <point x="181" y="83" type="qcurve" smooth="yes"/>
      <point x="315" y="83" type="line" smooth="yes"/>
      <point x="355" y="83"/>
      <point x="355" y="123" type="qcurve" smooth="yes"/>
      <point x="355" y="671" type="line" smooth="yes"/>
      <point x="355" y="711"/>
      <point x="395" y="711" type="qcurve" smooth="yes"/>
      <point x="406" y="711" type="line" smooth="yes"/>
      <point x="446" y="711"/>
      <point x="446" y="671" type="qcurve" smooth="yes"/>
      <point x="446" y="94" type="line"/>
      <point x="447" y="65"/>
      <point x="426" y="44" type="qcurve" smooth="yes"/>
      <point x="394" y="12" type="line" smooth="yes"/>
      <point x="374" y="-8"/>
      <point x="345" y="-8" type="qcurve" smooth="yes"/>
      <point x="152" y="-8" type="line" smooth="yes"/>
      <point x="123" y="-8"/>
    </contour>
    <contour>
      <point x="88" y="822" type="qcurve" smooth="yes"/>
      <point x="88" y="859"/>
      <point x="128" y="859" type="qcurve" smooth="yes"/>
      <point x="368" y="859" type="line" smooth="yes"/>
      <point x="408" y="859"/>
      <point x="408" y="822" type="qcurve" smooth="yes"/>
      <point x="408" y="785"/>
      <point x="368" y="785" type="qcurve" smooth="yes"/>
      <point x="128" y="785" type="line" smooth="yes"/>
      <point x="88" y="785"/>
    </contour>
  </outline>
</glyph>
<glyph name="uhungarumlaut" format="2">
  <advance width="446"/>
  <unicode hex="0171"/>
  <anchor x="223" y="485" name="top"/>
  <outline>
    <contour>
      <point x="113" y="11" type="qcurve" smooth="yes"/>
      <point x="80" y="44" type="line" smooth="yes"/>
      <point x="60" y="64"/>
      <point x="60" y="93" type="qcurve" smooth="yes"/>
      <point x="60" y="445" type="line" smooth="yes"/>
      <point x="60" y="485"/>
      <point x="100" y="485" type="qcurve" smooth="yes"/>
      <point x="111" y="485" type="line" smooth="yes"/>
      <point x="151" y="485"/>
      <point x="151" y="445" type="qcurve" smooth="yes"/>
      <point x="151" y="122" type="line" smooth="yes"/>
      <point x="151" y="82"/>
      <point x="191" y="82" type="qcurve" smooth="yes"/>
      <point x="255" y="82" type="line" smooth="yes"/>
      <point x="295" y="82"/>
      <point x="295" y="122" type="qcurve" smooth="yes"/>
      <point x="295" y="445" type="line" smooth="yes"/>
      <point x="295" y="485"/>
      <point x="335" y="485" type="qcurve" smooth="yes"/>
      <point x="346" y="485" type="line" smooth="yes"/>
      <point x="386" y="485"/>
      <point x="386" y="445" type="qcurve" smooth="yes"/>
      <point x="386" y="93" type="line"/>
      <point x="387" y="64"/>
      <point x="366" y="43" type="qcurve" smooth="yes"/>
      <point x="334" y="11" type="line" smooth="yes"/>
      <point x="314" y="-9"/>
      <point x="285" y="-9" type="qcurve" smooth="yes"/>
      <point x="162" y="-9" type="line" smooth="yes"/>
      <point x="133" y="-9"/>
    </contour>
    <contour>
      <point x="251" y="560" type="line" smooth="yes"/>
      <point x="235" y="560"/>
      <point x="220" y="579"/>
      <point x="226" y="593" type="qcurve" smooth="yes"/>
      <point x="266" y="681" type="line" smooth="yes"/>
      <point x="272" y="695"/>
      <point x="295" y="714"/>
      <point x="312" y="714" type="qcurve" smooth="yes"/>
      <point x="333" y="714" type="line" smooth="yes"/>
      <point x="349" y="714"/>
      <point x="364" y="695"/>
      <point x="358" y="681" type="qcurve" smooth="yes"/>
      <point x="318" y="593" type="line" smooth="yes"/>
      <point x="312" y="579"/>
      <point x="289" y="560"/>
      <point x="272" y="560" type="qcurve" smooth="yes"/>
    </contour>
    <contour>
      <point x="125" y="560" type="line" smooth="yes"/>
      <point x="109" y="560"/>
      <point x="94" y="579"/>
      <point x="100" y="593" type="qcurve" smooth="yes"/>
      <point x="140" y="681" type="line" smooth="yes"/>
      <point x="146" y="695"/>
      <point x="169" y="714"/>
      <point x="186" y="714" type="qcurve" smooth="yes"/>
      <point x="207" y="714" type="line" smooth="yes"/>
      <point x="223" y="714"/>
      <point x="238" y="695"/>
      <point x="232" y="681" type="qcurve" smooth="yes"/>
      <point x="192" y="593" type="line" smooth="yes"/>
      <point x="186" y="579"/>
      <point x="163" y="560"/>
      <point x="146" y="560" type="qcurve" smooth="yes"/>
    </contour>
  </outline>
</glyph>
<glyph name="florin" format="2">
  <advance width="303"/>
  <unicode hex="0192"/>
  <outline>
    <contour>
      <point x="51" y="-120" type="line" smooth="yes"/>
      <point x="11" y="-120"/>
      <point x="11" y="-80" type="qcurve" smooth="yes"/>
      <point x="11" y="-69" type="line" smooth="yes"/>
      <point x="11" y="-29"/>
      <point x="51" y="-29" type="qcurve" smooth="yes"/>
      <point x="62" y="-29" type="line" smooth="yes"/>
      <point x="102" y="-29"/>
      <point x="102" y="11" type="qcurve" smooth="yes"/>
      <point x="102" y="354" type="line" smooth="yes"/>
      <point x="102" y="373"/>
      <point x="83" y="394"/>
      <point x="66" y="394" type="qcurve" smooth="yes"/>
      <point x="49" y="394"/>
      <point x="30" y="415"/>
      <point x="30" y="434" type="qcurve" smooth="yes"/>
      <point x="30" y="445" type="line" smooth="yes"/>
      <point x="30" y="464"/>
      <point x="49" y="485"/>
      <point x="66" y="485" type="qcurve" smooth="yes"/>
      <point x="83" y="485"/>
      <point x="102" y="506"/>
      <point x="102" y="525" type="qcurve" smooth="yes"/>
      <point x="102" y="608" type="line"/>
      <point x="101" y="637"/>
      <point x="122" y="658" type="qcurve" smooth="yes"/>
      <point x="154" y="690" type="line" smooth="yes"/>
      <point x="174" y="710"/>
      <point x="203" y="710" type="qcurve" smooth="yes"/>
      <point x="243" y="710" type="line" smooth="yes"/>
      <point x="283" y="710"/>
      <point x="283" y="670" type="qcurve" smooth="yes"/>
      <point x="283" y="659" type="line" smooth="yes"/>
      <point x="283" y="619"/>
      <point x="243" y="619" type="qcurve" smooth="yes"/>
      <point x="232" y="619" type="line" smooth="yes"/>
      <point x="192" y="619"/>
      <point x="192" y="579" type="qcurve" smooth="yes"/>
      <point x="192" y="525" type="line" smooth="yes"/>
      <point x="192" y="485"/>
      <point x="232" y="485" type="qcurve" smooth="yes"/>
      <point x="243" y="485" type="line" smooth="yes"/>
      <point x="283" y="485"/>
      <point x="283" y="445" type="qcurve" smooth="yes"/>
      <point x="283" y="434" type="line" smooth="yes"/>
      <point x="283" y="394"/>
      <point x="243" y="394" type="qcurve" smooth="yes"/>
      <point x="232" y="394" type="line" smooth="yes"/>
      <point x="192" y="394"/>
      <point x="192" y="354" type="qcurve" smooth="yes"/>
      <point x="192" y="-18" type="line"/>
      <point x="193" y="-47"/>
      <point x="172" y="-68" type="qcurve" smooth="yes"/>
      <point x="140" y="-100" type="line" smooth="yes"/>
      <point x="120" y="-120"/>
      <point x="91" y="-120" type="qcurve" smooth="yes"/>
    </contour>
  </outline>
</glyph>
<glyph name="icaron" format="2">
  <advance width="232"/>
  <unicode hex="01D0"/>
  <anchor x="115" y="485" name="top"/>
  <outline>
    <contour>
      <point x="110" y="-9" type="line" smooth="yes"/>
      <point x="70" y="-9"/>
      <point x="70" y="31" type="qcurve" smooth="yes"/>
      <point x="70" y="445" type="line" smooth="yes"/>
      <point x="70" y="485"/>
      <point x="110" y="485" type="qcurve" smooth="yes"/>
      <point x="120" y="485" type="line" smooth="yes"/>
      <point x="160" y="485"/>
      <point x="160" y="445" type="qcurve" smooth="yes"/>
      <point x="160" y="31" type="line" smooth="yes"/>
      <point x="160" y="-9"/>
      <point x="120" y="-9" type="qcurve" smooth="yes"/>
    </contour>
    <contour>
      <point x="55" y="584" type="qcurve" smooth="yes"/>
      <point x="14" y="636" type="line" smooth="yes"/>
      <point x="2" y="651"/>
      <point x="2" y="666" type="qcurve" smooth="yes"/>
      <point x="2" y="680"/>
      <point x="13" y="688" type="qcurve" smooth="yes"/>
      <point x="23" y="695"/>
      <point x="33" y="695" type="qcurve" smooth="yes"/>
      <point x="49" y="695"/>
      <point x="64" y="676" type="qcurve" smooth="yes"/>
      <point x="85" y="650" type="line" smooth="yes"/>
      <point x="104" y="627"/>
      <point x="115" y="627" type="qcurve" smooth="yes"/>
      <point x="124" y="627"/>
      <point x="145" y="649" type="qcurve"/>
      <point x="170" y="678" type="line" smooth="yes"/>
      <point x="185" y="696"/>
      <point x="201" y="696" type="qcurve" smooth="yes"/>
      <point x="210" y="696"/>
      <point x="222" y="688" type="qcurve" smooth="yes"/>
      <point x="233" y="680"/>
      <point x="233" y="667" type="qcurve" smooth="yes"/>
      <point x="233" y="653"/>
      <point x="219" y="636" type="qcurve" smooth="yes"/>
      <point x="173" y="582" type="line" smooth="yes"/>
      <point x="155" y="560"/>
      <point x="124" y="560" type="qcurve" smooth="yes"/>
      <point x="104" y="560" type="line" smooth="yes"/>
      <point x="74" y="560"/>
    </contour>
  </outline>
</glyph>
<glyph name="ocaron" format="2">
  <advance width="427"/>
  <unicode hex="01D2"/>
  <anchor x="409" y="525" name="Odot"/>
  <anchor x="214" y="485" name="top"/>
  <outline>
    <contour>
      <point x="103" y="11" type="qcurve" smooth="yes"/>
      <point x="70" y="44" type="line" smooth="yes"/>
      <point x="50" y="64"/>
      <point x="50" y="93" type="qcurve" smooth="yes"/>
      <point x="50" y="383" type="line" smooth="yes"/>
      <point x="50" y="412"/>
      <point x="70" y="432" type="qcurve" smooth="yes"/>
      <point x="103" y="465" type="line" smooth="yes"/>
      <point x="123" y="485"/>
      <point x="152" y="485" type="qcurve" smooth="yes"/>
      <point x="276" y="485" type="line" smooth="yes"/>
      <point x="305" y="485"/>
      <point x="325" y="465" type="qcurve" smooth="yes"/>
      <point x="357" y="433" type="line" smooth="yes"/>
      <point x="377" y="412"/>
      <point x="377" y="383" type="qcurve" smooth="yes"/>
      <point x="377" y="93" type="line"/>
      <point x="378" y="64"/>
      <point x="357" y="43" type="qcurve" smooth="yes"/>
      <point x="325" y="11" type="line" smooth="yes"/>
      <point x="305" y="-9"/>
      <point x="276" y="-9" type="qcurve" smooth="yes"/>
      <point x="152" y="-9" type="line" smooth="yes"/>
      <point x="123" y="-9"/>
    </contour>
    <contour>
      <point x="141" y="122" type="line" smooth="yes"/>
      <point x="141" y="82"/>
      <point x="181" y="82" type="qcurve" smooth="yes"/>
      <point x="246" y="82" type="line" smooth="yes"/>
      <point x="286" y="82"/>
      <point x="286" y="122" type="qcurve" smooth="yes"/>
      <point x="286" y="354" type="line" smooth="yes"/>
      <point x="286" y="394"/>
      <point x="246" y="394" type="qcurve" smooth="yes"/>
      <point x="181" y="394" type="line" smooth="yes"/>
      <point x="141" y="394"/>
      <point x="141" y="354" type="qcurve" smooth="yes"/>
    </contour>
    <contour>
      <point x="154" y="584" type="qcurve" smooth="yes"/>
      <point x="113" y="636" type="line" smooth="yes"/>
      <point x="101" y="651"/>
      <point x="101" y="666" type="qcurve" smooth="yes"/>
      <point x="101" y="680"/>
      <point x="112" y="688" type="qcurve" smooth="yes"/>
      <point x="122" y="695"/>
      <point x="132" y="695" type="qcurve" smooth="yes"/>
      <point x="148" y="695"/>
      <point x="163" y="676" type="qcurve" smooth="yes"/>
      <point x="184" y="650" type="line" smooth="yes"/>
      <point x="203" y="627"/>
      <point x="214" y="627" type="qcurve" smooth="yes"/>
      <point x="223" y="627"/>
      <point x="244" y="649" type="qcurve"/>
      <point x="269" y="678" type="line" smooth="yes"/>
      <point x="284" y="696"/>
      <point x="300" y="696" type="qcurve" smooth="yes"/>
      <point x="309" y="696"/>
      <point x="321" y="688" type="qcurve" smooth="yes"/>
      <point x="332" y="680"/>
      <point x="332" y="667" type="qcurve" smooth="yes"/>
      <point x="332" y="653"/>
      <point x="318" y="636" type="qcurve" smooth="yes"/>
      <point x="272" y="582" type="line" smooth="yes"/>
      <point x="254" y="560"/>
      <point x="223" y="560" type="qcurve" smooth="yes"/>
      <point x="203" y="560" type="line" smooth="yes"/>
      <point x="173" y="560"/>
    </contour>
  </outline>
</glyph>
<glyph name="Ucaron" format="2">
  <advance width="496"/>
  <unicode hex="01D3"/>
  <anchor x="248" y="710" name="top"/>
  <outline>
    <contour>
      <point x="103" y="12" type="qcurve" smooth="yes"/>
      <point x="70" y="45" type="line" smooth="yes"/>
      <point x="50" y="65"/>
      <point x="50" y="94" type="qcurve" smooth="yes"/>
      <point x="50" y="671" type="line" smooth="yes"/>
      <point x="50" y="711"/>
      <point x="90" y="711" type="qcurve" smooth="yes"/>
      <point x="101" y="711" type="line" smooth="yes"/>
      <point x="141" y="711"/>
      <point x="141" y="671" type="qcurve" smooth="yes"/>
      <point x="141" y="123" type="line" smooth="yes"/>
      <point x="141" y="83"/>
      <point x="181" y="83" type="qcurve" smooth="yes"/>
      <point x="315" y="83" type="line" smooth="yes"/>
      <point x="355" y="83"/>
      <point x="355" y="123" type="qcurve" smooth="yes"/>
      <point x="355" y="671" type="line" smooth="yes"/>
      <point x="355" y="711"/>
      <point x="395" y="711" type="qcurve" smooth="yes"/>
      <point x="406" y="711" type="line" smooth="yes"/>
      <point x="446" y="711"/>
      <point x="446" y="671" type="qcurve" smooth="yes"/>
      <point x="446" y="94" type="line"/>
      <point x="447" y="65"/>
      <point x="426" y="44" type="qcurve" smooth="yes"/>
      <point x="394" y="12" type="line" smooth="yes"/>
      <point x="374" y="-8"/>
      <point x="345" y="-8" type="qcurve" smooth="yes"/>
      <point x="152" y="-8" type="line" smooth="yes"/>
      <point x="123" y="-8"/>
    </contour>
    <contour>
      <point x="188" y="809" type="qcurve" smooth="yes"/>
      <point x="147" y="861" type="line" smooth="yes"/>
      <point x="135" y="876"/>
      <point x="135" y="891" type="qcurve" smooth="yes"/>
      <point x="135" y="905"/>
      <point x="146" y="913" type="qcurve" smooth="yes"/>
      <point x="156" y="920"/>
      <point x="166" y="920" type="qcurve" smooth="yes"/>
      <point x="182" y="920"/>
      <point x="197" y="901" type="qcurve" smooth="yes"/>
      <point x="218" y="875" type="line" smooth="yes"/>
      <point x="237" y="852"/>
      <point x="248" y="852" type="qcurve" smooth="yes"/>
      <point x="257" y="852"/>
      <point x="278" y="874" type="qcurve"/>
      <point x="303" y="903" type="line" smooth="yes"/>
      <point x="318" y="921"/>
      <point x="334" y="921" type="qcurve" smooth="yes"/>
      <point x="343" y="921"/>
      <point x="355" y="913" type="qcurve" smooth="yes"/>
      <point x="366" y="905"/>
      <point x="366" y="892" type="qcurve" smooth="yes"/>
      <point x="366" y="878"/>
      <point x="352" y="861" type="qcurve" smooth="yes"/>
      <point x="306" y="807" type="line" smooth="yes"/>
      <point x="288" y="785"/>
      <point x="257" y="785" type="qcurve" smooth="yes"/>
      <point x="237" y="785" type="line" smooth="yes"/>
      <point x="207" y="785"/>
    </contour>
  </outline>
</glyph>
<glyph name="udieresiscaron" format="2">
  <advance width="446"/>
  <unicode hex="01DA"/>
  <anchor x="223" y="636" name="top"/>
  <outline>
    <contour>
      <point x="113" y="11" type="qcurve" smooth="yes"/>
      <point x="80" y="44" type="line" smooth="yes"/>
      <point x="60" y="64"/>
      <point x="60" y="93" type="qcurve" smooth="yes"/>
      <point x="60" y="445" type="line" smooth="yes"/>
      <point x="60" y="485"/>
      <point x="100" y="485" type="qcurve" smooth="yes"/>
      <point x="111" y="485" type="line" smooth="yes"/>
      <point x="151" y="485"/>
      <point x="151" y="445" type="qcurve" smooth="yes"/>
      <point x="151" y="122" type="line" smooth="yes"/>
      <point x="151" y="82"/>
      <point x="191" y="82" type="qcurve" smooth="yes"/>
      <point x="255" y="82" type="line" smooth="yes"/>
      <point x="295" y="82"/>
      <point x="295" y="122" type="qcurve" smooth="yes"/>
      <point x="295" y="445" type="line" smooth="yes"/>
      <point x="295" y="485"/>
      <point x="335" y="485" type="qcurve" smooth="yes"/>
      <point x="346" y="485" type="line" smooth="yes"/>
      <point x="386" y="485"/>
      <point x="386" y="445" type="qcurve" smooth="yes"/>
      <point x="386" y="93" type="line"/>
      <point x="387" y="64"/>
      <point x="366" y="43" type="qcurve" smooth="yes"/>
      <point x="334" y="11" type="line" smooth="yes"/>
      <point x="314" y="-9"/>
      <point x="285" y="-9" type="qcurve" smooth="yes"/>
      <point x="162" y="-9" type="line" smooth="yes"/>
      <point x="133" y="-9"/>
    </contour>
    <contour>
      <point x="142" y="560" type="qcurve" smooth="yes"/>
      <point x="119" y="560"/>
      <point x="92" y="590"/>
      <point x="92" y="610" type="qcurve" smooth="yes"/>
      <point x="92" y="630"/>
      <point x="121" y="659"/>
      <point x="142" y="659" type="qcurve" smooth="yes"/>
      <point x="164" y="659"/>
      <point x="192" y="628"/>
      <point x="192" y="610" type="qcurve" smooth="yes"/>
      <point x="192" y="591"/>
      <point x="163" y="560"/>
    </contour>
    <contour>
      <point x="305" y="560" type="qcurve" smooth="yes"/>
      <point x="283" y="560"/>
      <point x="256" y="591"/>
      <point x="256" y="610" type="qcurve" smooth="yes"/>
      <point x="256" y="630"/>
      <point x="284" y="659"/>
      <point x="305" y="659" type="qcurve" smooth="yes"/>
      <point x="327" y="659"/>
      <point x="355" y="628"/>
      <point x="355" y="610" type="qcurve" smooth="yes"/>
      <point x="355" y="591"/>
      <point x="326" y="560"/>
    </contour>
    <contour>
      <point x="163" y="735" type="qcurve" smooth="yes"/>
      <point x="122" y="787" type="line" smooth="yes"/>
      <point x="110" y="802"/>
      <point x="110" y="817" type="qcurve" smooth="yes"/>
      <point x="110" y="831"/>
      <point x="121" y="839" type="qcurve" smooth="yes"/>
      <point x="131" y="846"/>
      <point x="141" y="846" type="qcurve" smooth="yes"/>
      <point x="157" y="846"/>
      <point x="172" y="827" type="qcurve" smooth="yes"/>
      <point x="193" y="801" type="line" smooth="yes"/>
      <point x="212" y="778"/>
      <point x="223" y="778" type="qcurve" smooth="yes"/>
      <point x="232" y="778"/>
      <point x="253" y="800" type="qcurve"/>
      <point x="278" y="829" type="line" smooth="yes"/>
      <point x="293" y="847"/>
      <point x="309" y="847" type="qcurve" smooth="yes"/>
      <point x="318" y="847"/>
      <point x="330" y="839" type="qcurve" smooth="yes"/>
      <point x="341" y="831"/>
      <point x="341" y="818" type="qcurve" smooth="yes"/>
      <point x="341" y="804"/>
      <point x="327" y="787" type="qcurve" smooth="yes"/>
      <point x="281" y="733" type="line" smooth="yes"/>
      <point x="263" y="711"/>
      <point x="232" y="711" type="qcurve" smooth="yes"/>
      <point x="212" y="711" type="line" smooth="yes"/>
      <point x="182" y="711"/>
    </contour>
  </outline>
</glyph>
<glyph name="Udieresisgrave" format="2">
  <advance width="496"/>
  <unicode hex="01DB"/>
  <anchor x="248" y="861" name="top"/>
  <outline>
    <contour>
      <point x="103" y="12" type="qcurve" smooth="yes"/>
      <point x="70" y="45" type="line" smooth="yes"/>
      <point x="50" y="65"/>
      <point x="50" y="94" type="qcurve" smooth="yes"/>
      <point x="50" y="671" type="line" smooth="yes"/>
      <point x="50" y="711"/>
      <point x="90" y="711" type="qcurve" smooth="yes"/>
      <point x="101" y="711" type="line" smooth="yes"/>
      <point x="141" y="711"/>
      <point x="141" y="671" type="qcurve" smooth="yes"/>
      <point x="141" y="123" type="line" smooth="yes"/>
      <point x="141" y="83"/>
      <point x="181" y="83" type="qcurve" smooth="yes"/>
      <point x="315" y="83" type="line" smooth="yes"/>
      <point x="355" y="83"/>
      <point x="355" y="123" type="qcurve" smooth="yes"/>
      <point x="355" y="671" type="line" smooth="yes"/>
      <point x="355" y="711"/>
      <point x="395" y="711" type="qcurve" smooth="yes"/>
      <point x="406" y="711" type="line" smooth="yes"/>
      <point x="446" y="711"/>
      <point x="446" y="671" type="qcurve" smooth="yes"/>
      <point x="446" y="94" type="line"/>
      <point x="447" y="65"/>
      <point x="426" y="44" type="qcurve" smooth="yes"/>
      <point x="394" y="12" type="line" smooth="yes"/>
      <point x="374" y="-8"/>
      <point x="345" y="-8" type="qcurve" smooth="yes"/>
      <point x="152" y="-8" type="line" smooth="yes"/>
      <point x="123" y="-8"/>
    </contour>
    <contour>
      <point x="167" y="785" type="qcurve" smooth="yes"/>
      <point x="144" y="785"/>
      <point x="117" y="815"/>
      <point x="117" y="835" type="qcurve" smooth="yes"/>
      <point x="117" y="855"/>
      <point x="146" y="884"/>
      <point x="167" y="884" type="qcurve" smooth="yes"/>
      <point x="189" y="884"/>
      <point x="217" y="853"/>
      <point x="217" y="835" type="qcurve" smooth="yes"/>
      <point x="217" y="816"/>
      <point x="188" y="785"/>
    </contour>
    <contour>
      <point x="330" y="785" type="qcurve" smooth="yes"/>
      <point x="308" y="785"/>
      <point x="281" y="816"/>
      <point x="281" y="835" type="qcurve" smooth="yes"/>
      <point x="281" y="855"/>
      <point x="309" y="884"/>
      <point x="330" y="884" type="qcurve" smooth="yes"/>
      <point x="352" y="884"/>
      <point x="380" y="853"/>
      <point x="380" y="835" type="qcurve" smooth="yes"/>
      <point x="380" y="816"/>
      <point x="351" y="785"/>
    </contour>
    <contour>
      <point x="201" y="981" type="qcurve" smooth="yes"/>
      <point x="161" y="1069" type="line" smooth="yes"/>
      <point x="155" y="1083"/>
      <point x="170" y="1102"/>
      <point x="186" y="1102" type="qcurve" smooth="yes"/>
      <point x="207" y="1102" type="line" smooth="yes"/>
      <point x="224" y="1102"/>
      <point x="247" y="1083"/>
      <point x="253" y="1069" type="qcurve" smooth="yes"/>
      <point x="293" y="981" type="line" smooth="yes"/>
      <point x="299" y="967"/>
      <point x="284" y="948"/>
      <point x="268" y="948" type="qcurve" smooth="yes"/>
      <point x="247" y="948" type="line" smooth="yes"/>
      <point x="230" y="948"/>
      <point x="207" y="967"/>
    </contour>
  </outline>
</glyph>
<glyph name="ngrave" format="2">
  <advance width="447"/>
  <unicode hex="01F9"/>
  <anchor x="224" y="485" name="top"/>
  <outline>
    <contour>
      <point x="100" y="-10" type="line" smooth="yes"/>
      <point x="60" y="-10"/>
      <point x="60" y="30" type="qcurve" smooth="yes"/>
      <point x="60" y="383" type="line" smooth="yes"/>
      <point x="60" y="412"/>
      <point x="80" y="432" type="qcurve" smooth="yes"/>
      <point x="113" y="465" type="line" smooth="yes"/>
      <point x="133" y="485"/>
      <point x="162" y="485" type="qcurve" smooth="yes"/>
      <point x="286" y="485" type="line" smooth="yes"/>
      <point x="314" y="485"/>
      <point x="335" y="464" type="qcurve" smooth="yes"/>
      <point x="367" y="432" type="line" smooth="yes"/>
      <point x="387" y="412"/>
      <point x="387" y="383" type="qcurve" smooth="yes"/>
      <point x="387" y="30" type="line" smooth="yes"/>
      <point x="387" y="-10"/>
      <point x="347" y="-10" type="qcurve" smooth="yes"/>
      <point x="337" y="-10" type="line" smooth="yes"/>
      <point x="297" y="-10"/>
      <point x="297" y="30" type="qcurve" smooth="yes"/>
      <point x="297" y="354" type="line" smooth="yes"/>
      <point x="297" y="394"/>
      <point x="257" y="394" type="qcurve" smooth="yes"/>
      <point x="191" y="394" type="line" smooth="yes"/>
      <point x="151" y="394"/>
      <point x="151" y="354" type="qcurve" smooth="yes"/>
      <point x="151" y="30" type="line" smooth="yes"/>
      <point x="151" y="-10"/>
      <point x="111" y="-10" type="qcurve" smooth="yes"/>
    </contour>
    <contour>
      <point x="177" y="605" type="qcurve" smooth="yes"/>
      <point x="137" y="693" type="line" smooth="yes"/>
      <point x="131" y="707"/>
      <point x="146" y="726"/>
      <point x="162" y="726" type="qcurve" smooth="yes"/>
      <point x="183" y="726" type="line" smooth="yes"/>
      <point x="200" y="726"/>
      <point x="223" y="707"/>
      <point x="229" y="693" type="qcurve" smooth="yes"/>
      <point x="269" y="605" type="line" smooth="yes"/>
      <point x="275" y="591"/>
      <point x="260" y="572"/>
      <point x="244" y="572" type="qcurve" smooth="yes"/>
      <point x="223" y="572" type="line" smooth="yes"/>
      <point x="206" y="572"/>
      <point x="183" y="591"/>
    </contour>
  </outline>
</glyph>
<glyph name="odotmacron" format="2">
  <advance width="427"/>
  <unicode hex="0231"/>
  <anchor x="409" y="525" name="Odot"/>
  <anchor x="214" y="485" name="top"/>
  <outline>
    <contour>
      <point x="103" y="11" type="qcurve" smooth="yes"/>
      <point x="70" y="44" type="line" smooth="yes"/>
      <point x="50" y="64"/>
      <point x="50" y="93" type="qcurve" smooth="yes"/>
      <point x="50" y="383" type="line" smooth="yes"/>
      <point x="50" y="412"/>
      <point x="70" y="432" type="qcurve" smooth="yes"/>
      <point x="103" y="465" type="line" smooth="yes"/>
      <point x="123" y="485"/>
      <point x="152" y="485" type="qcurve" smooth="yes"/>
      <point x="276" y="485" type="line" smooth="yes"/>
      <point x="305" y="485"/>
      <point x="325" y="465" type="qcurve" smooth="yes"/>
      <point x="357" y="433" type="line" smooth="yes"/>
      <point x="377" y="412"/>
      <point x="377" y="383" type="qcurve" smooth="yes"/>
      <point x="377" y="93" type="line"/>
      <point x="378" y="64"/>
      <point x="357" y="43" type="qcurve" smooth="yes"/>
      <point x="325" y="11" type="line" smooth="yes"/>
      <point x="305" y="-9"/>
      <point x="276" y="-9" type="qcurve" smooth="yes"/>
      <point x="152" y="-9" type="line" smooth="yes"/>
      <point x="123" y="-9"/>
    </contour>
    <contour>
      <point x="141" y="122" type="line" smooth="yes"/>
      <point x="141" y="82"/>
      <point x="181" y="82" type="qcurve" smooth="yes"/>
      <point x="246" y="82" type="line" smooth="yes"/>
      <point x="286" y="82"/>
      <point x="286" y="122" type="qcurve" smooth="yes"/>
      <point x="286" y="354" type="line" smooth="yes"/>
      <point x="286" y="394"/>
      <point x="246" y="394" type="qcurve" smooth="yes"/>
      <point x="181" y="394" type="line" smooth="yes"/>
      <point x="141" y="394"/>
      <point x="141" y="354" type="qcurve" smooth="yes"/>
    </contour>
    <contour>
      <point x="54" y="597" type="qcurve" smooth="yes"/>
      <point x="54" y="634"/>
      <point x="94" y="634" type="qcurve" smooth="yes"/>
      <point x="334" y="634" type="line" smooth="yes"/>
      <point x="374" y="634"/>
      <point x="374" y="597" type="qcurve" smooth="yes"/>
      <point x="374" y="560"/>
      <point x="334" y="560" type="qcurve" smooth="yes"/>
      <point x="94" y="560" type="line" smooth="yes"/>
      <point x="54" y="560"/>
    </contour>
    <contour>
      <point x="408" y="454" type="qcurve" smooth="yes"/>
      <point x="386" y="454"/>
      <point x="359" y="485"/>
      <point x="359" y="504" type="qcurve" smooth="yes"/>
      <point x="359" y="524"/>
      <point x="387" y="553"/>
      <point x="408" y="553" type="qcurve" smooth="yes"/>
      <point x="431" y="553"/>
      <point x="459" y="522"/>
      <point x="459" y="504" type="qcurve" smooth="yes"/>
      <point x="459" y="485"/>
      <point x="430" y="454"/>
    </contour>
  </outline>
</glyph>
<glyph name="circumflex" format="2">
  <advance width="196"/>
  <unicode hex="02C6"/>
  <outline>
    <contour>
      <point x="0" y="626" type="qcurve" smooth="yes"/>
      <point x="0" y="639"/>
      <point x="10" y="655" type="qcurve" smooth="yes"/>
      <point x="69" y="749" type="line" smooth="yes"/>
      <point x="81" y="769"/>
      <point x="97" y="769" type="qcurve" smooth="yes"/>
      <point x="113" y="769"/>
      <point x="125" y="749" type="qcurve"/>
      <point x="185" y="655" type="line"/>
      <point x="196" y="639"/>
      <point x="196" y="623" type="qcurve" smooth="yes"/>
      <point x="196" y="607"/>
      <point x="180" y="607" type="qcurve" smooth="yes"/>
      <point x="176" y="607" type="line" smooth="yes"/>
      <point x="144" y="607"/>
      <point x="128" y="634" type="qcurve" smooth="yes"/>
      <point x="125" y="639" type="line" smooth="yes"/>
      <point x="111" y="663"/>
      <point x="95" y="663" type="qcurve" smooth="yes"/>
      <point x="84" y="663"/>
      <point x="75" y="648" type="qcurve"/>
      <point x="68" y="635" type="line" smooth="yes"/>
      <point x="53" y="607"/>
      <point x="20" y="607" type="qcurve" smooth="yes"/>
      <point x="0" y="607"/>
    </contour>
  </outline>
</glyph>
<glyph name="caron" format="2">
  <advance width="460"/>
  <unicode hex="02C7"/>
  <outline>
    <contour>
      <point x="148" y="558" type="qcurve" smooth="yes"/>
      <point x="81" y="642" type="line" smooth="yes"/>
      <point x="70" y="656"/>
      <point x="72" y="686"/>
      <point x="86" y="697" type="qcurve" smooth="yes"/>
      <point x="100" y="709"/>
      <point x="129" y="707"/>
      <point x="140" y="694" type="qcurve" smooth="yes"/>
      <point x="204" y="618" type="line" smooth="yes"/>
      <point x="208" y="613"/>
      <point x="221" y="607"/>
      <point x="227" y="607" type="qcurve" smooth="yes"/>
      <point x="243" y="607"/>
      <point x="251" y="618" type="qcurve"/>
      <point x="315" y="694" type="line" smooth="yes"/>
      <point x="326" y="707"/>
      <point x="355" y="709"/>
      <point x="369" y="698" type="qcurve" smooth="yes"/>
      <point x="383" y="686"/>
      <point x="385" y="656"/>
      <point x="374" y="642" type="qcurve" smooth="yes"/>
      <point x="307" y="558" type="line" smooth="yes"/>
      <point x="296" y="544"/>
      <point x="260" y="527"/>
      <point x="242" y="527" type="qcurve" smooth="yes"/>
      <point x="213" y="527" type="line" smooth="yes"/>
      <point x="195" y="527"/>
      <point x="159" y="544"/>
    </contour>
  </outline>
</glyph>
<glyph name="verticallinemod" format="2">
  <advance width="115"/>
  <unicode hex="02C8"/>
  <outline>
    <contour>
      <point x="23" y="650" type="qcurve" smooth="yes"/>
      <point x="21" y="779" type="line" smooth="yes"/>
      <point x="21" y="795"/>
      <point x="40" y="814"/>
      <point x="56" y="814" type="qcurve" smooth="yes"/>
      <point x="60" y="814" type="line" smooth="yes"/>
      <point x="76" y="814"/>
      <point x="95" y="795"/>
      <point x="95" y="779" type="qcurve" smooth="yes"/>
      <point x="93" y="650" type="line" smooth="yes"/>
      <point x="93" y="634"/>
      <point x="74" y="615"/>
      <point x="58" y="615" type="qcurve" smooth="yes"/>
      <point x="42" y="615"/>
      <point x="23" y="634"/>
    </contour>
  </outline>
</glyph>
<glyph name="gravemod" format="2">
  <advance width="460"/>
  <unicode hex="02CB"/>
  <outline>
    <contour>
      <point x="117" y="660" type="line" smooth="yes"/>
      <point x="101" y="678"/>
      <point x="103" y="700"/>
      <point x="121" y="716" type="curve" smooth="yes"/>
      <point x="127" y="720" type="line" smooth="yes"/>
      <point x="145" y="736"/>
      <point x="167" y="734"/>
      <point x="182" y="715" type="curve" smooth="yes"/>
      <point x="337" y="524" type="line" smooth="yes"/>
      <point x="352" y="506"/>
      <point x="350" y="483"/>
      <point x="332" y="468" type="curve" smooth="yes"/>
      <point x="314" y="452"/>
      <point x="292" y="454"/>
      <point x="277" y="472" type="curve" smooth="yes"/>
    </contour>
  </outline>
</glyph>
<glyph name="tilde" format="2">
  <advance width="496"/>
  <unicode hex="02DC"/>
  <anchor x="248" y="615" name="_top"/>
  <outline>
    <contour>
      <point x="385" y="723" type="line"/>
      <point x="408" y="741" type="line"/>
      <point x="430" y="759"/>
      <point x="435" y="771" type="qcurve" smooth="yes"/>
      <point x="438" y="777"/>
      <point x="456" y="778"/>
      <point x="469" y="772" type="qcurve" smooth="yes"/>
      <point x="498" y="759"/>
      <point x="488" y="738" type="qcurve" smooth="yes"/>
      <point x="480" y="719"/>
      <point x="458" y="701" type="qcurve" smooth="yes"/>
      <point x="433" y="681" type="line" smooth="yes"/>
      <point x="413" y="665"/>
      <point x="397" y="662" type="qcurve" smooth="yes"/>
      <point x="380" y="659"/>
      <point x="359" y="661" type="qcurve" smooth="yes"/>
      <point x="324" y="664" type="line" smooth="yes"/>
      <point x="299" y="666"/>
      <point x="275" y="677" type="qcurve" smooth="yes"/>
      <point x="218" y="702" type="line" smooth="yes"/>
      <point x="194" y="713"/>
      <point x="170" y="716" type="qcurve"/>
      <point x="156" y="717" type="line"/>
      <point x="130" y="720"/>
      <point x="122" y="718" type="qcurve" smooth="yes"/>
      <point x="110" y="714"/>
      <point x="92" y="700" type="qcurve"/>
      <point x="90" y="698" type="line"/>
      <point x="69" y="680"/>
      <point x="61" y="664" type="qcurve" smooth="yes"/>
      <point x="53" y="646"/>
      <point x="25" y="660" type="qcurve" smooth="yes"/>
      <point x="12" y="666"/>
      <point x="3" y="686"/>
      <point x="8" y="697" type="qcurve" smooth="yes"/>
      <point x="19" y="721"/>
      <point x="39" y="737" type="qcurve" smooth="yes"/>
      <point x="64" y="758" type="line" smooth="yes"/>
      <point x="82" y="773"/>
      <point x="104" y="778" type="qcurve"/>
      <point x="120" y="782"/>
      <point x="148" y="780" type="qcurve" smooth="yes"/>
      <point x="182" y="777" type="line" smooth="yes"/>
      <point x="207" y="775"/>
      <point x="230" y="764" type="qcurve"/>
      <point x="287" y="738" type="line"/>
      <point x="311" y="728"/>
      <point x="335" y="725" type="qcurve" smooth="yes"/>
      <point x="350" y="723" type="line" smooth="yes"/>
      <point x="376" y="720"/>
      <point x="380" y="722" type="qcurve"/>
    </contour>
  </outline>
</glyph>
<glyph name="ringcomb" format="2">
  <unicode hex="030A"/>
  <anchor x="-141" y="546" name="_top"/>
  <outline>
    <contour>
      <point x="-235" y="665" type="qcurve" smooth="yes"/>
      <point x="-250" y="691" type="line" smooth="yes"/>
      <point x="-262" y="712"/>
      <point x="-262" y="737" type="qcurve"/>
      <point x="-262" y="739" type="line"/>
      <point x="-262" y="765"/>
      <point x="-249" y="786" type="qcurve"/>
      <point x="-234" y="811" type="line"/>
      <point x="-222" y="834"/>
      <point x="-201" y="845" type="qcurve" smooth="yes"/>
      <point x="-181" y="856"/>
      <point x="-156" y="856" type="qcurve" smooth="yes"/>
      <point x="-126" y="856" type="line" smooth="yes"/>
      <point x="-100" y="856"/>
      <point x="-80" y="845" type="qcurve" smooth="yes"/>
      <point x="-59" y="832"/>
      <point x="-47" y="811" type="qcurve"/>
      <point x="-33" y="786" type="line" smooth="yes"/>
      <point x="-20" y="765"/>
      <point x="-20" y="739" type="qcurve"/>
      <point x="-20" y="737" type="line"/>
      <point x="-20" y="712"/>
      <point x="-33" y="691" type="qcurve" smooth="yes"/>
      <point x="-47" y="665" type="line" smooth="yes"/>
      <point x="-61" y="643"/>
      <point x="-80" y="632" type="qcurve" smooth="yes"/>
      <point x="-100" y="621"/>
      <point x="-125" y="621" type="qcurve" smooth="yes"/>
      <point x="-156" y="621" type="line" smooth="yes"/>
      <point x="-181" y="621"/>
      <point x="-201" y="632" type="qcurve"/>
      <point x="-221" y="642"/>
    </contour>
    <contour>
      <point x="-172" y="684" type="qcurve" smooth="yes"/>
      <point x="-165" y="679"/>
      <point x="-141" y="679" type="qcurve" smooth="yes"/>
      <point x="-117" y="679"/>
      <point x="-109" y="684" type="qcurve" smooth="yes"/>
      <point x="-102" y="689"/>
      <point x="-91" y="708" type="qcurve" smooth="yes"/>
      <point x="-78" y="729"/>
      <point x="-78" y="738" type="qcurve" smooth="yes"/>
      <point x="-78" y="748"/>
      <point x="-91" y="769" type="qcurve" smooth="yes"/>
      <point x="-102" y="789"/>
      <point x="-109" y="794" type="qcurve" smooth="yes"/>
      <point x="-116" y="797"/>
      <point x="-141" y="797" type="qcurve" smooth="yes"/>
      <point x="-166" y="797"/>
      <point x="-172" y="794" type="qcurve" smooth="yes"/>
      <point x="-180" y="789"/>
      <point x="-191" y="769" type="qcurve" smooth="yes"/>
      <point x="-203" y="748"/>
      <point x="-203" y="738" type="qcurve" smooth="yes"/>
      <point x="-203" y="729"/>
      <point x="-191" y="708" type="qcurve" smooth="yes"/>
      <point x="-180" y="688"/>
    </contour>
  </outline>
</glyph>
<glyph name="dotaboverightcomb" format="2">
  <unicode hex="0358"/>
  <anchor x="-61" y="698" name="_Odot"/>
  <anchor x="-142" y="573" name="_top"/>
  <outline>
    <contour>
      <point x="-61" y="648" type="qcurve" smooth="yes"/>
      <point x="-83" y="648"/>
      <point x="-110" y="679"/>
      <point x="-110" y="698" type="qcurve" smooth="yes"/>
      <point x="-110" y="718"/>
      <point x="-82" y="747"/>
      <point x="-61" y="747" type="qcurve" smooth="yes"/>
      <point x="-38" y="747"/>
      <point x="-10" y="716"/>
      <point x="-10" y="698" type="qcurve" smooth="yes"/>
      <point x="-10" y="679"/>
      <point x="-39" y="648"/>
    </contour>
  </outline>
</glyph>
<glyph name="macute" format="2">
  <advance width="592"/>
  <unicode hex="1E3F"/>
  <anchor x="296" y="485" name="top"/>
  <outline>
    <contour>
      <point x="100" y="-8" type="line" smooth="yes"/>
      <point x="60" y="-8"/>
      <point x="60" y="32" type="qcurve" smooth="yes"/>
      <point x="60" y="383" type="line" smooth="yes"/>
      <point x="60" y="413"/>
      <point x="80" y="433" type="qcurve" smooth="yes"/>
      <point x="112" y="465" type="line" smooth="yes"/>
      <point x="132" y="485"/>
      <point x="161" y="485" type="qcurve" smooth="yes"/>
      <point x="224" y="485" type="line" smooth="yes"/>
      <point x="239" y="485"/>
      <point x="262" y="475"/>
      <point x="273" y="464" type="qcurve" smooth="yes"/>
      <point x="286" y="451"/>
      <point x="299" y="451" type="qcurve" smooth="yes"/>
      <point x="310" y="451"/>
      <point x="321" y="462" type="qcurve" smooth="yes"/>
      <point x="323" y="464" type="line" smooth="yes"/>
      <point x="334" y="475"/>
      <point x="357" y="485"/>
      <point x="372" y="485" type="qcurve" smooth="yes"/>
      <point x="431" y="485" type="line" smooth="yes"/>
      <point x="446" y="485"/>
      <point x="469" y="475"/>
      <point x="480" y="464" type="qcurve" smooth="yes"/>
      <point x="512" y="432" type="line" smooth="yes"/>
      <point x="532" y="412"/>
      <point x="532" y="383" type="qcurve" smooth="yes"/>
      <point x="532" y="32" type="line" smooth="yes"/>
      <point x="532" y="-8"/>
      <point x="492" y="-8" type="qcurve" smooth="yes"/>
      <point x="482" y="-8" type="line" smooth="yes"/>
      <point x="442" y="-8"/>
      <point x="442" y="32" type="qcurve" smooth="yes"/>
      <point x="442" y="354" type="line" smooth="yes"/>
      <point x="442" y="394"/>
      <point x="402" y="394" type="qcurve" smooth="yes"/>
      <point x="383" y="394" type="line" smooth="yes"/>
      <point x="343" y="394"/>
      <point x="343" y="354" type="qcurve" smooth="yes"/>
      <point x="343" y="32" type="line" smooth="yes"/>
      <point x="343" y="-8"/>
      <point x="303" y="-8" type="qcurve" smooth="yes"/>
      <point x="293" y="-8" type="line" smooth="yes"/>
      <point x="253" y="-8"/>
      <point x="253" y="32" type="qcurve" smooth="yes"/>
      <point x="253" y="354" type="line" smooth="yes"/>
      <point x="253" y="394"/>
      <point x="213" y="394" type="qcurve" smooth="yes"/>
      <point x="190" y="394" type="line" smooth="yes"/>
      <point x="150" y="394"/>
      <point x="150" y="354" type="qcurve" smooth="yes"/>
      <point x="150" y="32" type="line" smooth="yes"/>
      <point x="150" y="-8"/>
      <point x="110" y="-8" type="qcurve" smooth="yes"/>
    </contour>
    <contour>
      <point x="262" y="572" type="line" smooth="yes"/>
      <point x="246" y="572"/>
      <point x="231" y="591"/>
      <point x="237" y="605" type="qcurve" smooth="yes"/>
      <point x="277" y="693" type="line" smooth="yes"/>
      <point x="283" y="707"/>
      <point x="306" y="726"/>
      <point x="323" y="726" type="qcurve" smooth="yes"/>
      <point x="344" y="726" type="line" smooth="yes"/>
      <point x="360" y="726"/>
      <point x="375" y="707"/>
      <point x="369" y="693" type="qcurve" smooth="yes"/>
      <point x="329" y="605" type="line" smooth="yes"/>
      <point x="323" y="591"/>
      <point x="300" y="572"/>
      <point x="283" y="572" type="qcurve" smooth="yes"/>
    </contour>
  </outline>
</glyph>
<glyph name="zcircumflex" format="2">
  <advance width="384"/>
  <unicode hex="1E91"/>
  <anchor x="192" y="702" name="top"/>
  <outline>
    <contour>
      <point x="70" y="0" type="line" smooth="yes"/>
      <point x="30" y="0"/>
      <point x="30" y="40" type="qcurve" smooth="yes"/>
      <point x="30" y="67" type="line" smooth="yes"/>
      <point x="30" y="97"/>
      <point x="44" y="117" type="qcurve" smooth="yes"/>
      <point x="210" y="346" type="line" smooth="yes"/>
      <point x="219" y="358"/>
      <point x="219" y="368" type="qcurve" smooth="yes"/>
      <point x="219" y="380"/>
      <point x="200" y="394"/>
      <point x="183" y="394" type="qcurve" smooth="yes"/>
      <point x="70" y="394" type="line" smooth="yes"/>
      <point x="30" y="394"/>
      <point x="30" y="434" type="qcurve" smooth="yes"/>
      <point x="30" y="445" type="line" smooth="yes"/>
      <point x="30" y="485"/>
      <point x="70" y="485" type="qcurve" smooth="yes"/>
      <point x="314" y="485" type="line" smooth="yes"/>
      <point x="354" y="485"/>
      <point x="354" y="445" type="qcurve" smooth="yes"/>
      <point x="354" y="412" type="line" smooth="yes"/>
      <point x="354" y="382"/>
      <point x="340" y="362" type="qcurve" smooth="yes"/>
      <point x="181" y="139" type="line" smooth="yes"/>
      <point x="173" y="128"/>
      <point x="173" y="117" type="qcurve" smooth="yes"/>
      <point x="173" y="106"/>
      <point x="193" y="91"/>
      <point x="209" y="91" type="qcurve" smooth="yes"/>
      <point x="313" y="91" type="line" smooth="yes"/>
      <point x="353" y="91"/>
      <point x="353" y="51" type="qcurve" smooth="yes"/>
      <point x="353" y="40" type="line" smooth="yes"/>
      <point x="353" y="0"/>
      <point x="313" y="0" type="qcurve" smooth="yes"/>
    </contour>
    <contour>
      <point x="95" y="579" type="qcurve" smooth="yes"/>
      <point x="95" y="592"/>
      <point x="105" y="608" type="qcurve" smooth="yes"/>
      <point x="164" y="702" type="line" smooth="yes"/>
      <point x="176" y="722"/>
      <point x="192" y="722" type="qcurve" smooth="yes"/>
      <point x="208" y="722"/>
      <point x="220" y="702" type="qcurve"/>
      <point x="280" y="608" type="line"/>
      <point x="291" y="592"/>
      <point x="291" y="576" type="qcurve" smooth="yes"/>
      <point x="291" y="560"/>
      <point x="275" y="560" type="qcurve" smooth="yes"/>
      <point x="271" y="560" type="line" smooth="yes"/>
      <point x="239" y="560"/>
      <point x="223" y="587" type="qcurve" smooth="yes"/>
      <point x="220" y="592" type="line" smooth="yes"/>
      <point x="206" y="616"/>
      <point x="190" y="616" type="qcurve" smooth="yes"/>
      <point x="179" y="616"/>
      <point x="170" y="601" type="qcurve"/>
      <point x="163" y="588" type="line" smooth="yes"/>
      <point x="148" y="560"/>
      <point x="115" y="560" type="qcurve" smooth="yes"/>
      <point x="95" y="560"/>
    </contour>
  </outline>
</glyph>
<glyph name="dagger" format="2">
  <advance width="362"/>
  <unicode hex="2020"/>
  <outline>
    <contour>
      <point x="135" y="-63" type="qcurve" smooth="yes"/>
      <point x="135" y="455" type="line" smooth="yes"/>
      <point x="135" y="495"/>
      <point x="95" y="495" type="qcurve" smooth="yes"/>
      <point x="75" y="495" type="line" smooth="yes"/>
      <point x="35" y="495"/>
      <point x="35" y="535" type="qcurve" smooth="yes"/>
      <point x="35" y="550" type="line" smooth="yes"/>
      <point x="35" y="590"/>
      <point x="75" y="590" type="qcurve" smooth="yes"/>
      <point x="95" y="590" type="line" smooth="yes"/>
      <point x="135" y="590"/>
      <point x="135" y="630" type="qcurve" smooth="yes"/>
      <point x="135" y="768" type="line" smooth="yes"/>
      <point x="135" y="808"/>
      <point x="175" y="808" type="qcurve" smooth="yes"/>
      <point x="187" y="808" type="line" smooth="yes"/>
      <point x="227" y="808"/>
      <point x="227" y="768" type="qcurve" smooth="yes"/>
      <point x="227" y="630" type="line" smooth="yes"/>
      <point x="227" y="590"/>
      <point x="267" y="590" type="qcurve" smooth="yes"/>
      <point x="287" y="590" type="line" smooth="yes"/>
      <point x="327" y="590"/>
      <point x="327" y="550" type="qcurve" smooth="yes"/>
      <point x="327" y="535" type="line" smooth="yes"/>
      <point x="327" y="495"/>
      <point x="287" y="495" type="qcurve" smooth="yes"/>
      <point x="267" y="495" type="line" smooth="yes"/>
      <point x="227" y="495"/>
      <point x="227" y="455" type="qcurve" smooth="yes"/>
      <point x="227" y="-63" type="line" smooth="yes"/>
      <point x="227" y="-103"/>
      <point x="187" y="-103" type="qcurve" smooth="yes"/>
      <point x="175" y="-103" type="line" smooth="yes"/>
      <point x="135" y="-103"/>
    </contour>
  </outline>
</glyph>
<glyph name="daggerdbl" format="2">
  <advance width="362"/>
  <unicode hex="2021"/>
  <outline>
    <contour>
      <point x="135" y="-63" type="qcurve" smooth="yes"/>
      <point x="135" y="75" type="line" smooth="yes"/>
      <point x="135" y="115"/>
      <point x="95" y="115" type="qcurve" smooth="yes"/>
      <point x="75" y="115" type="line" smooth="yes"/>
      <point x="35" y="115"/>
      <point x="35" y="155" type="qcurve" smooth="yes"/>
      <point x="35" y="170" type="line" smooth="yes"/>
      <point x="35" y="210"/>
      <point x="75" y="210" type="qcurve" smooth="yes"/>
      <point x="95" y="210" type="line" smooth="yes"/>
      <point x="135" y="210"/>
      <point x="135" y="250" type="qcurve" smooth="yes"/>
      <point x="135" y="455" type="line" smooth="yes"/>
      <point x="135" y="495"/>
      <point x="95" y="495" type="qcurve" smooth="yes"/>
      <point x="75" y="495" type="line" smooth="yes"/>
      <point x="35" y="495"/>
      <point x="35" y="535" type="qcurve" smooth="yes"/>
      <point x="35" y="550" type="line" smooth="yes"/>
      <point x="35" y="590"/>
      <point x="75" y="590" type="qcurve" smooth="yes"/>
      <point x="95" y="590" type="line" smooth="yes"/>
      <point x="135" y="590"/>
      <point x="135" y="630" type="qcurve" smooth="yes"/>
      <point x="135" y="768" type="line" smooth="yes"/>
      <point x="135" y="808"/>
      <point x="175" y="808" type="qcurve" smooth="yes"/>
      <point x="187" y="808" type="line" smooth="yes"/>
      <point x="227" y="808"/>
      <point x="227" y="768" type="qcurve" smooth="yes"/>
      <point x="227" y="630" type="line" smooth="yes"/>
      <point x="227" y="590"/>
      <point x="267" y="590" type="qcurve" smooth="yes"/>
      <point x="287" y="590" type="line" smooth="yes"/>
      <point x="327" y="590"/>
      <point x="327" y="550" type="qcurve" smooth="yes"/>
      <point x="327" y="535" type="line" smooth="yes"/>
      <point x="327" y="495"/>
      <point x="287" y="495" type="qcurve" smooth="yes"/>
      <point x="267" y="495" type="line" smooth="yes"/>
      <point x="227" y="495"/>
      <point x="227" y="455" type="qcurve" smooth="yes"/>
      <point x="227" y="250" type="line" smooth="yes"/>
      <point x="227" y="210"/>
      <point x="267" y="210" type="qcurve" smooth="yes"/>
      <point x="287" y="210" type="line" smooth="yes"/>
      <point x="327" y="210"/>
      <point x="327" y="170" type="qcurve" smooth="yes"/>
      <point x="327" y="155" type="line" smooth="yes"/>
      <point x="327" y="115"/>
      <point x="287" y="115" type="qcurve" smooth="yes"/>
      <point x="267" y="115" type="line" smooth="yes"/>
      <point x="227" y="115"/>
      <point x="227" y="75" type="qcurve" smooth="yes"/>
      <point x="227" y="-63" type="line" smooth="yes"/>
      <point x="227" y="-103"/>
      <point x="187" y="-103" type="qcurve" smooth="yes"/>
      <point x="175" y="-103" type="line" smooth="yes"/>
      <point x="135" y="-103"/>
    </contour>
  </outline>
</glyph>
<glyph name="ellipsis" format="2">
  <advance width="765"/>
  <unicode hex="2026"/>
  <outline>
    <contour>
      <point x="100" y="314" type="line" smooth="yes"/>
      <point x="60" y="314"/>
      <point x="60" y="354" type="qcurve" smooth="yes"/>
      <point x="60" y="399" type="line" smooth="yes"/>
      <point x="60" y="439"/>
      <point x="100" y="439" type="qcurve" smooth="yes"/>
      <point x="121" y="439" type="line" smooth="yes"/>
      <point x="161" y="439"/>
      <point x="161" y="399" type="qcurve" smooth="yes"/>
      <point x="161" y="354" type="line" smooth="yes"/>
      <point x="161" y="314"/>
      <point x="121" y="314" type="qcurve" smooth="yes"/>
    </contour>
    <contour>
      <point x="373" y="314" type="line" smooth="yes"/>
      <point x="333" y="314"/>
      <point x="333" y="354" type="qcurve" smooth="yes"/>
      <point x="333" y="399" type="line" smooth="yes"/>
      <point x="333" y="439"/>
      <point x="373" y="439" type="qcurve" smooth="yes"/>
      <point x="394" y="439" type="line" smooth="yes"/>
      <point x="434" y="439"/>
      <point x="434" y="399" type="qcurve" smooth="yes"/>
      <point x="434" y="354" type="line" smooth="yes"/>
      <point x="434" y="314"/>
      <point x="394" y="314" type="qcurve" smooth="yes"/>
    </contour>
    <contour>
      <point x="644" y="314" type="line" smooth="yes"/>
      <point x="604" y="314"/>
      <point x="604" y="354" type="qcurve" smooth="yes"/>
      <point x="604" y="399" type="line" smooth="yes"/>
      <point x="604" y="439"/>
      <point x="644" y="439" type="qcurve" smooth="yes"/>
      <point x="665" y="439" type="line" smooth="yes"/>
      <point x="705" y="439"/>
      <point x="705" y="399" type="qcurve" smooth="yes"/>
      <point x="705" y="354" type="line" smooth="yes"/>
      <point x="705" y="314"/>
      <point x="665" y="314" type="qcurve" smooth="yes"/>
    </contour>
  </outline>
</glyph>
<glyph name="questiondbl" format="2">
  <advance width="765"/>
  <unicode hex="2047"/>
  <outline>
    <contour>
      <point x="515" y="207" type="qcurve" smooth="yes"/>
      <point x="515" y="264" type="line"/>
      <point x="514" y="292"/>
      <point x="529" y="314" type="qcurve" smooth="yes"/>
      <point x="638" y="474" type="line"/>
      <point x="652" y="496"/>
      <point x="652" y="524" type="qcurve" smooth="yes"/>
      <point x="652" y="593" type="line" smooth="yes"/>
      <point x="652" y="633"/>
      <point x="612" y="633" type="qcurve" smooth="yes"/>
      <point x="527" y="633" type="line" smooth="yes"/>
      <point x="487" y="633"/>
      <point x="487" y="593" type="qcurve" smooth="yes"/>
      <point x="487" y="529" type="line" smooth="yes"/>
      <point x="487" y="489"/>
      <point x="447" y="489" type="qcurve" smooth="yes"/>
      <point x="435" y="489" type="line" smooth="yes"/>
      <point x="395" y="489"/>
      <point x="395" y="529" type="qcurve" smooth="yes"/>
      <point x="395" y="682" type="line" smooth="yes"/>
      <point x="395" y="722"/>
      <point x="435" y="722" type="qcurve" smooth="yes"/>
      <point x="700" y="722" type="line" smooth="yes"/>
      <point x="740" y="722"/>
      <point x="740" y="682" type="qcurve" smooth="yes"/>
      <point x="740" y="488" type="line"/>
      <point x="741" y="460"/>
      <point x="726" y="438" type="qcurve" smooth="yes"/>
      <point x="620" y="283" type="line"/>
      <point x="606" y="261"/>
      <point x="606" y="233" type="qcurve" smooth="yes"/>
      <point x="606" y="206" type="line" smooth="yes"/>
      <point x="606" y="166"/>
      <point x="566" y="166" type="qcurve" smooth="yes"/>
      <point x="555" y="166" type="line" smooth="yes"/>
      <point x="536" y="166"/>
      <point x="515" y="188"/>
    </contour>
    <contour>
      <point x="533" y="8" type="qcurve" smooth="yes"/>
      <point x="519" y="22" type="line" smooth="yes"/>
      <point x="506" y="35"/>
      <point x="506" y="50" type="qcurve" smooth="yes"/>
      <point x="506" y="65"/>
      <point x="519" y="78" type="qcurve" smooth="yes"/>
      <point x="532" y="91" type="line" smooth="yes"/>
      <point x="546" y="105"/>
      <point x="560" y="105" type="qcurve" smooth="yes"/>
      <point x="576" y="105"/>
      <point x="589" y="90" type="qcurve"/>
      <point x="602" y="77" type="line" smooth="yes"/>
      <point x="615" y="64"/>
      <point x="615" y="49" type="qcurve" smooth="yes"/>
      <point x="615" y="34"/>
      <point x="601" y="20" type="qcurve" smooth="yes"/>
      <point x="589" y="8" type="line" smooth="yes"/>
      <point x="575" y="-6"/>
      <point x="561" y="-6" type="qcurve" smooth="yes"/>
      <point x="547" y="-6"/>
    </contour>
    <contour>
      <point x="148" y="207" type="qcurve" smooth="yes"/>
      <point x="148" y="264" type="line"/>
      <point x="147" y="292"/>
      <point x="162" y="314" type="qcurve" smooth="yes"/>
      <point x="271" y="474" type="line"/>
      <point x="285" y="496"/>
      <point x="285" y="524" type="qcurve" smooth="yes"/>
      <point x="285" y="593" type="line" smooth="yes"/>
      <point x="285" y="633"/>
      <point x="245" y="633" type="qcurve" smooth="yes"/>
      <point x="160" y="633" type="line" smooth="yes"/>
      <point x="120" y="633"/>
      <point x="120" y="593" type="qcurve" smooth="yes"/>
      <point x="120" y="529" type="line" smooth="yes"/>
      <point x="120" y="489"/>
      <point x="80" y="489" type="qcurve" smooth="yes"/>
      <point x="68" y="489" type="line" smooth="yes"/>
      <point x="28" y="489"/>
      <point x="28" y="529" type="qcurve" smooth="yes"/>
      <point x="28" y="682" type="line" smooth="yes"/>
      <point x="28" y="722"/>
      <point x="68" y="722" type="qcurve" smooth="yes"/>
      <point x="333" y="722" type="line" smooth="yes"/>
      <point x="373" y="722"/>
      <point x="373" y="682" type="qcurve" smooth="yes"/>
      <point x="373" y="488" type="line"/>
      <point x="374" y="460"/>
      <point x="359" y="438" type="qcurve" smooth="yes"/>
      <point x="253" y="283" type="line"/>
      <point x="239" y="261"/>
      <point x="239" y="233" type="qcurve" smooth="yes"/>
      <point x="239" y="206" type="line" smooth="yes"/>
      <point x="239" y="166"/>
      <point x="199" y="166" type="qcurve" smooth="yes"/>
      <point x="188" y="166" type="line" smooth="yes"/>
      <point x="169" y="166"/>
      <point x="148" y="188"/>
    </contour>
    <contour>
      <point x="166" y="8" type="qcurve" smooth="yes"/>
      <point x="152" y="22" type="line" smooth="yes"/>
      <point x="139" y="35"/>
      <point x="139" y="50" type="qcurve" smooth="yes"/>
      <point x="139" y="65"/>
      <point x="152" y="78" type="qcurve" smooth="yes"/>
      <point x="165" y="91" type="line" smooth="yes"/>
      <point x="179" y="105"/>
      <point x="193" y="105" type="qcurve" smooth="yes"/>
      <point x="209" y="105"/>
      <point x="222" y="90" type="qcurve"/>
      <point x="235" y="77" type="line" smooth="yes"/>
      <point x="248" y="64"/>
      <point x="248" y="49" type="qcurve" smooth="yes"/>
      <point x="248" y="34"/>
      <point x="234" y="20" type="qcurve" smooth="yes"/>
      <point x="222" y="8" type="line" smooth="yes"/>
      <point x="208" y="-6"/>
      <point x="194" y="-6" type="qcurve" smooth="yes"/>
      <point x="180" y="-6"/>
    </contour>
  </outline>
</glyph>
<glyph name="exclamationquestion" format="2">
  <advance width="765"/>
  <unicode hex="2049"/>
  <outline>
    <contour>
      <point x="186" y="165" type="line" smooth="yes"/>
      <point x="146" y="165"/>
      <point x="146" y="205" type="qcurve" smooth="yes"/>
      <point x="146" y="685" type="line" smooth="yes"/>
      <point x="146" y="725"/>
      <point x="186" y="725" type="qcurve" smooth="yes"/>
      <point x="196" y="725" type="line" smooth="yes"/>
      <point x="236" y="725"/>
      <point x="236" y="685" type="qcurve" smooth="yes"/>
      <point x="236" y="205" type="line" smooth="yes"/>
      <point x="236" y="165"/>
      <point x="196" y="165" type="qcurve" smooth="yes"/>
    </contour>
    <contour>
      <point x="150" y="16" type="line" smooth="yes"/>
      <point x="133" y="33"/>
      <point x="133" y="50" type="qcurve" smooth="yes"/>
      <point x="133" y="67"/>
      <point x="150" y="84" type="qcurve" smooth="yes"/>
      <point x="157" y="91" type="line" smooth="yes"/>
      <point x="174" y="108"/>
      <point x="191" y="108" type="qcurve" smooth="yes"/>
      <point x="208" y="108"/>
      <point x="225" y="91" type="qcurve" smooth="yes"/>
      <point x="232" y="84" type="line" smooth="yes"/>
      <point x="249" y="67"/>
      <point x="249" y="50" type="qcurve" smooth="yes"/>
      <point x="249" y="33"/>
      <point x="232" y="16" type="qcurve" smooth="yes"/>
      <point x="225" y="9" type="line" smooth="yes"/>
      <point x="208" y="-8"/>
      <point x="191" y="-8" type="qcurve" smooth="yes"/>
      <point x="174" y="-8"/>
      <point x="157" y="9" type="qcurve" smooth="yes"/>
    </contour>
    <contour>
      <point x="429" y="205" type="qcurve" smooth="yes"/>
      <point x="429" y="262" type="line"/>
      <point x="428" y="290"/>
      <point x="443" y="312" type="qcurve" smooth="yes"/>
      <point x="552" y="472" type="line"/>
      <point x="566" y="494"/>
      <point x="566" y="522" type="qcurve" smooth="yes"/>
      <point x="566" y="591" type="line" smooth="yes"/>
      <point x="566" y="631"/>
      <point x="526" y="631" type="qcurve" smooth="yes"/>
      <point x="441" y="631" type="line" smooth="yes"/>
      <point x="401" y="631"/>
      <point x="401" y="591" type="qcurve" smooth="yes"/>
      <point x="401" y="527" type="line" smooth="yes"/>
      <point x="401" y="487"/>
      <point x="361" y="487" type="qcurve" smooth="yes"/>
      <point x="349" y="487" type="line" smooth="yes"/>
      <point x="309" y="487"/>
      <point x="309" y="527" type="qcurve" smooth="yes"/>
      <point x="309" y="680" type="line" smooth="yes"/>
      <point x="309" y="720"/>
      <point x="349" y="720" type="qcurve" smooth="yes"/>
      <point x="614" y="720" type="line" smooth="yes"/>
      <point x="654" y="720"/>
      <point x="654" y="680" type="qcurve" smooth="yes"/>
      <point x="654" y="486" type="line"/>
      <point x="655" y="458"/>
      <point x="640" y="436" type="qcurve" smooth="yes"/>
      <point x="534" y="281" type="line"/>
      <point x="520" y="259"/>
      <point x="520" y="231" type="qcurve" smooth="yes"/>
      <point x="520" y="204" type="line" smooth="yes"/>
      <point x="520" y="164"/>
      <point x="480" y="164" type="qcurve" smooth="yes"/>
      <point x="469" y="164" type="line" smooth="yes"/>
      <point x="450" y="164"/>
      <point x="429" y="186"/>
    </contour>
    <contour>
      <point x="447" y="6" type="qcurve" smooth="yes"/>
      <point x="433" y="20" type="line" smooth="yes"/>
      <point x="420" y="33"/>
      <point x="420" y="48" type="qcurve" smooth="yes"/>
      <point x="420" y="63"/>
      <point x="433" y="76" type="qcurve" smooth="yes"/>
      <point x="446" y="89" type="line" smooth="yes"/>
      <point x="460" y="103"/>
      <point x="474" y="103" type="qcurve" smooth="yes"/>
      <point x="490" y="103"/>
      <point x="503" y="88" type="qcurve"/>
      <point x="516" y="75" type="line" smooth="yes"/>
      <point x="529" y="62"/>
      <point x="529" y="47" type="qcurve" smooth="yes"/>
      <point x="529" y="32"/>
      <point x="515" y="18" type="qcurve" smooth="yes"/>
      <point x="503" y="6" type="line" smooth="yes"/>
      <point x="489" y="-8"/>
      <point x="475" y="-8" type="qcurve" smooth="yes"/>
      <point x="461" y="-8"/>
    </contour>
  </outline>
</glyph>
<glyph name="arrowup" format="2">
  <advance width="765"/>
  <unicode hex="2191"/>
  <outline>
    <contour>
      <point x="331" y="75" type="qcurve" smooth="yes"/>
      <point x="331" y="492" type="line" smooth="yes"/>
      <point x="331" y="514"/>
      <point x="320" y="514" type="qcurve" smooth="yes"/>
      <point x="313" y="514"/>
      <point x="303" y="504" type="qcurve" smooth="yes"/>
      <point x="167" y="369" type="line"/>
      <point x="152" y="356"/>
      <point x="139" y="356" type="qcurve" smooth="yes"/>
      <point x="124" y="356"/>
      <point x="111" y="369" type="qcurve" smooth="yes"/>
      <point x="104" y="376" type="line" smooth="yes"/>
      <point x="91" y="389"/>
      <point x="91" y="404" type="qcurve" smooth="yes"/>
      <point x="91" y="420"/>
      <point x="104" y="432" type="qcurve" smooth="yes"/>
      <point x="347" y="674" type="line"/>
      <point x="359" y="687"/>
      <point x="375" y="687" type="qcurve" smooth="yes"/>
      <point x="390" y="687"/>
      <point x="403" y="674" type="qcurve" smooth="yes"/>
      <point x="646" y="432" type="line" smooth="yes"/>
      <point x="659" y="419"/>
      <point x="659" y="404" type="qcurve" smooth="yes"/>
      <point x="659" y="391"/>
      <point x="646" y="376" type="qcurve"/>
      <point x="639" y="369" type="line"/>
      <point x="624" y="356"/>
      <point x="611" y="356" type="qcurve" smooth="yes"/>
      <point x="596" y="356"/>
      <point x="583" y="369" type="qcurve" smooth="yes"/>
      <point x="447" y="504" type="line" smooth="yes"/>
      <point x="437" y="514"/>
      <point x="430" y="514" type="qcurve" smooth="yes"/>
      <point x="419" y="514"/>
      <point x="419" y="492" type="qcurve" smooth="yes"/>
      <point x="419" y="75" type="line" smooth="yes"/>
      <point x="419" y="35"/>
      <point x="379" y="35" type="qcurve" smooth="yes"/>
      <point x="371" y="35" type="line" smooth="yes"/>
      <point x="331" y="35"/>
    </contour>
  </outline>
</glyph>
<glyph name="uni220F" format="2">
  <advance width="625"/>
  <unicode hex="220F"/>
  <outline>
    <contour>
      <point x="100" y="-92" type="line" smooth="yes"/>
      <point x="60" y="-92"/>
      <point x="60" y="-52" type="qcurve" smooth="yes"/>
      <point x="60" y="734" type="line" smooth="yes"/>
      <point x="60" y="774"/>
      <point x="100" y="774" type="qcurve" smooth="yes"/>
      <point x="525" y="774" type="line" smooth="yes"/>
      <point x="565" y="774"/>
      <point x="565" y="734" type="qcurve" smooth="yes"/>
      <point x="565" y="-52" type="line" smooth="yes"/>
      <point x="565" y="-92"/>
      <point x="525" y="-92" type="qcurve" smooth="yes"/>
      <point x="514" y="-92" type="line" smooth="yes"/>
      <point x="474" y="-92"/>
      <point x="474" y="-52" type="qcurve" smooth="yes"/>
      <point x="474" y="643" type="line" smooth="yes"/>
      <point x="474" y="683"/>
      <point x="434" y="683" type="qcurve" smooth="yes"/>
      <point x="191" y="683" type="line" smooth="yes"/>
      <point x="151" y="683"/>
      <point x="151" y="643" type="qcurve" smooth="yes"/>
      <point x="151" y="-52" type="line" smooth="yes"/>
      <point x="151" y="-92"/>
      <point x="111" y="-92" type="qcurve" smooth="yes"/>
    </contour>
  </outline>
</glyph>
<glyph name="summation" format="2">
  <advance width="625"/>
  <unicode hex="2211"/>
  <outline>
    <contour>
      <point x="154" y="16" type="qcurve" smooth="yes"/>
      <point x="153" y="1"/>
      <point x="178" y="1" type="qcurve" smooth="yes"/>
      <point x="484" y="1" type="line" smooth="yes"/>
      <point x="523" y="1"/>
      <point x="523" y="-38" type="qcurve" smooth="yes"/>
      <point x="523" y="-50" type="line" smooth="yes"/>
      <point x="523" y="-88"/>
      <point x="484" y="-88" type="qcurve" smooth="yes"/>
      <point x="89" y="-88" type="line" smooth="yes"/>
      <point x="50" y="-88"/>
      <point x="50" y="-50" type="qcurve" smooth="yes"/>
      <point x="50" y="-5" type="line" smooth="yes"/>
      <point x="50" y="30"/>
      <point x="71" y="66" type="qcurve" smooth="yes"/>
      <point x="206" y="304" type="line"/>
      <point x="217" y="319"/>
      <point x="216" y="336" type="qcurve" smooth="yes"/>
      <point x="214" y="353"/>
      <point x="206" y="368" type="qcurve" smooth="yes"/>
      <point x="71" y="608" type="line" smooth="yes"/>
      <point x="50" y="644"/>
      <point x="50" y="679" type="qcurve" smooth="yes"/>
      <point x="50" y="726" type="line" smooth="yes"/>
      <point x="50" y="765"/>
      <point x="89" y="765" type="qcurve" smooth="yes"/>
      <point x="484" y="765" type="line" smooth="yes"/>
      <point x="523" y="765"/>
      <point x="523" y="726" type="qcurve" smooth="yes"/>
      <point x="523" y="714" type="line" smooth="yes"/>
      <point x="523" y="675"/>
      <point x="484" y="675" type="qcurve" smooth="yes"/>
      <point x="176" y="675" type="line" smooth="yes"/>
      <point x="151" y="675"/>
      <point x="152" y="660" type="qcurve" smooth="yes"/>
      <point x="153" y="654"/>
      <point x="159" y="643" type="qcurve" smooth="yes"/>
      <point x="312" y="368" type="line" smooth="yes"/>
      <point x="320" y="354"/>
      <point x="321" y="336" type="qcurve" smooth="yes"/>
      <point x="322" y="319"/>
      <point x="312" y="304" type="qcurve"/>
      <point x="161" y="33" type="line" smooth="yes"/>
      <point x="155" y="22"/>
    </contour>
  </outline>
</glyph>
<glyph name="proportional" format="2">
  <advance width="641"/>
  <unicode hex="221D"/>
  <outline>
    <contour>
      <point x="302" y="329" type="line"/>
      <point x="312" y="343"/>
      <point x="312" y="363" type="qcurve" smooth="yes"/>
      <point x="312" y="383"/>
      <point x="302" y="397" type="qcurve" smooth="yes"/>
      <point x="296" y="405" type="line"/>
      <point x="282" y="425"/>
      <point x="249" y="454"/>
      <point x="209" y="471"/>
      <point x="182" y="471" type="qcurve" smooth="yes"/>
      <point x="159" y="471"/>
      <point x="120" y="451"/>
      <point x="91" y="420"/>
      <point x="74" y="381"/>
      <point x="74" y="363" type="qcurve" smooth="yes"/>
      <point x="74" y="345"/>
      <point x="91" y="307"/>
      <point x="120" y="276"/>
      <point x="159" y="256"/>
      <point x="182" y="256" type="qcurve" smooth="yes"/>
      <point x="209" y="256"/>
      <point x="249" y="273"/>
      <point x="282" y="303"/>
      <point x="296" y="322" type="qcurve"/>
    </contour>
    <contour>
      <point x="397" y="329" type="qcurve"/>
      <point x="403" y="322" type="line"/>
      <point x="417" y="303"/>
      <point x="449" y="273"/>
      <point x="490" y="256"/>
      <point x="517" y="256" type="qcurve" smooth="yes"/>
      <point x="540" y="256"/>
      <point x="559" y="266" type="qcurve" smooth="yes"/>
      <point x="564" y="269"/>
      <point x="569" y="272" type="qcurve" smooth="yes"/>
      <point x="577" y="277"/>
      <point x="586" y="277" type="qcurve" smooth="yes"/>
      <point x="596" y="277"/>
      <point x="611" y="263"/>
      <point x="611" y="253" type="qcurve" smooth="yes"/>
      <point x="611" y="244"/>
      <point x="603" y="238" type="qcurve" smooth="yes"/>
      <point x="591" y="229"/>
      <point x="577" y="221" type="qcurve" smooth="yes"/>
      <point x="550" y="207"/>
      <point x="517" y="206" type="qcurve"/>
      <point x="485" y="206"/>
      <point x="435" y="225"/>
      <point x="395" y="257"/>
      <point x="379" y="277" type="qcurve" smooth="yes"/>
      <point x="372" y="286" type="line"/>
      <point x="362" y="300"/>
      <point x="350" y="300" type="qcurve" smooth="yes"/>
      <point x="337" y="300"/>
      <point x="327" y="286" type="qcurve"/>
      <point x="320" y="277" type="line" smooth="yes"/>
      <point x="305" y="257"/>
      <point x="264" y="225"/>
      <point x="214" y="206"/>
      <point x="182" y="206" type="qcurve" smooth="yes"/>
      <point x="150" y="206"/>
      <point x="94" y="235"/>
      <point x="53" y="280"/>
      <point x="30" y="336"/>
      <point x="30" y="363" type="qcurve" smooth="yes"/>
      <point x="30" y="390"/>
      <point x="53" y="447"/>
      <point x="94" y="492"/>
      <point x="150" y="521"/>
      <point x="182" y="521" type="qcurve" smooth="yes"/>
      <point x="214" y="521"/>
      <point x="264" y="502"/>
      <point x="305" y="470"/>
      <point x="320" y="450" type="qcurve"/>
      <point x="326" y="441" type="line"/>
      <point x="337" y="427"/>
      <point x="349" y="427" type="qcurve" smooth="yes"/>
      <point x="361" y="427"/>
      <point x="372" y="441" type="qcurve" smooth="yes"/>
      <point x="379" y="450" type="line" smooth="yes"/>
      <point x="395" y="470"/>
      <point x="435" y="502"/>
      <point x="485" y="521"/>
      <point x="517" y="521" type="qcurve"/>
      <point x="552" y="521"/>
      <point x="577" y="507" type="qcurve" smooth="yes"/>
      <point x="591" y="500"/>
      <point x="603" y="490" type="qcurve" smooth="yes"/>
      <point x="611" y="484"/>
      <point x="611" y="474" type="qcurve" smooth="yes"/>
      <point x="611" y="464"/>
      <point x="595" y="450"/>
      <point x="586" y="450" type="qcurve" smooth="yes"/>
      <point x="577" y="450"/>
      <point x="569" y="455" type="qcurve" smooth="yes"/>
      <point x="564" y="458"/>
      <point x="559" y="461" type="qcurve" smooth="yes"/>
      <point x="540" y="471"/>
      <point x="517" y="471" type="qcurve" smooth="yes"/>
      <point x="490" y="471"/>
      <point x="449" y="454"/>
      <point x="417" y="425"/>
      <point x="403" y="405" type="qcurve"/>
      <point x="397" y="397" type="line"/>
      <point x="387" y="380"/>
      <point x="387" y="363" type="qcurve" smooth="yes"/>
      <point x="387" y="346"/>
    </contour>
  </outline>
</glyph>
<glyph name="angle" format="2">
  <advance width="653"/>
  <unicode hex="2220"/>
  <outline>
    <contour>
      <point x="40" y="25" type="qcurve" smooth="yes"/>
      <point x="40" y="49"/>
      <point x="54" y="70" type="qcurve" smooth="yes"/>
      <point x="477" y="681" type="line" smooth="yes"/>
      <point x="497" y="710"/>
      <point x="532" y="710" type="qcurve" smooth="yes"/>
      <point x="574" y="710" type="line" smooth="yes"/>
      <point x="595" y="710"/>
      <point x="595" y="696" type="qcurve" smooth="yes"/>
      <point x="595" y="690"/>
      <point x="589" y="681" type="qcurve" smooth="yes"/>
      <point x="202" y="121" type="line" smooth="yes"/>
      <point x="196" y="112"/>
      <point x="196" y="106" type="qcurve" smooth="yes"/>
      <point x="196" y="92"/>
      <point x="217" y="92" type="qcurve" smooth="yes"/>
      <point x="578" y="92" type="line" smooth="yes"/>
      <point x="613" y="92"/>
      <point x="613" y="57" type="qcurve" smooth="yes"/>
      <point x="613" y="35" type="line" smooth="yes"/>
      <point x="613" y="0"/>
      <point x="578" y="0" type="qcurve" smooth="yes"/>
      <point x="65" y="0" type="line" smooth="yes"/>
      <point x="40" y="0"/>
    </contour>
  </outline>
</glyph>
<glyph name="parallel" format="2">
  <advance width="653"/>
  <unicode hex="2225"/>
  <outline>
    <contour>
      <point x="60" y="-67" type="qcurve" smooth="yes"/>
      <point x="60" y="-60"/>
      <point x="61" y="-56" type="qcurve" smooth="yes"/>
      <point x="282" y="724" type="line" smooth="yes"/>
      <point x="292" y="760"/>
      <point x="325" y="760" type="qcurve" smooth="yes"/>
      <point x="345" y="760" type="line" smooth="yes"/>
      <point x="382" y="760"/>
      <point x="382" y="728" type="qcurve" smooth="yes"/>
      <point x="382" y="721"/>
      <point x="381" y="717" type="qcurve" smooth="yes"/>
      <point x="160" y="-63" type="line" smooth="yes"/>
      <point x="150" y="-98"/>
      <point x="117" y="-99" type="qcurve"/>
      <point x="97" y="-99" type="line" smooth="yes"/>
      <point x="60" y="-99"/>
    </contour>
    <contour>
      <point x="271" y="-67" type="qcurve" smooth="yes"/>
      <point x="271" y="-60"/>
      <point x="272" y="-56" type="qcurve" smooth="yes"/>
      <point x="493" y="724" type="line" smooth="yes"/>
      <point x="503" y="760"/>
      <point x="536" y="760" type="qcurve" smooth="yes"/>
      <point x="556" y="760" type="line" smooth="yes"/>
      <point x="593" y="760"/>
      <point x="593" y="728" type="qcurve" smooth="yes"/>
      <point x="593" y="721"/>
      <point x="592" y="717" type="qcurve" smooth="yes"/>
      <point x="371" y="-63" type="line" smooth="yes"/>
      <point x="361" y="-99"/>
      <point x="328" y="-99" type="qcurve" smooth="yes"/>
      <point x="308" y="-99" type="line" smooth="yes"/>
      <point x="271" y="-99"/>
    </contour>
  </outline>
</glyph>
<glyph name="logicalor" format="2">
  <advance width="690"/>
  <unicode hex="2228"/>
  <outline>
    <contour>
      <point x="325" y="149" type="qcurve" smooth="yes"/>
      <point x="70" y="514" type="line" smooth="yes"/>
      <point x="63" y="524"/>
      <point x="63" y="534" type="qcurve" smooth="yes"/>
      <point x="63" y="551"/>
      <point x="79" y="562" type="qcurve" smooth="yes"/>
      <point x="102" y="578" type="line" smooth="yes"/>
      <point x="112" y="585"/>
      <point x="123" y="585" type="qcurve" smooth="yes"/>
      <point x="141" y="585"/>
      <point x="151" y="570" type="qcurve" smooth="yes"/>
      <point x="325" y="321" type="line" smooth="yes"/>
      <point x="334" y="308"/>
      <point x="345" y="308" type="qcurve" smooth="yes"/>
      <point x="356" y="308"/>
      <point x="365" y="321" type="qcurve" smooth="yes"/>
      <point x="539" y="570" type="line" smooth="yes"/>
      <point x="550" y="585"/>
      <point x="567" y="585" type="qcurve" smooth="yes"/>
      <point x="578" y="585"/>
      <point x="588" y="578" type="qcurve" smooth="yes"/>
      <point x="611" y="562" type="line" smooth="yes"/>
      <point x="627" y="551"/>
      <point x="627" y="534" type="qcurve" smooth="yes"/>
      <point x="627" y="524"/>
      <point x="620" y="514" type="qcurve" smooth="yes"/>
      <point x="365" y="149" type="line" smooth="yes"/>
      <point x="356" y="136"/>
      <point x="345" y="136" type="qcurve" smooth="yes"/>
      <point x="334" y="136"/>
    </contour>
  </outline>
</glyph>
<glyph name="uni222E" format="2">
  <advance width="419"/>
  <unicode hex="222E"/>
  <outline>
    <contour>
      <point x="73" y="-78" type="qcurve" smooth="yes"/>
      <point x="73" y="-67" type="line" smooth="yes"/>
      <point x="73" y="-27"/>
      <point x="113" y="-27" type="qcurve" smooth="yes"/>
      <point x="124" y="-27" type="line" smooth="yes"/>
      <point x="164" y="-27"/>
      <point x="164" y="13" type="qcurve" smooth="yes"/>
      <point x="164" y="88" type="line" smooth="yes"/>
      <point x="164" y="105"/>
      <point x="144" y="132"/>
      <point x="126" y="140" type="qcurve" smooth="yes"/>
      <point x="72" y="164"/>
      <point x="5" y="265"/>
      <point x="5" y="328" type="qcurve" smooth="yes"/>
      <point x="5" y="391"/>
      <point x="72" y="492"/>
      <point x="126" y="515" type="qcurve" smooth="yes"/>
      <point x="144" y="523"/>
      <point x="164" y="550"/>
      <point x="164" y="567" type="qcurve" smooth="yes"/>
      <point x="164" y="644" type="line" smooth="yes"/>
      <point x="164" y="673"/>
      <point x="184" y="694" type="qcurve" smooth="yes"/>
      <point x="216" y="726" type="line" smooth="yes"/>
      <point x="236" y="746"/>
      <point x="265" y="746" type="qcurve" smooth="yes"/>
      <point x="305" y="746" type="line" smooth="yes"/>
      <point x="345" y="746"/>
      <point x="345" y="706" type="qcurve" smooth="yes"/>
      <point x="345" y="695" type="line" smooth="yes"/>
      <point x="345" y="655"/>
      <point x="305" y="655" type="qcurve" smooth="yes"/>
      <point x="294" y="655" type="line" smooth="yes"/>
      <point x="254" y="655"/>
      <point x="254" y="615" type="qcurve" smooth="yes"/>
      <point x="254" y="567" type="line" smooth="yes"/>
      <point x="254" y="550"/>
      <point x="274" y="523"/>
      <point x="292" y="515" type="qcurve" smooth="yes"/>
      <point x="346" y="492"/>
      <point x="414" y="391"/>
      <point x="414" y="328" type="qcurve" smooth="yes"/>
      <point x="414" y="296"/>
      <point x="396" y="238"/>
      <point x="364" y="189"/>
      <point x="319" y="152"/>
      <point x="292" y="140" type="qcurve" smooth="yes"/>
      <point x="274" y="132"/>
      <point x="254" y="105"/>
      <point x="254" y="88" type="qcurve" smooth="yes"/>
      <point x="254" y="-16" type="line" smooth="yes"/>
      <point x="254" y="-45"/>
      <point x="234" y="-66" type="qcurve" smooth="yes"/>
      <point x="202" y="-98" type="line" smooth="yes"/>
      <point x="182" y="-118"/>
      <point x="153" y="-118" type="qcurve" smooth="yes"/>
      <point x="113" y="-118" type="line" smooth="yes"/>
      <point x="73" y="-118"/>
    </contour>
    <contour>
      <point x="273" y="213" type="qcurve" smooth="yes"/>
      <point x="280" y="213"/>
      <point x="289" y="219" type="qcurve" smooth="yes"/>
      <point x="314" y="237"/>
      <point x="344" y="294"/>
      <point x="344" y="328" type="qcurve" smooth="yes"/>
      <point x="344" y="361"/>
      <point x="314" y="418"/>
      <point x="289" y="436" type="qcurve" smooth="yes"/>
      <point x="280" y="442"/>
      <point x="273" y="442" type="qcurve" smooth="yes"/>
      <point x="254" y="442"/>
      <point x="254" y="414" type="qcurve" smooth="yes"/>
      <point x="254" y="241" type="line" smooth="yes"/>
      <point x="254" y="213"/>
    </contour>
    <contour>
      <point x="129" y="220" type="qcurve" smooth="yes"/>
      <point x="138" y="214"/>
      <point x="145" y="214" type="qcurve" smooth="yes"/>
      <point x="164" y="214"/>
      <point x="164" y="241" type="qcurve" smooth="yes"/>
      <point x="164" y="414" type="line" smooth="yes"/>
      <point x="164" y="441"/>
      <point x="145" y="441" type="qcurve" smooth="yes"/>
      <point x="138" y="441"/>
      <point x="129" y="435" type="qcurve" smooth="yes"/>
      <point x="104" y="417"/>
      <point x="75" y="361"/>
      <point x="75" y="328" type="qcurve" smooth="yes"/>
      <point x="75" y="294"/>
      <point x="104" y="239"/>
    </contour>
  </outline>
</glyph>
<glyph name="allequal" format="2">
  <advance width="698"/>
  <unicode hex="224C"/>
  <outline>
    <contour>
      <point x="229" y="486" type="qcurve"/>
      <point x="235" y="487"/>
      <point x="240" y="491" type="qcurve" smooth="yes"/>
      <point x="247" y="495"/>
      <point x="254" y="495" type="qcurve" smooth="yes"/>
      <point x="265" y="495"/>
      <point x="276" y="478"/>
      <point x="276" y="469" type="qcurve" smooth="yes"/>
      <point x="276" y="456"/>
      <point x="264" y="448" type="qcurve" smooth="yes"/>
      <point x="258" y="445"/>
      <point x="246" y="439"/>
      <point x="239" y="437" type="qcurve" smooth="yes"/>
      <point x="215" y="429"/>
      <point x="182" y="427" type="qcurve"/>
      <point x="150" y="427"/>
      <point x="94" y="456"/>
      <point x="53" y="501"/>
      <point x="30" y="557"/>
      <point x="30" y="584" type="qcurve" smooth="yes"/>
      <point x="30" y="611"/>
      <point x="53" y="668"/>
      <point x="94" y="713"/>
      <point x="150" y="742"/>
      <point x="182" y="742" type="qcurve" smooth="yes"/>
      <point x="214" y="742"/>
      <point x="263" y="724"/>
      <point x="305" y="691"/>
      <point x="340" y="645"/>
      <point x="357" y="616" type="qcurve" smooth="yes"/>
      <point x="376" y="584" type="line" smooth="yes"/>
      <point x="389" y="562"/>
      <point x="416" y="523"/>
      <point x="449" y="494"/>
      <point x="490" y="477"/>
      <point x="517" y="477" type="qcurve" smooth="yes"/>
      <point x="539" y="477"/>
      <point x="578" y="497"/>
      <point x="607" y="528"/>
      <point x="624" y="566"/>
      <point x="624" y="584" type="qcurve" smooth="yes"/>
      <point x="624" y="602"/>
      <point x="607" y="641"/>
      <point x="578" y="672"/>
      <point x="539" y="692"/>
      <point x="517" y="692" type="qcurve" smooth="yes"/>
      <point x="491" y="692"/>
      <point x="470" y="684" type="qcurve"/>
      <point x="464" y="681" type="line" smooth="yes"/>
      <point x="454" y="676"/>
      <point x="447" y="676" type="qcurve" smooth="yes"/>
      <point x="437" y="676"/>
      <point x="424" y="692"/>
      <point x="424" y="701" type="qcurve" smooth="yes"/>
      <point x="424" y="715"/>
      <point x="436" y="721" type="qcurve"/>
      <point x="447" y="729"/>
      <point x="460" y="733" type="qcurve"/>
      <point x="486" y="744"/>
      <point x="517" y="742" type="qcurve"/>
      <point x="549" y="742"/>
      <point x="604" y="713"/>
      <point x="645" y="668"/>
      <point x="668" y="611"/>
      <point x="668" y="584" type="qcurve" smooth="yes"/>
      <point x="668" y="557"/>
      <point x="645" y="501"/>
      <point x="604" y="456"/>
      <point x="549" y="427"/>
      <point x="517" y="427" type="qcurve" smooth="yes"/>
      <point x="485" y="427"/>
      <point x="435" y="446"/>
      <point x="395" y="477"/>
      <point x="363" y="518"/>
      <point x="349" y="540" type="qcurve"/>
      <point x="323" y="584" type="line" smooth="yes"/>
      <point x="310" y="607"/>
      <point x="283" y="646"/>
      <point x="250" y="675"/>
      <point x="209" y="692"/>
      <point x="182" y="692" type="qcurve" smooth="yes"/>
      <point x="160" y="692"/>
      <point x="120" y="672"/>
      <point x="91" y="641"/>
      <point x="74" y="602"/>
      <point x="74" y="584" type="qcurve" smooth="yes"/>
      <point x="74" y="566"/>
      <point x="91" y="528"/>
      <point x="120" y="497"/>
      <point x="160" y="477"/>
      <point x="182" y="477" type="qcurve" smooth="yes"/>
      <point x="210" y="477"/>
    </contour>
    <contour>
      <point x="121" y="237" type="line" smooth="yes"/>
      <point x="81" y="237"/>
      <point x="81" y="277" type="qcurve" smooth="yes"/>
      <point x="81" y="295" type="line" smooth="yes"/>
      <point x="81" y="335"/>
      <point x="121" y="335" type="qcurve" smooth="yes"/>
      <point x="595" y="335" type="line" smooth="yes"/>
      <point x="635" y="335"/>
      <point x="635" y="295" type="qcurve" smooth="yes"/>
      <point x="635" y="277" type="line" smooth="yes"/>
      <point x="635" y="237"/>
      <point x="595" y="237" type="qcurve" smooth="yes"/>
    </contour>
    <contour>
      <point x="121" y="52" type="line" smooth="yes"/>
      <point x="81" y="52"/>
      <point x="81" y="92" type="qcurve" smooth="yes"/>
      <point x="81" y="110" type="line" smooth="yes"/>
      <point x="81" y="150"/>
      <point x="121" y="150" type="qcurve" smooth="yes"/>
      <point x="595" y="150" type="line" smooth="yes"/>
      <point x="635" y="150"/>
      <point x="635" y="110" type="qcurve" smooth="yes"/>
      <point x="635" y="92" type="line" smooth="yes"/>
      <point x="635" y="52"/>
      <point x="595" y="52" type="qcurve" smooth="yes"/>
    </contour>
  </outline>
</glyph>
<glyph name="arc" format="2">
  <advance width="765"/>
  <unicode hex="2312"/>
  <outline>
    <contour>
      <point x="96" y="665" type="line"/>
      <point x="89" y="660"/>
      <point x="81" y="660" type="qcurve" smooth="yes"/>
      <point x="50" y="660"/>
      <point x="50" y="691" type="qcurve" smooth="yes"/>
      <point x="50" y="695"/>
      <point x="55" y="710"/>
      <point x="66" y="717" type="qcurve"/>
      <point x="200" y="794" type="line" smooth="yes"/>
      <point x="236" y="814"/>
      <point x="274" y="814" type="qcurve" smooth="yes"/>
      <point x="491" y="814" type="line"/>
      <point x="529" y="815"/>
      <point x="565" y="794" type="qcurve" smooth="yes"/>
      <point x="699" y="717" type="line"/>
      <point x="710" y="710"/>
      <point x="715" y="695"/>
      <point x="715" y="692" type="qcurve" smooth="yes"/>
      <point x="715" y="660"/>
      <point x="684" y="660" type="qcurve" smooth="yes"/>
      <point x="676" y="660"/>
      <point x="669" y="665" type="qcurve"/>
      <point x="549" y="734" type="line" smooth="yes"/>
      <point x="513" y="754"/>
      <point x="475" y="754" type="qcurve" smooth="yes"/>
      <point x="290" y="754" type="line" smooth="yes"/>
      <point x="252" y="754"/>
      <point x="216" y="734" type="qcurve" smooth="yes"/>
    </contour>
  </outline>
</glyph>
<glyph name="male" format="2">
  <advance width="765"/>
  <unicode hex="2642"/>
  <outline>
    <contour>
      <point x="77" y="52" type="line" smooth="yes"/>
      <point x="49" y="80"/>
      <point x="49" y="120" type="qcurve" smooth="yes"/>
      <point x="49" y="305" type="line" smooth="yes"/>
      <point x="49" y="345"/>
      <point x="77" y="373" type="qcurve" smooth="yes"/>
      <point x="101" y="397" type="line" smooth="yes"/>
      <point x="129" y="425"/>
      <point x="169" y="425" type="qcurve" smooth="yes"/>
      <point x="364" y="425" type="line" smooth="yes"/>
      <point x="404" y="425"/>
      <point x="432" y="453" type="qcurve" smooth="yes"/>
      <point x="525" y="545" type="line" smooth="yes"/>
      <point x="535" y="555"/>
      <point x="535" y="562" type="qcurve" smooth="yes"/>
      <point x="535" y="573"/>
      <point x="513" y="573" type="qcurve" smooth="yes"/>
      <point x="381" y="573" type="line" smooth="yes"/>
      <point x="341" y="573"/>
      <point x="341" y="613" type="qcurve" smooth="yes"/>
      <point x="341" y="625" type="line" smooth="yes"/>
      <point x="341" y="665"/>
      <point x="381" y="665" type="qcurve" smooth="yes"/>
      <point x="676" y="665" type="line" smooth="yes"/>
      <point x="716" y="665"/>
      <point x="716" y="625" type="qcurve" smooth="yes"/>
      <point x="716" y="330" type="line" smooth="yes"/>
      <point x="716" y="290"/>
      <point x="676" y="290" type="qcurve" smooth="yes"/>
      <point x="664" y="290" type="line" smooth="yes"/>
      <point x="624" y="290"/>
      <point x="624" y="330" type="qcurve" smooth="yes"/>
      <point x="624" y="470" type="line" smooth="yes"/>
      <point x="624" y="492"/>
      <point x="613" y="492" type="qcurve" smooth="yes"/>
      <point x="606" y="492"/>
      <point x="596" y="482" type="qcurve" smooth="yes"/>
      <point x="502" y="388" type="line" smooth="yes"/>
      <point x="474" y="360"/>
      <point x="474" y="320" type="qcurve" smooth="yes"/>
      <point x="474" y="120" type="line" smooth="yes"/>
      <point x="474" y="80"/>
      <point x="446" y="52" type="qcurve" smooth="yes"/>
      <point x="422" y="28" type="line" smooth="yes"/>
      <point x="394" y="0"/>
      <point x="354" y="0" type="qcurve" smooth="yes"/>
      <point x="169" y="0" type="line" smooth="yes"/>
      <point x="129" y="0"/>
      <point x="101" y="28" type="qcurve" smooth="yes"/>
    </contour>
    <contour>
      <point x="181" y="92" type="qcurve" smooth="yes"/>
      <point x="342" y="92" type="line" smooth="yes"/>
      <point x="382" y="92"/>
      <point x="382" y="132" type="qcurve" smooth="yes"/>
      <point x="382" y="293" type="line" smooth="yes"/>
      <point x="382" y="333"/>
      <point x="342" y="333" type="qcurve" smooth="yes"/>
      <point x="181" y="333" type="line" smooth="yes"/>
      <point x="141" y="333"/>
      <point x="141" y="293" type="qcurve" smooth="yes"/>
      <point x="141" y="132" type="line" smooth="yes"/>
      <point x="141" y="92"/>
    </contour>
  </outline>
</glyph>
